<?xml version="1.0" standalone="no"?>
<!DOCTYPE svg PUBLIC "-//W3C//DTD SVG 20010904//EN"
 "http://www.w3.org/TR/2001/REC-SVG-20010904/DTD/svg10.dtd">
<svg version="1.0" xmlns="http://www.w3.org/2000/svg"
 width="1536.000000pt" height="1536.000000pt" viewBox="0 0 1536.000000 1536.000000"
 preserveAspectRatio="xMidYMid meet">
<metadata>
Created by potrace 1.16, written by Peter Selinger 2001-2019
</metadata>
<g transform="translate(0.000000,1536.000000) scale(0.100000,-0.100000)"
fill="#000000" stroke="none">
<path d="M8800 13439 c-80 -12 -185 -47 -280 -93 -72 -35 -256 -175 -267 -202
-3 -8 -19 -22 -35 -30 -37 -19 -24 -40 33 -49 28 -5 39 -12 39 -25 0 -10 10
-21 23 -25 18 -6 19 -8 5 -12 -24 -6 -252 71 -403 137 -27 12 -126 48 -220 82
-229 81 -215 82 -550 -54 -314 -128 -585 -240 -720 -298 -136 -59 -298 -120
-303 -116 -8 8 35 42 49 39 16 -5 -75 81 -107 100 -99 57 -125 67 -182 67 -33
0 -99 -7 -148 -15 -164 -29 -240 -23 -333 27 -208 113 -243 123 -391 113 -214
-14 -268 -47 -440 -271 -25 -32 -67 -82 -94 -111 -39 -43 -45 -54 -32 -59 20
-8 21 -43 1 -50 -8 -3 -36 8 -62 25 -25 17 -53 31 -60 31 -8 0 -42 9 -76 19
-34 10 -109 26 -167 35 -141 23 -169 26 -145 20 11 -3 24 -10 30 -15 5 -5 20
-9 35 -9 18 0 21 -3 11 -9 -14 -9 10 -14 115 -25 60 -6 163 -26 190 -36 13 -5
24 -16 24 -24 0 -10 7 -12 22 -8 16 4 19 2 13 -8 -5 -9 -4 -11 3 -6 7 4 23
-10 39 -33 16 -22 34 -38 41 -36 9 3 11 -3 6 -23 -4 -21 -3 -24 5 -12 9 13 11
13 11 -1 0 -9 7 -19 15 -23 8 -3 15 -10 15 -15 0 -5 13 -24 30 -42 16 -18 27
-36 24 -41 -3 -4 1 -8 9 -8 7 0 18 -10 24 -22 6 -13 31 -49 57 -80 25 -31 46
-61 46 -67 0 -6 5 -11 10 -11 17 0 11 15 -14 39 -14 13 -30 36 -36 52 -7 16
-16 29 -21 29 -5 0 -9 5 -9 12 0 6 -22 42 -50 80 -27 38 -50 71 -50 74 0 3
-14 26 -32 52 -30 43 -31 46 -13 56 31 18 102 95 186 203 133 170 181 197 355
198 l101 0 163 -79 c155 -76 167 -80 244 -84 61 -3 113 2 209 22 l128 25 53
-19 c34 -13 66 -35 90 -61 29 -33 39 -39 51 -29 8 6 21 10 30 8 20 -4 -36 -33
-200 -101 -71 -30 -229 -96 -350 -147 -327 -137 -623 -262 -870 -368 -431
-186 -518 -221 -526 -217 -4 3 -11 0 -14 -5 -4 -6 -17 -15 -28 -20 -12 -5 -60
-25 -107 -45 -47 -20 -153 -63 -235 -96 -83 -33 -206 -88 -275 -122 l-125 -62
-3 -84 c-4 -112 4 -120 203 -201 44 -18 85 -37 91 -42 6 -4 43 -19 82 -33 64
-22 196 -73 510 -196 90 -35 244 -91 367 -134 22 -8 94 -35 160 -60 66 -26
143 -53 170 -62 28 -8 55 -18 60 -22 24 -17 96 -33 133 -30 l40 4 7 -322 c6
-244 5 -326 -4 -337 -7 -8 -65 -45 -129 -83 -191 -111 -278 -193 -375 -351
l-45 -73 -119 -59 c-144 -71 -217 -118 -345 -221 -119 -97 -153 -132 -227
-229 -78 -103 -147 -228 -182 -331 -30 -91 -52 -247 -43 -312 8 -56 0 -76 -57
-137 -61 -65 -143 -186 -159 -235 -7 -21 -18 -35 -28 -36 -11 0 -12 -2 -4 -6
6 -2 12 -11 12 -19 0 -12 -5 -12 -31 2 -17 8 -28 11 -24 5 10 -17 -18 -23 -48
-12 -39 15 -33 3 5 -13 58 -24 81 -29 74 -17 -4 6 -2 11 5 11 8 0 9 -13 5 -42
-3 -24 -8 -76 -12 -115 -4 -40 -11 -70 -15 -67 -5 3 -6 10 -3 16 4 6 -1 8 -15
3 -12 -4 -28 -2 -36 5 -8 6 -19 9 -25 5 -5 -3 -10 -3 -10 2 0 4 -19 17 -41 28
-47 22 -69 49 -69 84 0 24 -1 24 -17 9 -13 -14 -14 -22 -6 -41 14 -31 146
-113 194 -121 l36 -6 7 -133 c4 -72 12 -165 19 -206 11 -63 17 -75 40 -87 38
-21 35 -55 -10 -105 -44 -48 -75 -65 -213 -115 -95 -33 -115 -37 -210 -37
-186 -2 -360 57 -511 171 -82 61 -195 201 -280 342 -44 72 -129 259 -129 282
0 6 -13 33 -30 60 -29 46 -30 54 -30 158 0 153 -31 222 -107 236 -26 5 -35 12
-41 38 l-9 31 -7 -32 c-4 -18 -14 -36 -21 -41 -11 -6 -12 -16 -3 -52 6 -25 12
-54 13 -65 2 -11 6 -33 10 -49 6 -20 4 -27 -3 -22 -6 3 -13 19 -17 35 -3 16
-13 35 -21 42 -8 6 -14 17 -14 23 0 17 -73 86 -92 86 -52 0 -149 -66 -163
-111 -4 -11 -11 -17 -16 -14 -5 4 -9 -1 -9 -9 0 -8 10 -16 22 -18 12 -2 27
-12 33 -24 9 -17 15 -19 38 -11 34 11 53 -2 62 -44 10 -46 25 -44 25 3 l1 43
18 -23 c22 -25 33 -29 25 -7 -4 9 -1 15 7 15 22 0 42 -17 45 -37 4 -23 54
-133 54 -118 0 5 11 -7 25 -27 14 -20 25 -41 25 -45 0 -26 -59 -3 -185 72 -78
47 -149 87 -158 91 -9 3 -19 21 -23 39 -3 19 -14 41 -24 50 -18 16 -20 15 -48
-24 l-30 -41 19 -53 c10 -28 32 -63 48 -77 47 -41 74 -60 86 -60 21 0 145 -44
145 -52 0 -26 -173 -46 -176 -20 -1 6 -2 18 -3 25 -1 14 -59 52 -67 44 -3 -3
6 -17 20 -32 14 -15 23 -32 20 -37 -4 -6 -9 -6 -14 2 -5 7 -20 9 -43 5 -29 -6
-38 -4 -43 9 -3 9 -10 16 -14 16 -16 0 -18 -28 -4 -55 19 -37 18 -41 -8 -19
-20 18 -21 18 -15 1 4 -10 7 -24 7 -30 1 -31 17 -40 54 -27 42 14 66 5 39 -16
-10 -7 -26 -14 -35 -14 -17 0 -17 -2 -1 -34 9 -19 24 -37 35 -39 25 -7 88 11
88 25 0 6 9 8 23 3 35 -11 57 -8 154 25 165 54 199 41 278 -108 26 -48 64
-109 84 -137 20 -27 44 -62 53 -76 29 -45 99 -122 162 -178 226 -198 483 -276
766 -232 63 10 153 30 199 45 46 14 86 24 88 23 2 -2 -3 -17 -11 -33 -8 -16
-27 -69 -42 -119 -26 -82 -28 -104 -28 -250 -1 -158 0 -161 36 -270 20 -60 39
-126 42 -145 41 -264 53 -310 103 -396 21 -36 49 -84 62 -107 13 -23 61 -79
106 -124 45 -44 103 -112 129 -151 59 -89 184 -217 260 -267 33 -21 100 -54
150 -73 87 -34 97 -35 216 -35 69 0 151 3 183 8 54 7 60 6 85 -18 44 -41 95
-67 132 -67 44 0 80 -10 80 -21 0 -5 -7 -9 -16 -9 -9 0 -39 -13 -66 -30 -26
-16 -51 -30 -54 -30 -3 0 -19 -9 -35 -21 -22 -15 -27 -24 -20 -37 10 -17 -14
-50 -27 -37 -4 4 -1 10 6 12 12 5 18 33 6 33 -3 0 -19 -8 -35 -17 -37 -22 -39
-46 -4 -37 15 4 25 2 25 -5 0 -14 66 21 92 48 10 12 26 21 34 21 8 0 25 7 38
15 23 16 61 11 50 -6 -9 -16 -74 -38 -92 -33 -15 5 -15 4 2 -10 23 -18 15 -31
-26 -45 l-33 -11 24 20 c36 31 21 32 -24 1 -42 -28 -44 -34 -94 -191 -16 -52
-47 -142 -69 -200 -31 -81 -42 -125 -47 -195 -10 -132 -18 -153 -81 -219 -58
-59 -156 -116 -202 -116 -12 0 -25 -6 -28 -14 -3 -8 -13 -17 -21 -20 -14 -6
-14 -4 -2 11 12 14 12 16 -1 11 -8 -3 -32 -11 -53 -19 -20 -7 -37 -16 -37 -20
0 -4 -20 -15 -45 -25 -25 -9 -45 -21 -45 -25 0 -5 24 1 53 12 80 33 96 38 181
54 52 9 83 20 89 31 6 11 12 13 16 6 4 -7 17 -3 35 13 16 14 32 25 35 25 12 0
91 78 91 90 0 9 -4 9 -17 -1 -16 -13 -17 -12 -4 3 10 13 18 15 31 8 14 -8 19
-27 23 -102 5 -95 30 -172 87 -273 13 -22 36 -65 52 -95 30 -55 74 -120 91
-131 5 -3 8 -9 8 -13 -3 -17 0 -26 12 -38 8 -7 42 -56 77 -108 35 -52 79 -110
97 -129 94 -99 111 -161 69 -237 -19 -34 -22 -43 -8 -31 10 9 24 33 31 54 19
52 32 68 42 51 12 -18 11 -58 -1 -58 -6 0 -9 -3 -8 -7 1 -5 -3 -19 -10 -33
-11 -22 -10 -21 12 5 34 39 40 75 26 138 -18 77 -28 91 -47 75 -15 -12 -15
-11 -5 9 8 14 9 24 2 28 -21 13 1 24 36 18 36 -6 114 14 114 29 0 4 8 4 18 -2
21 -12 121 -47 187 -66 79 -22 97 -15 25 10 -74 26 -128 52 -148 72 -18 19
-109 18 -146 -1 -50 -26 -82 -19 -125 27 -56 62 -104 127 -178 242 -36 56 -74
113 -84 129 -11 15 -41 71 -67 125 -46 93 -49 105 -66 249 -25 210 -20 292 28
408 20 50 55 140 77 200 22 61 51 129 64 151 14 23 27 59 31 81 9 57 30 66
149 68 96 2 140 9 131 24 -3 4 6 7 20 7 18 0 23 -4 18 -15 -25 -61 -46 -147
-51 -212 -8 -110 20 -189 96 -272 l56 -62 -6 -149 -6 -149 -34 -31 c-19 -17
-43 -42 -54 -56 -18 -23 -18 -23 11 2 32 30 46 35 39 16 -12 -32 -22 -108 -14
-108 5 0 9 8 9 18 0 37 48 157 64 160 9 2 16 -3 16 -11 0 -22 49 -77 68 -77
12 0 7 9 -15 32 -29 31 -58 102 -48 119 3 4 1 56 -4 116 -5 59 -8 109 -7 111
2 2 22 -7 45 -19 23 -12 84 -28 136 -37 85 -14 101 -14 175 1 146 29 288 118
356 222 61 92 78 100 148 71 l34 -14 -23 -77 c-29 -92 -55 -261 -55 -352 0
-219 73 -474 247 -863 74 -164 163 -423 189 -550 11 -56 17 -135 18 -235 1
-150 1 -150 -31 -210 -51 -97 -89 -143 -143 -170 -27 -14 -57 -25 -66 -25 -9
0 -38 21 -63 48 -97 100 -230 98 -440 -7 -109 -55 -229 -91 -303 -91 -26 0
-48 -3 -48 -7 0 -5 -29 -8 -64 -8 -39 0 -62 4 -59 10 2 6 -2 2 -9 -7 -10 -11
-19 -14 -29 -8 -8 5 -22 7 -31 4 -11 -3 -18 0 -18 8 0 9 -3 9 -8 2 -11 -16
-75 -27 -66 -11 5 8 2 7 -9 -2 -11 -8 -17 -9 -17 -2 0 7 -8 8 -25 1 -16 -6
-25 -6 -25 0 0 6 -7 10 -15 10 -8 0 -15 -4 -15 -10 0 -5 -5 -10 -11 -10 -5 0
-8 4 -5 9 3 5 -7 11 -24 13 -19 3 -31 0 -35 -10 -4 -11 -8 -12 -20 -2 -8 7
-15 9 -15 4 0 -5 -28 -9 -63 -8 -34 0 -66 -2 -72 -5 -12 -7 -254 -8 -250 -1 2
3 -17 5 -41 5 -24 0 -44 -2 -44 -5 0 -3 -61 -4 -135 -3 -83 1 -133 -2 -130 -8
8 -12 -8 -12 -20 0 -12 12 -77 17 -91 8 -6 -3 -40 -8 -75 -11 -70 -5 -94 -12
-121 -35 -23 -20 -23 -27 3 -34 16 -4 19 -2 15 11 -5 15 -5 15 6 1 31 -39 90
-47 321 -49 50 0 76 -4 72 -10 -7 -11 10 -14 73 -10 24 1 42 -3 42 -9 0 -11
235 -9 350 2 41 5 46 4 20 -2 -34 -8 -18 -16 24 -11 10 1 15 -3 12 -8 -4 -7 4
-8 21 -3 16 4 48 4 73 -1 25 -5 83 -9 130 -9 47 1 117 -1 155 -2 39 -2 78 1
88 5 10 6 17 5 17 -2 0 -7 6 -8 18 -1 11 6 23 6 33 0 7 -5 31 -6 53 -3 30 5
37 3 31 -7 -6 -9 -3 -11 9 -6 10 4 36 -2 59 -12 48 -22 106 -29 126 -16 11 6
13 4 8 -8 -7 -18 3 -23 18 -8 6 5 21 12 35 16 19 5 21 4 10 -4 -12 -9 -11 -11
8 -11 12 0 22 3 22 8 0 4 30 8 67 8 59 1 65 0 48 -12 -21 -15 -9 -19 14 -5 9
6 22 6 32 0 23 -12 197 -20 204 -9 3 5 30 7 60 5 30 -1 57 1 60 5 2 3 23 7 45
8 23 1 39 -2 36 -7 -8 -12 76 -22 90 -10 7 5 31 7 55 3 40 -7 43 -6 31 9 -12
14 -10 15 17 4 20 -7 31 -19 32 -32 1 -20 1 -20 7 0 8 22 37 31 55 17 15 -12
68 -13 83 -1 7 5 67 10 135 10 68 0 144 1 169 1 99 2 276 -8 289 -16 10 -6 12
-5 7 2 -5 8 1 12 18 12 13 0 26 -5 28 -12 3 -7 10 -8 17 -4 11 7 11 10 0 17
-10 6 -10 9 -2 9 7 0 17 -8 22 -17 8 -13 13 -15 18 -7 6 8 48 11 136 9 70 -2
125 0 123 3 -2 4 13 7 35 8 25 1 36 -3 32 -10 -4 -8 -3 -8 6 0 12 11 273 10
369 -1 24 -3 41 -1 38 4 -3 4 34 6 82 4 58 -3 82 -1 73 6 -14 9 6 9 107 -4 17
-2 32 0 32 4 0 11 58 20 82 13 10 -2 15 -8 12 -14 -3 -5 6 -6 23 -3 15 3 22 2
15 -1 -6 -3 -10 -10 -6 -15 9 -15 24 0 24 24 1 21 1 21 14 4 12 -15 25 -17 70
-14 31 2 59 7 62 10 3 3 -10 4 -30 3 -20 -2 -36 1 -36 5 0 5 48 7 108 6 59 -2
122 0 140 4 36 8 54 -5 20 -14 -12 -4 -20 -9 -16 -12 3 -3 18 -1 33 5 16 6 41
8 55 5 35 -8 127 15 108 26 -14 9 6 12 120 14 35 1 66 -3 69 -8 3 -5 9 -4 13
2 3 6 35 13 71 14 42 1 64 6 64 14 0 7 5 16 10 22 12 11 131 24 232 25 39 1
69 4 66 9 -2 4 1 7 6 7 6 0 11 -5 11 -11 0 -8 5 -8 15 1 8 7 24 10 35 7 13 -3
20 0 20 9 0 8 7 14 15 14 9 0 12 -6 9 -15 -4 -8 -1 -15 5 -15 6 0 11 7 11 15
0 8 5 15 10 15 6 0 10 -6 10 -12 0 -8 15 -13 40 -14 33 0 39 3 35 15 -5 13 -4
14 6 4 7 -7 22 -13 34 -13 15 0 17 2 6 9 -9 6 -10 11 -2 15 16 10 33 -3 27
-20 -3 -8 -2 -14 3 -14 5 0 11 9 14 20 6 23 -14 43 -36 34 -8 -3 -18 0 -22 6
-5 8 -11 8 -21 -1 -8 -6 -14 -7 -14 -2 0 5 -13 10 -30 10 -16 0 -30 -3 -30 -6
0 -10 -203 -13 -209 -3 -3 5 -26 12 -50 16 -36 6 -42 4 -38 -9 4 -8 3 -15 -1
-15 -14 0 -62 25 -62 32 0 4 -28 7 -61 7 -37 -1 -65 4 -69 11 -6 9 -9 9 -15 1
-5 -9 -10 -9 -20 -1 -9 8 -14 8 -17 -1 -4 -13 -47 4 -60 25 -5 7 -8 7 -8 1 0
-6 -35 -10 -86 -10 -70 0 -88 3 -98 18 -15 20 -52 23 -59 5 -4 -10 -6 -10 -6
0 -1 7 -6 10 -11 7 -5 -3 -10 -1 -10 4 0 6 -7 11 -15 11 -8 0 -15 -3 -15 -7 0
-5 -45 -8 -100 -7 -78 1 -100 -2 -100 -12 0 -29 -29 -12 -44 25 -12 32 -29 48
-85 80 -98 58 -114 62 -229 68 -101 4 -103 4 -177 -32 -43 -20 -84 -48 -97
-65 -27 -37 -37 -37 -93 -4 -110 64 -200 208 -237 379 -19 89 -22 130 -21 365
0 146 6 310 12 365 19 149 68 376 107 495 43 131 161 374 241 500 74 118 93
153 93 180 0 11 5 20 10 20 6 0 10 -9 10 -20 0 -11 13 -47 29 -78 49 -97 182
-194 335 -243 58 -18 83 -21 155 -16 103 7 144 20 322 103 193 89 237 92 344
25 120 -75 208 -97 354 -88 68 4 119 14 171 33 75 26 189 88 239 127 68 55
163 166 211 247 73 123 76 126 162 139 166 24 235 42 312 79 122 58 235 171
314 312 55 99 111 310 115 435 2 64 4 70 22 66 43 -8 219 -51 429 -105 121
-31 223 -53 227 -49 4 5 22 46 39 93 40 104 312 741 370 865 23 50 67 141 96
202 30 62 54 115 54 117 0 2 24 55 53 117 30 63 56 121 60 129 3 9 6 3 6 -13
1 -37 28 -100 40 -93 5 4 7 -4 3 -16 -4 -17 -2 -20 11 -15 13 5 17 1 17 -15 0
-12 14 -33 32 -48 27 -23 29 -27 14 -33 -9 -4 -15 -3 -12 1 6 9 -11 39 -18 32
-2 -3 4 -29 14 -59 9 -29 20 -47 22 -41 2 7 10 11 17 9 11 -4 10 -9 -4 -22
-16 -17 -16 -19 -1 -36 9 -10 16 -24 16 -33 0 -8 18 -69 40 -136 47 -142 57
-229 41 -361 -9 -70 -9 -97 0 -107 13 -16 4 -64 -12 -64 -6 0 -8 9 -4 20 4 11
2 20 -4 20 -6 0 -11 -9 -11 -21 0 -11 -23 -68 -51 -127 -66 -137 -119 -275
-118 -304 1 -22 1 -22 8 2 7 24 8 24 15 -10 5 -19 8 -39 7 -43 -1 -4 7 -3 18
3 24 13 31 13 31 0 0 -5 -11 -12 -24 -16 -13 -3 -29 -15 -35 -27 -9 -19 -10
-15 -6 21 3 27 0 42 -7 42 -8 0 -9 -25 -4 -82 25 -306 18 -421 -30 -525 -28
-63 -29 -70 -7 -52 15 13 15 12 2 -8 -7 -12 -16 -18 -19 -13 -3 6 -24 -14 -45
-43 -38 -49 -141 -157 -150 -157 -3 0 -15 -9 -27 -20 -47 -43 -54 -47 -83 -55
-16 -5 -43 -9 -60 -10 -87 -7 -162 -41 -224 -102 -34 -33 -39 -43 -25 -43 15
0 16 -2 5 -9 -7 -5 -22 -6 -34 -3 -15 4 -18 2 -12 -8 6 -9 4 -11 -4 -6 -7 5
-20 1 -29 -6 -33 -29 -250 -118 -286 -118 -32 0 -93 -45 -100 -75 -5 -18 -13
-25 -31 -25 -13 0 -27 -5 -30 -11 -4 -6 -14 -8 -23 -4 -31 12 -343 15 -451 5
-128 -12 -227 -43 -306 -97 -106 -70 -131 -82 -204 -98 -97 -20 -160 -19 -232
5 -127 43 -202 6 -379 -186 -30 -33 -92 -86 -137 -117 -163 -115 -236 -227
-278 -427 -29 -143 -68 -288 -95 -358 -25 -64 -47 -287 -53 -534 l-4 -168 50
3 c29 1 52 8 55 15 2 8 -2 10 -13 6 -16 -6 -16 -4 1 27 13 25 18 62 20 139 7
257 15 359 33 397 10 21 22 58 26 83 18 119 106 445 136 506 39 78 113 154
224 229 48 32 107 84 145 128 116 132 134 139 287 112 92 -16 120 -13 267 30
104 30 107 31 212 102 61 41 94 56 140 64 32 5 93 16 134 23 114 21 235 15
290 -13 l46 -23 57 31 c52 28 57 29 67 13 10 -15 10 -14 5 4 -5 20 4 24 117
53 120 32 278 89 328 120 37 23 143 103 160 121 30 32 90 59 177 80 109 26
133 37 126 59 -4 13 -3 14 5 1 9 -12 14 -12 37 0 69 37 189 170 279 309 23 37
26 47 17 67 -6 13 -6 24 -2 24 5 0 11 -8 13 -17 3 -13 11 -4 25 27 29 62 44
121 38 150 -3 14 0 47 6 75 9 38 9 74 -1 160 -7 60 -17 115 -22 122 -5 7 -7
22 -3 34 4 12 3 19 -2 16 -5 -3 -15 -2 -23 4 -12 7 -10 9 8 9 32 0 27 20 -5
21 l-28 0 25 11 c24 10 24 10 5 18 -11 5 -15 9 -9 9 7 1 15 17 18 36 4 19 11
35 15 35 14 0 62 125 55 146 -4 13 -3 15 3 6 7 -9 14 -5 29 15 26 35 35 61 25
65 -5 2 -11 14 -15 28 -6 23 -6 23 7 8 8 -10 17 -15 20 -11 4 3 1 13 -6 21
-10 13 -9 14 11 3 12 -6 21 -8 20 -4 -1 4 7 28 19 54 36 80 51 233 25 262 -8
9 -12 20 -9 24 4 3 7 1 7 -5 0 -7 5 -12 10 -12 6 0 10 9 10 21 0 11 -4 17 -10
14 -5 -3 -10 -1 -10 4 0 6 5 11 10 11 19 0 -13 193 -44 278 -8 20 -20 61 -26
89 -7 29 -15 51 -18 49 -4 -2 -8 6 -8 19 -3 36 -52 153 -96 229 -61 104 -129
197 -139 191 -11 -7 -12 -12 46 147 56 154 56 184 3 213 l-37 20 -25 -24 c-24
-22 -31 -21 -27 3 3 15 -22 37 -37 31 -8 -3 -22 0 -31 7 -10 8 -9 3 4 -12 l20
-25 -20 15 c-11 8 -30 25 -43 38 l-23 24 31 54 c36 65 38 99 8 116 -62 35
-231 71 -628 134 -47 7 -141 18 -210 25 -182 16 -167 9 -174 82 -4 35 -22 99
-40 143 -18 43 -50 118 -70 166 -39 96 -45 155 -25 262 8 44 7 61 -2 72 -10
13 -10 17 2 24 11 8 14 45 14 197 0 193 -1 201 -49 344 l-22 65 216 -3 c118
-2 237 -8 263 -14 27 -5 53 -6 59 -3 6 4 8 2 5 -3 -4 -6 1 -14 11 -18 32 -12
82 -50 82 -62 0 -7 5 -13 10 -13 22 0 70 -42 70 -60 0 -6 4 -10 9 -10 6 0 31
-18 57 -41 65 -56 109 -83 254 -159 114 -59 128 -70 162 -120 20 -30 49 -93
63 -140 28 -93 29 -96 71 -190 56 -128 108 -189 197 -233 60 -31 156 -57 207
-57 128 -1 178 -43 221 -185 52 -167 76 -237 109 -310 17 -38 39 -88 49 -109
l17 -39 0 52 c0 28 -3 46 -7 40 -11 -18 -18 4 -14 44 2 20 0 37 -5 37 -5 0 -5
13 0 30 5 18 5 30 -1 30 -5 0 -9 -4 -9 -9 0 -5 -8 -12 -17 -15 -14 -6 -13 -2
4 16 26 25 44 16 48 -24 2 -13 13 -45 26 -73 12 -27 24 -64 26 -83 3 -18 11
-45 19 -60 8 -15 14 -37 14 -49 0 -13 5 -23 10 -23 14 0 13 11 -11 87 -107
344 -149 485 -149 504 0 28 -58 135 -91 167 -19 19 -50 41 -69 49 -55 25 -253
63 -266 52 -8 -7 -11 -4 -10 8 1 14 -6 17 -32 15 -18 -1 -31 1 -28 6 2 4 0 14
-5 22 -8 13 -10 13 -20 0 -9 -13 -10 -13 -6 1 9 26 -14 42 -30 21 -13 -16 -13
-15 -4 3 7 15 3 31 -18 70 -15 27 -44 106 -65 175 -63 209 -115 300 -208 368
-29 20 -56 36 -59 35 -4 -1 -13 4 -19 12 -7 8 -21 15 -32 15 -11 0 -36 7 -56
16 -116 50 -164 80 -235 149 -93 89 -193 162 -250 183 -25 9 -83 16 -142 17
-149 4 -405 26 -441 39 -30 11 -94 59 -94 71 0 7 -41 66 -56 80 -5 5 -29 35
-52 66 -56 75 -165 178 -232 220 -157 99 -259 132 -415 133 l-110 1 -73 -44
c-40 -24 -76 -50 -81 -58 -6 -12 -25 2 -87 62 -104 100 -185 161 -262 197 -63
29 -199 65 -270 72 -56 6 -150 35 -167 52 -8 9 -14 23 -14 32 1 15 2 15 6 0 2
-10 5 -18 6 -18 4 0 247 243 247 246 0 2 -8 1 -17 -2 -15 -5 -15 -4 -3 4 8 6
18 8 22 6 5 -3 36 23 71 58 34 35 97 95 141 133 43 38 98 95 123 127 24 32 49
58 55 58 6 0 3 -10 -8 -22 -14 -15 -5 -12 29 11 26 17 47 28 48 24 0 -4 5 3
10 16 9 24 36 26 83 6 12 -5 17 -5 13 1 -3 6 19 15 52 22 46 10 60 17 69 37 6
14 9 32 6 40 -5 11 1 15 25 15 17 0 31 4 31 9 0 12 -54 21 -61 10 -3 -6 -11
-3 -19 6 -10 12 -10 15 1 15 10 1 8 4 -3 11 -10 5 -18 16 -18 23 0 8 -7 16
-15 20 -34 13 -11 28 90 59 154 48 184 55 223 53 31 -3 52 -11 74 -32 32 -31
83 -132 113 -224 28 -88 45 -119 64 -113 12 4 13 3 2 -5 -10 -7 -11 -14 -2
-31 7 -12 16 -19 21 -16 6 3 7 -1 4 -9 -4 -11 17 -38 62 -84 88 -87 125 -99
329 -111 117 -6 160 -12 197 -28 66 -30 135 -97 170 -167 51 -100 109 -188
157 -239 54 -56 154 -117 231 -142 30 -10 64 -21 75 -26 11 -5 61 -13 110 -18
179 -20 258 -31 276 -36 27 -9 24 4 -3 15 -17 6 -18 9 -6 9 9 1 23 -5 30 -13
10 -9 20 -11 30 -5 12 6 20 2 32 -16 9 -14 21 -23 26 -20 5 3 11 1 15 -4 3 -6
13 -7 22 -4 10 4 14 2 10 -4 -9 -14 15 -23 43 -16 13 3 19 11 16 20 -4 8 -1
11 5 8 6 -4 8 -13 5 -21 -3 -8 7 -21 24 -31 17 -9 30 -24 30 -33 -1 -12 -3
-12 -14 3 -7 9 -19 17 -25 17 -7 0 1 -11 17 -25 20 -16 36 -23 49 -19 17 6 17
6 -1 -8 -12 -10 -15 -17 -8 -22 6 -3 13 -2 17 4 11 17 32 11 49 -15 16 -25 16
-25 -9 -13 -14 6 -28 8 -31 5 -7 -6 39 -70 90 -124 28 -31 31 -32 48 -16 10 9
18 11 18 5 0 -6 -8 -15 -17 -20 -15 -9 -13 -14 13 -45 35 -42 166 -152 206
-173 15 -8 28 -18 28 -23 0 -4 15 -19 33 -32 87 -62 172 -142 262 -245 26 -29
91 -158 101 -201 4 -13 10 -23 14 -23 4 0 8 -6 7 -12 0 -7 1 -24 2 -38 1 -20
3 -22 11 -10 5 8 9 29 8 45 -1 17 2 36 6 43 10 16 -13 112 -26 112 -6 0 -8 6
-5 14 6 14 -14 28 -50 35 -5 1 -2 5 5 10 10 6 6 14 -16 32 -15 14 -27 30 -24
37 5 16 -15 16 -22 0 -3 -7 -2 1 1 17 6 27 5 29 -10 16 -14 -11 -17 -11 -18 0
-5 49 -7 60 -13 66 -3 3 -6 -4 -6 -16 0 -16 -3 -19 -12 -12 -85 68 -168 145
-168 156 0 7 -15 23 -32 35 l-33 22 30 -7 c20 -4 25 -2 16 4 -7 5 -10 14 -7
20 7 11 -30 50 -48 51 -6 0 -3 -6 6 -12 12 -11 13 -17 3 -36 l-13 -23 -6 25
c-3 14 -11 26 -17 26 -8 0 -7 5 1 15 11 13 10 14 -2 10 -9 -4 -18 0 -21 9 -4
11 -1 13 11 9 9 -3 -3 13 -28 36 -45 41 -52 45 -80 42 -12 -2 -12 0 -2 7 10 7
7 16 -16 38 -15 16 -41 49 -57 74 -81 125 -179 234 -202 226 -7 -3 -10 1 -6
10 3 7 0 14 -6 14 -6 0 -13 0 -16 0 -3 0 -14 9 -25 20 -27 27 -94 56 -180 76
-41 10 -76 22 -78 26 -2 4 -10 8 -18 8 -9 0 -12 -4 -9 -10 3 -5 1 -10 -4 -10
-6 0 -11 5 -11 11 0 6 -6 9 -14 6 -7 -3 -18 -1 -24 5 -6 6 -45 11 -86 12 -42
0 -76 4 -76 8 0 3 -10 4 -22 0 -15 -4 -19 -2 -13 8 6 9 -2 11 -34 5 -28 -5
-41 -3 -41 5 0 7 -8 9 -20 5 -11 -4 -20 -2 -20 4 0 6 -35 28 -78 50 -114 57
-160 111 -256 297 -114 221 -244 280 -528 240 -124 -17 -119 -18 -202 22 -5 3
-5 -1 0 -9 7 -12 5 -12 -9 0 -18 14 -24 36 -7 26 6 -3 10 -1 10 4 0 6 -5 11
-11 11 -19 0 -99 188 -100 238 -2 61 -50 186 -89 234 -21 25 -42 39 -66 44
-20 4 -32 10 -27 14 8 8 234 97 460 181 166 61 300 117 329 136 66 43 94 145
54 196 -23 29 -100 74 -180 105 -100 39 -292 118 -560 231 -146 62 -296 125
-335 141 -38 16 -207 86 -375 156 -168 69 -363 150 -435 179 -71 29 -195 80
-275 113 -80 32 -336 134 -570 226 -631 249 -641 253 -634 270 3 7 -4 20 -15
30 -20 18 -20 19 31 64 128 116 244 178 395 213 180 41 319 12 475 -102 93
-68 138 -84 284 -104 146 -20 196 -45 312 -150 96 -87 136 -110 235 -132 161
-35 387 -167 545 -317 64 -61 100 -81 170 -96 82 -18 155 0 306 72 l130 62
115 1 c64 0 235 -4 381 -8 146 -4 260 -4 254 0 -17 12 -24 54 -15 93 l8 35
-256 5 c-368 7 -471 5 -516 -9 -22 -7 -96 -40 -164 -74 -194 -95 -269 -90
-401 29 -38 35 -102 82 -142 105 -40 23 -121 75 -179 114 -102 69 -165 99
-257 125 -33 8 -65 31 -125 89 -139 133 -197 161 -384 185 -119 16 -171 36
-235 91 -110 94 -331 149 -498 124z m-1321 -251 c-5 -17 -7 -34 -4 -36 9 -9
-28 -35 -68 -47 -76 -24 -604 -234 -817 -325 -63 -27 -160 -67 -215 -88 -55
-22 -138 -55 -185 -75 -47 -19 -186 -76 -310 -127 -123 -50 -240 -98 -260
-107 -19 -8 -48 -21 -65 -28 -55 -24 -328 -137 -440 -182 -60 -24 -123 -50
-140 -58 -16 -7 -55 -23 -85 -34 -30 -12 -64 -26 -75 -31 -11 -5 -92 -39 -180
-75 -88 -37 -173 -73 -190 -80 -16 -7 -64 -27 -105 -43 -41 -17 -88 -37 -105
-45 -16 -8 -91 -40 -165 -71 -74 -31 -153 -65 -175 -75 -22 -10 -65 -29 -95
-41 -30 -13 -83 -36 -117 -51 -34 -16 -90 -38 -124 -49 -35 -12 -75 -28 -91
-36 -36 -19 -36 -18 -40 14 -2 18 4 32 17 43 31 25 313 149 595 261 69 28 149
61 178 74 29 13 56 24 60 24 6 0 109 43 492 205 74 32 198 84 275 117 77 32
185 78 240 103 55 24 163 69 240 100 77 32 190 79 250 105 61 26 178 75 260
108 83 33 214 88 293 121 78 34 145 61 148 61 3 0 20 6 37 14 18 8 91 38 162
66 72 29 146 59 165 68 19 8 78 32 130 53 52 20 147 58 210 84 160 67 283 114
297 115 8 0 9 -9 2 -32z m-2130 -1978 c6 -245 13 -584 16 -755 4 -170 9 -318
11 -327 4 -12 -5 -24 -28 -38 -18 -11 -36 -20 -39 -20 -6 0 -12 394 -13 920
-1 257 8 550 20 660 7 67 8 71 15 40 4 -19 12 -235 18 -480z m4973 -390 c11 0
36 -9 55 -21 27 -17 31 -24 22 -35 -6 -8 -18 -14 -26 -14 -20 0 -136 -50 -153
-66 -18 -17 -89 -64 -96 -64 -16 0 -123 -93 -118 -102 4 -7 2 -8 -4 -4 -13 8
-36 -10 -137 -105 -38 -37 -110 -102 -160 -144 -49 -43 -106 -92 -125 -110
l-35 -32 3 186 c1 102 3 206 5 229 l2 44 260 95 c346 127 433 155 456 148 11
-4 19 -3 18 2 -3 18 4 27 8 11 2 -10 14 -18 25 -18z m-2892 -703 c30 -7 68
-20 84 -29 28 -15 28 -15 -37 -12 -66 4 -73 1 -68 -30 3 -13 -20 -36 -30 -30
-5 3 -9 -1 -9 -9 0 -8 -7 -20 -15 -27 -11 -9 -12 -15 -5 -20 7 -4 0 -17 -18
-36 -72 -71 -93 -86 -112 -81 -11 3 -20 1 -20 -3 0 -4 -16 -24 -35 -43 -22
-22 -31 -37 -23 -39 8 -3 5 -11 -10 -23 -12 -11 -22 -25 -22 -32 0 -7 -4 -13
-10 -13 -5 0 -20 -11 -34 -25 -16 -16 -36 -25 -56 -25 -16 0 -30 -4 -30 -10 0
-5 -7 -10 -15 -10 -8 0 -15 5 -15 10 0 16 -18 11 -22 -6 -6 -33 -45 18 -52 70
-7 47 -17 73 -78 201 -15 33 -27 64 -27 69 0 5 -3 12 -8 15 -10 7 -43 78 -43
91 0 6 10 10 23 10 13 0 47 7 76 15 146 44 476 56 611 22z m-1125 -27 l120
-17 -40 -13 c-22 -7 -62 -23 -89 -36 -28 -13 -56 -24 -64 -24 -19 0 -79 -36
-115 -69 -21 -19 -97 -151 -97 -168 0 -1 15 -13 33 -27 46 -36 69 -26 101 42
31 67 72 115 142 165 76 55 154 86 219 88 55 2 57 1 106 -47 48 -47 115 -165
125 -221 5 -24 -10 -32 -20 -10 -5 9 -7 9 -12 -2 -5 -11 -8 -11 -16 0 -8 11
-9 11 -5 -1 2 -8 10 -15 18 -15 9 0 14 -14 16 -45 2 -34 0 -40 -7 -25 -6 14
-9 0 -8 -47 0 -40 5 -65 10 -61 6 3 3 -5 -5 -18 -8 -13 -13 -34 -11 -46 2 -13
-1 -23 -7 -23 -7 0 -7 -6 2 -17 12 -14 12 -17 0 -21 -11 -4 -11 -6 0 -14 10
-7 2 -8 -23 -4 -28 3 -38 1 -38 -9 0 -7 -8 -12 -17 -11 -10 0 -17 -4 -16 -10
1 -7 -11 -17 -27 -24 -17 -7 -30 -19 -30 -27 0 -8 -4 -12 -9 -8 -6 3 -15 -1
-22 -8 -7 -7 -23 -11 -36 -9 -16 3 -23 0 -23 -12 0 -9 -6 -13 -14 -10 -7 3
-20 -1 -27 -9 -8 -7 -20 -12 -28 -9 -8 3 -11 0 -8 -5 3 -5 -6 -10 -21 -11 -24
-2 -25 -1 -8 11 18 13 18 14 2 20 -10 4 -22 5 -26 2 -9 -5 -34 31 -35 48 0 8
-48 67 -87 108 -9 9 -13 21 -10 25 4 3 -6 4 -23 1 -36 -6 -160 47 -149 65 4 6
3 8 -3 5 -6 -4 -34 3 -64 13 -30 11 -87 27 -128 36 -84 17 -94 21 -88 38 3 7
-7 13 -27 14 -24 2 -28 0 -16 -9 13 -9 13 -10 0 -7 -19 6 -37 43 -56 116 -22
82 -47 100 -47 32 0 -20 -3 -26 -9 -18 -6 10 -10 10 -18 -2 -6 -9 -6 -18 0
-24 16 -16 12 -26 -7 -19 -11 5 -14 3 -9 -6 5 -7 17 -11 27 -8 11 3 19 0 19
-7 0 -7 -13 -13 -30 -14 -34 -1 -68 -27 -47 -35 6 -3 2 -6 -10 -6 -12 -1 -25
-6 -28 -12 -4 -6 -13 -8 -21 -5 -8 3 -14 2 -14 -2 0 -4 -20 -15 -45 -25 -25
-11 -45 -23 -45 -28 0 -5 -9 -9 -20 -9 -11 0 -20 -4 -20 -10 0 -5 8 -7 18 -4
26 7 -18 -12 -56 -24 -27 -9 -53 -5 -150 19 -95 24 -141 30 -244 32 l-126 2
18 36 c41 78 115 156 235 244 42 31 183 104 260 135 226 90 391 126 632 138
129 7 178 4 398 -28z m2626 -102 c4 -6 12 -7 18 -4 6 4 11 2 11 -3 0 -6 -5
-11 -11 -11 -8 0 -7 -6 2 -17 13 -15 12 -16 -9 -11 -19 5 -21 4 -11 -8 6 -7
15 -11 20 -8 5 3 9 0 9 -6 0 -7 -17 -9 -45 -6 -25 2 -48 0 -51 -5 -3 -5 -1 -9
5 -9 5 0 24 -20 41 -45 29 -42 30 -61 2 -33 -6 6 -14 9 -17 7 -8 -8 18 -79 27
-73 4 3 3 15 -4 27 -11 21 -10 21 8 7 10 -8 20 -15 22 -16 2 -1 -11 -23 -27
-50 -17 -26 -31 -53 -31 -60 0 -20 -71 -105 -97 -115 -18 -7 -28 -5 -39 6 -9
8 -19 15 -24 15 -5 0 -15 6 -23 14 -7 8 -38 29 -68 47 -54 34 -52 33 -201 39
-14 0 -8 124 7 153 43 83 114 128 250 157 79 18 103 18 75 0 -8 -6 -10 -10 -5
-10 20 0 37 18 30 30 -6 10 6 12 61 6 38 -4 71 -12 75 -18z m-642 -98 c83 -36
87 -48 82 -215 -1 -49 -2 -51 -38 -65 -47 -17 -43 -16 -70 -25 -13 -4 -20 -12
-17 -17 3 -5 0 -8 -7 -6 -8 1 -39 -13 -69 -32 -30 -19 -64 -35 -75 -36 -11 0
-28 -2 -37 -2 -10 -1 -17 -8 -15 -14 1 -8 -11 -14 -30 -16 -18 -2 -33 1 -33 6
0 5 -24 9 -52 10 -109 3 -432 18 -418 20 12 2 12 4 2 11 -16 9 -13 40 6 59 6
7 12 24 12 37 0 31 88 121 155 160 150 87 210 107 435 149 45 8 118 -2 169
-24z m969 -171 c13 0 21 -3 18 -8 -5 -8 10 -19 24 -18 3 0 15 -5 28 -12 19
-10 22 -9 22 8 0 15 5 19 16 14 13 -5 13 -8 2 -15 -9 -7 -4 -8 15 -4 21 5 27
3 27 -10 0 -14 3 -14 15 -4 11 9 12 16 5 25 -8 9 -6 14 4 18 10 4 13 1 9 -9
-3 -9 1 -14 12 -14 14 0 15 -3 6 -14 -9 -11 -9 -16 1 -22 20 -13 58 -16 58 -4
0 5 -6 10 -12 10 -7 0 -2 7 10 16 13 9 26 13 29 10 4 -3 0 -6 -8 -7 -8 0 -4
-4 9 -10 17 -6 28 -5 39 6 9 9 24 13 37 10 11 -2 15 -2 9 1 -23 10 -14 21 17
21 22 0 30 -5 30 -19 0 -10 3 -17 8 -16 4 1 30 -2 57 -7 l50 -10 -70 -5 -70
-5 50 -30 c28 -16 56 -33 64 -36 12 -4 11 -7 -3 -12 -10 -4 -19 -1 -22 8 -4 8
-12 15 -19 15 -7 0 -15 5 -17 12 -2 6 -10 8 -16 4 -7 -4 -9 -13 -5 -19 4 -7 9
-32 11 -57 2 -25 12 -73 24 -106 15 -47 24 -61 36 -58 10 3 31 1 47 -4 22 -6
30 -15 31 -33 2 -52 5 -59 19 -59 8 0 15 6 15 14 0 8 5 18 10 21 11 7 9 -23
-3 -42 -6 -9 -1 -12 15 -10 15 1 26 -5 32 -18 5 -11 19 -28 32 -38 23 -17 24
-17 24 3 0 11 -3 20 -7 20 -5 0 -9 11 -9 25 -2 19 3 25 20 25 17 0 19 -2 6
-11 -13 -9 -13 -10 0 -6 16 4 17 20 5 50 -9 23 17 23 36 0 11 -12 11 -17 2
-20 -9 -3 -6 -11 7 -26 19 -20 19 -22 2 -40 -17 -20 -17 -20 12 -2 29 19 29
19 22 -3 -5 -13 -3 -22 3 -22 22 0 11 49 -15 69 l-27 21 27 -2 c14 -1 26 -6
26 -10 0 -4 5 -8 10 -8 6 0 10 9 10 21 0 11 4 18 8 15 10 -6 8 -32 -3 -59 -4
-10 -2 -23 5 -32 6 -8 8 -20 4 -27 -4 -7 4 -4 17 8 30 26 59 21 51 -8 -4 -17
-2 -20 11 -15 8 3 21 -1 27 -9 7 -8 17 -14 22 -14 5 0 17 -7 26 -16 15 -15 14
-16 -6 -10 -13 5 -22 3 -22 -3 0 -6 7 -11 15 -11 8 0 20 -9 27 -20 7 -11 19
-20 27 -20 10 0 11 -4 3 -12 -6 -7 -13 -30 -17 -50 -7 -39 -24 -52 -26 -20 -1
15 -2 15 -6 -1 -3 -11 3 -24 13 -31 18 -13 12 -37 -9 -35 -9 0 -9 2 1 6 17 7
15 23 -3 23 -9 0 -15 -10 -15 -26 0 -16 -5 -24 -12 -21 -7 2 -12 11 -12 20 2
16 -19 13 -44 -6 -11 -8 -11 -12 0 -19 8 -6 4 -7 -12 -2 -35 9 -36 12 -14 29
18 14 17 15 -11 8 -27 -6 -29 -5 -16 10 8 10 9 17 3 17 -6 0 -14 -4 -17 -10
-10 -16 -28 -11 -21 6 4 11 -1 18 -14 21 -11 3 -19 10 -18 17 4 18 -23 58 -35
53 -7 -3 -13 6 -13 20 -2 29 -9 37 -23 28 -6 -3 -9 -16 -7 -28 1 -12 1 -16 -1
-9 -3 6 -8 12 -13 12 -4 0 -10 7 -13 14 -4 11 -1 13 11 9 15 -6 16 -5 2 13 -8
10 -16 21 -17 23 -1 2 -10 -2 -19 -9 -10 -9 -18 -10 -22 -3 -10 14 -50 23 -54
11 -2 -5 -11 -6 -21 -3 -9 4 -15 11 -12 15 3 4 -12 8 -33 7 -20 0 -67 4 -105
8 -70 8 -157 -7 -157 -28 0 -5 -8 -3 -17 5 -10 9 -23 13 -30 11 -20 -7 -25 15
-29 130 -6 138 -17 186 -57 257 -34 60 -133 170 -152 170 -7 0 -23 9 -36 21
-21 18 -21 20 -4 13 11 -3 30 -6 43 -5z m-150 -28 c15 -10 34 -21 42 -25 9 -3
6 -4 -7 -2 -21 4 -21 3 -6 -20 9 -15 25 -24 40 -24 18 0 24 -4 19 -15 -3 -9 8
-24 29 -41 19 -14 33 -29 31 -33 -6 -10 21 -31 30 -23 4 4 4 1 -1 -7 -4 -7 -4
-16 1 -20 23 -16 34 -52 24 -72 -9 -15 -8 -24 2 -37 9 -11 10 -14 1 -8 -7 4
-13 2 -13 -3 0 -6 4 -11 9 -11 18 0 41 -31 40 -53 0 -12 -3 -16 -6 -9 -2 6 -8
12 -13 12 -4 0 -8 -6 -7 -12 0 -7 -1 -22 -3 -33 -2 -15 -4 -12 -9 10 -5 24 -3
32 14 42 17 10 17 12 3 13 -9 0 -19 -4 -23 -10 -3 -5 -13 -7 -23 -4 -13 5 -14
4 -3 -4 16 -11 5 -36 -11 -26 -7 5 -9 0 -6 -13 4 -17 1 -20 -19 -20 -14 0 -28
-5 -32 -10 -12 -18 -40 -22 -51 -8 -14 16 -34 10 -24 -7 4 -6 2 -8 -4 -4 -6 3
-13 2 -17 -4 -4 -6 -11 -8 -17 -4 -5 3 -54 8 -108 9 -90 3 -99 2 -103 -16 -3
-10 -13 -19 -24 -19 -10 0 -25 -5 -33 -10 -13 -9 -13 -11 0 -21 12 -9 11 -10
-5 -4 -39 14 -61 17 -47 8 27 -20 3 -39 -51 -38 -28 0 -57 -3 -64 -8 -7 -5
-21 -3 -35 4 -21 11 -22 11 -9 -4 18 -23 5 -21 -30 3 -15 12 -26 27 -23 34 3
7 -2 19 -11 26 -14 11 -14 14 1 25 14 10 10 11 -20 9 -21 -2 -36 1 -36 8 0 6
-6 5 -16 -3 -15 -12 -16 -11 -10 9 8 25 3 28 -17 8 -12 -13 -19 -10 -48 17
-19 18 -39 32 -45 32 -10 0 -50 31 -120 92 -26 22 -29 60 -6 55 7 -1 12 2 12
8 0 6 7 10 15 10 8 0 15 7 15 15 0 17 26 32 70 40 18 3 41 10 51 15 25 14 96
12 105 -2 5 -7 2 -8 -7 -3 -10 6 -11 5 -3 -4 7 -8 18 -9 36 -2 15 5 30 6 39 0
11 -7 11 -9 1 -9 -7 0 -10 -5 -7 -11 5 -7 14 -4 27 7 19 18 21 17 64 -5 25
-14 63 -24 87 -25 60 -1 134 55 197 150 72 106 111 126 168 85z m1706 -150
c199 -80 367 -265 526 -576 80 -156 85 -177 85 -387 0 -104 3 -188 6 -188 4 0
6 -18 6 -40 0 -22 -4 -40 -9 -40 -5 0 -6 -10 -3 -22 10 -32 -132 108 -201 199
-30 39 -70 85 -89 101 -46 41 -63 78 -75 164 -16 114 -37 183 -84 282 -92 191
-230 321 -474 447 -51 26 -91 51 -90 54 2 4 -8 13 -22 20 -14 8 -19 14 -12 15
7 0 20 -5 30 -11 12 -8 33 -6 77 5 38 9 95 14 155 12 80 -2 107 -7 174 -35z
m-4984 -41 c41 -12 104 -37 140 -56 73 -40 191 -150 215 -201 18 -36 12 -75
-9 -67 -18 7 -26 -28 -16 -73 5 -20 7 -40 4 -44 -2 -4 2 -10 8 -12 9 -4 9 -8
3 -14 -6 -4 -17 -21 -25 -37 -8 -16 -31 -40 -51 -53 -20 -13 -41 -35 -47 -48
-7 -14 -18 -25 -26 -25 -8 0 -18 -4 -21 -10 -3 -6 1 -7 9 -4 9 3 16 1 16 -5 0
-6 -5 -11 -12 -11 -6 0 -9 -3 -5 -6 3 -3 -11 -23 -31 -45 -20 -21 -45 -50 -55
-64 -13 -18 -24 -24 -37 -20 -12 4 -22 -1 -28 -12 -7 -12 -20 -17 -47 -15 -30
2 -36 0 -32 -13 4 -8 5 -15 2 -15 -2 0 -49 46 -105 101 -55 56 -94 99 -85 95
8 -3 21 -9 29 -12 11 -4 13 0 9 15 -3 12 -10 24 -16 28 -6 4 -7 1 -2 -7 5 -9
4 -11 -3 -6 -7 4 -12 14 -12 22 0 8 -5 12 -10 9 -6 -3 -17 1 -26 9 -18 18 -39
22 -28 5 4 -8 0 -8 -15 0 -15 8 -21 8 -21 1 0 -12 -31 -10 -40 2 -14 18 -257
26 -288 9 -12 -6 -28 -8 -36 -5 -9 3 -16 2 -16 -4 0 -6 -22 -16 -50 -23 -27
-7 -50 -16 -50 -21 0 -4 -10 -8 -22 -8 -17 0 -19 -3 -9 -9 11 -7 9 -10 -8 -16
-11 -3 -26 -15 -31 -26 -6 -11 -21 -19 -35 -19 -14 0 -25 -4 -25 -10 0 -5 -6
-10 -12 -10 -7 0 -25 -21 -41 -46 -24 -40 -30 -44 -43 -33 -14 11 -18 11 -28
-2 -8 -11 -19 -13 -38 -8 -16 4 -28 3 -28 -2 0 -12 -81 -2 -94 11 -6 6 -17 10
-26 10 -9 0 -34 12 -56 26 l-41 26 28 82 c32 90 34 116 17 184 -9 36 -24 59
-67 99 -56 53 -86 66 -38 15 25 -26 66 -105 67 -129 0 -6 -5 -24 -11 -40 l-11
-28 -13 39 c-18 52 -32 65 -28 24 3 -29 1 -27 -17 17 -20 48 -50 90 -50 70 0
-15 26 -95 45 -140 12 -29 15 -53 11 -90 -8 -59 -26 -105 -42 -105 -35 0 -128
-67 -172 -125 -4 -5 -31 -36 -60 -68 -50 -55 -69 -65 -36 -19 8 12 10 22 5 22
-15 0 -14 18 2 23 6 2 5 3 -3 3 -8 -1 -14 -10 -13 -21 2 -23 -38 -62 -72 -71
-14 -3 -25 -10 -25 -15 0 -5 7 -6 15 -3 19 8 19 -3 1 -22 -9 -9 -17 -10 -21
-4 -3 5 -15 10 -27 10 -17 0 -18 -3 -8 -15 7 -8 16 -12 21 -9 5 3 9 0 9 -5 0
-6 -8 -12 -17 -12 -10 -1 -25 -3 -33 -3 -23 -2 -92 -35 -112 -53 -10 -9 -21
-13 -26 -9 -15 16 -4 181 17 261 70 264 255 492 569 699 263 174 385 204 626
151 84 -18 198 -86 119 -70 -24 5 -25 4 -7 -4 27 -12 46 -38 21 -28 -20 8 -47
-1 -47 -15 0 -6 6 -6 14 1 22 18 27 -3 8 -30 -9 -13 -15 -35 -14 -49 5 -39 23
-90 32 -90 5 0 30 32 56 72 85 127 192 215 318 260 66 24 208 18 316 -12z
m1875 -91 c107 -9 211 -28 255 -46 8 -3 18 -7 22 -7 3 -1 10 -4 14 -8 4 -5 14
-8 22 -8 27 0 260 -124 282 -150 3 -4 16 -14 30 -23 60 -41 125 -116 153 -175
16 -35 27 -65 24 -68 -3 -3 -8 3 -11 14 -8 25 -25 32 -51 21 -17 -6 -17 -8 -3
-8 12 -1 15 -6 11 -18 -4 -10 -2 -14 4 -10 7 4 9 -5 7 -25 -2 -18 0 -34 4 -37
11 -8 3 -91 -9 -91 -5 0 -9 7 -9 15 0 14 -3 13 -25 -2 -15 -11 -22 -25 -19
-35 3 -9 0 -19 -6 -23 -5 -3 -10 -1 -10 6 0 7 -3 9 -6 6 -4 -4 -1 -13 6 -22
10 -12 8 -16 -14 -25 -14 -5 -26 -13 -25 -17 3 -20 -3 -30 -30 -46 -22 -13
-30 -14 -34 -5 -3 8 -6 5 -6 -6 -1 -12 -6 -16 -17 -12 -12 4 -14 1 -9 -14 10
-32 -7 -24 -55 26 -71 73 -148 125 -214 146 -92 28 -119 30 -188 8 -58 -18
-64 -18 -81 -3 -17 16 -17 16 -11 -3 5 -13 4 -16 -3 -9 -6 6 -21 42 -33 81
-20 66 -83 177 -126 225 -10 12 -19 28 -19 37 0 10 -8 17 -19 17 -11 0 -21 6
-24 13 -2 8 3 10 15 6 10 -3 7 2 -7 10 -14 8 -45 15 -70 16 -26 0 -58 8 -77
20 -30 18 -34 18 -70 3 l-38 -16 43 -14 c44 -15 53 -27 26 -37 -15 -6 -15 -8
0 -31 13 -20 14 -29 4 -50 -6 -14 -14 -25 -18 -25 -4 0 -13 -13 -20 -30 -7
-16 -19 -30 -26 -30 -8 0 -14 -6 -14 -13 0 -7 -7 -22 -15 -33 -13 -16 -16 -17
-25 -4 -5 8 -10 31 -10 50 l0 35 -20 -38 c-11 -20 -20 -46 -20 -57 0 -11 -5
-20 -11 -20 -6 0 -9 -6 -6 -12 2 -7 -3 -21 -11 -31 -14 -16 -14 -19 -2 -27 30
-19 -11 -10 -63 14 -85 39 -246 106 -256 106 -5 0 -14 6 -21 14 -9 12 -8 23 6
53 24 52 43 76 130 164 82 83 185 149 304 197 176 70 265 81 495 61z m1543
-324 c61 -33 115 -81 107 -95 -3 -6 -10 -8 -15 -5 -4 3 -6 -5 -2 -17 3 -11 1
-19 -4 -16 -5 4 -9 -21 -9 -56 0 -33 -4 -69 -8 -78 -4 -10 -4 -18 0 -18 5 0 7
-18 5 -39 -2 -21 1 -48 7 -60 10 -17 9 -20 -4 -15 -13 5 -13 2 0 -36 8 -23 15
-52 15 -64 0 -12 5 -27 11 -33 7 -7 14 -40 16 -75 6 -97 8 -108 18 -111 5 -1
14 14 20 33 5 19 13 40 16 45 19 28 29 104 30 220 1 190 24 284 82 337 38 36
102 54 124 36 9 -7 39 -13 67 -13 58 0 153 -41 173 -74 11 -17 10 -19 -2 -15
-9 4 -17 -5 -23 -28 -10 -36 -7 -48 11 -48 7 0 6 4 -3 10 -8 5 -10 10 -4 10 6
0 18 -8 27 -17 15 -17 17 -22 17 -43 0 -5 12 -16 28 -24 19 -11 22 -15 10 -16
-23 0 -24 -20 -2 -20 13 0 14 -3 5 -14 -9 -11 -6 -12 14 -8 20 3 23 7 14 18
-7 9 -8 14 -1 14 5 0 13 -7 16 -16 4 -11 -1 -18 -15 -21 -21 -6 -21 -7 -4 -19
16 -12 17 -14 2 -20 -22 -8 -12 -24 14 -24 11 0 17 5 14 10 -3 6 -3 10 0 10 8
0 30 -62 27 -74 -2 -5 4 -16 12 -25 8 -9 14 -20 13 -26 -1 -5 8 -11 21 -13 14
-2 22 -10 22 -23 0 -10 5 -19 11 -19 7 0 8 11 4 31 -5 22 -4 29 4 25 6 -4 11
-16 11 -26 0 -10 8 -20 18 -23 12 -2 8 -8 -18 -19 -22 -10 -28 -17 -17 -17 38
-2 57 17 50 50 -6 29 -4 31 18 24 13 -4 33 -14 44 -22 19 -13 18 -14 -9 -7
-22 5 -28 4 -24 -7 3 -8 9 -14 14 -15 29 -3 66 -27 74 -50 6 -15 8 -29 5 -32
-2 -3 1 -12 7 -19 10 -12 8 -14 -8 -11 -13 2 -19 -2 -18 -14 1 -10 -2 -15 -8
-12 -5 3 -15 0 -23 -6 -8 -7 -24 -10 -35 -7 -11 3 -18 2 -16 -2 3 -4 -15 -7
-40 -6 -24 0 -44 -4 -43 -10 0 -5 8 -8 17 -7 9 2 14 1 10 -3 -3 -3 -25 -9 -49
-11 -24 -3 -51 -10 -61 -15 -12 -7 -18 -6 -18 1 0 6 -4 8 -10 5 -5 -3 -10 1
-10 9 0 21 -33 53 -49 48 -8 -3 -5 4 5 15 19 19 19 19 31 -1 15 -25 17 -7 3
29 -5 14 -14 24 -19 21 -5 -3 -14 1 -21 9 -15 18 -40 20 -40 3 0 -9 -3 -9 -12
0 -16 16 -28 15 -28 -3 0 -9 -9 -15 -21 -15 -14 0 -19 5 -16 14 4 11 1 13 -10
9 -11 -4 -14 -2 -9 5 4 7 2 12 -3 12 -6 0 -11 -8 -12 -17 0 -16 -1 -16 -8 1
-5 12 -10 16 -14 9 -4 -6 -4 -18 -1 -27 6 -14 -5 -21 -28 -17 -12 2 -10 -37 2
-44 6 -3 10 -15 10 -27 0 -17 -4 -19 -25 -14 -14 4 -25 2 -25 -4 0 -5 6 -10
13 -11 10 0 10 -2 0 -6 -7 -2 -13 -11 -13 -19 0 -8 -6 -13 -12 -11 -7 1 -12
-4 -11 -10 2 -7 -2 -13 -8 -13 -5 0 -7 -4 -4 -10 3 -5 0 -7 -9 -4 -11 4 -15
-3 -18 -28 -2 -20 -8 -32 -15 -31 -7 2 -13 -2 -13 -7 0 -6 -10 -10 -22 -10
-32 0 -52 -15 -43 -31 6 -9 4 -11 -7 -6 -12 4 -14 1 -11 -14 4 -13 0 -19 -11
-19 -9 0 -16 -8 -16 -20 0 -11 -14 -32 -30 -47 -22 -19 -29 -32 -25 -47 6 -20
5 -20 -8 -3 -14 16 -15 16 -21 1 -4 -9 -9 -14 -13 -11 -3 4 -12 -1 -20 -11
-13 -15 -14 -15 -10 -1 3 9 1 21 -5 27 -8 8 -8 15 1 25 6 8 9 31 6 52 -3 28 0
42 13 52 16 12 16 13 0 7 -13 -4 -18 -1 -18 11 0 11 -5 15 -15 11 -8 -3 -15
-1 -15 5 0 7 10 9 25 5 14 -4 25 -2 25 4 0 5 -3 9 -7 9 -5 -1 -11 0 -15 1 -5
1 -14 3 -20 4 -8 0 -13 15 -13 34 1 17 -3 32 -7 32 -5 0 -4 8 1 19 14 24 4 32
-26 20 -16 -6 -22 -6 -18 1 3 6 3 15 -1 22 -5 8 -10 6 -15 -8 -7 -17 -8 -17
-8 -1 -1 10 5 20 12 23 14 5 20 74 6 74 -5 0 -9 -6 -10 -12 0 -10 -2 -10 -6 0
-2 6 -11 12 -19 12 -8 0 -14 6 -13 13 3 18 -19 67 -30 67 -6 0 -8 -8 -5 -17 4
-11 2 -14 -3 -8 -4 6 -17 15 -27 21 -27 14 -32 34 -9 35 10 0 13 3 6 5 -7 3
-21 0 -32 -6 -18 -9 -21 -7 -26 15 -3 14 -7 36 -10 50 -3 14 -10 25 -16 25 -6
0 -8 -9 -4 -22 7 -22 7 -22 -8 -3 -8 10 -12 26 -9 34 3 9 1 12 -6 7 -7 -4 -12
-1 -12 8 0 18 -42 59 -170 167 -47 39 -86 73 -88 74 -2 2 5 2 14 2 11 -1 20 6
22 18 2 15 1 17 -6 6 -15 -22 -25 21 -12 53 5 15 6 25 2 22 -4 -2 -14 -1 -22
4 -12 7 -11 10 5 15 50 16 117 50 132 68 30 33 91 67 145 81 62 16 121 7 186
-29z m-1782 -50 c14 -15 21 -32 18 -43 -5 -14 -4 -14 5 -2 8 12 11 11 16 -5 4
-11 11 -30 16 -43 5 -13 6 -28 3 -34 -4 -6 -2 -8 3 -5 14 9 23 -29 17 -73 -2
-19 -6 -64 -8 -100 -3 -36 -9 -77 -15 -92 -7 -20 -7 -28 2 -32 7 -2 5 -5 -5
-5 -15 -1 -38 -47 -38 -80 -1 -26 -36 -61 -69 -67 -17 -4 -29 -11 -28 -18 1
-6 -4 -10 -10 -8 -7 1 -13 -2 -13 -7 0 -5 -15 -13 -32 -16 -18 -4 -38 -11 -43
-15 -6 -5 -24 -10 -40 -12 -17 -2 -34 -8 -40 -14 -12 -13 -55 -25 -55 -15 0 3
-38 6 -85 5 -47 0 -85 3 -85 8 0 4 -7 8 -16 8 -9 0 -12 -5 -8 -12 4 -7 3 -8
-4 -4 -7 4 -12 13 -12 21 0 12 -22 27 -45 30 -51 8 -107 31 -116 47 -8 14 -18
19 -35 15 -14 -2 -26 -1 -29 3 -2 4 -19 7 -37 8 -18 1 -46 6 -63 10 -24 7 -41
3 -87 -22 -32 -16 -58 -34 -58 -39 0 -4 4 -6 9 -3 5 3 47 -1 93 -10 241 -45
340 -112 383 -261 33 -113 -10 -279 -80 -311 -14 -6 -25 -16 -25 -21 0 -17 36
-31 76 -31 32 0 45 7 84 48 40 41 50 60 63 118 9 38 19 98 22 134 4 36 9 73
12 84 3 12 1 16 -6 12 -6 -4 -11 -3 -11 2 0 40 244 132 351 132 40 0 103 -22
93 -33 -4 -4 5 -18 19 -31 15 -14 27 -32 27 -40 0 -9 10 -34 22 -57 19 -37 23
-40 30 -23 7 15 7 14 3 -6 -2 -14 -5 -33 -5 -42 0 -10 -8 -18 -17 -18 -15 0
-16 -2 -3 -9 8 -6 19 -7 25 -5 5 3 3 0 -5 -8 -20 -18 -23 -37 -9 -54 9 -11 9
-18 1 -26 -15 -15 -16 -31 -1 -23 5 4 3 -10 -5 -30 -12 -28 -13 -35 -3 -26 8
6 17 8 20 5 8 -8 -14 -54 -26 -54 -5 0 -3 8 4 18 13 15 12 16 -4 3 -13 -11
-15 -17 -6 -28 7 -7 9 -17 5 -20 -4 -4 -12 -1 -17 7 -8 11 -9 8 -5 -12 5 -23
3 -26 -11 -21 -12 5 -15 2 -11 -9 5 -11 0 -14 -20 -12 -26 3 -26 2 -7 -12 19
-14 19 -15 -3 -20 -12 -4 -19 -11 -15 -16 3 -6 0 -9 -8 -6 -20 7 -71 -46 -63
-66 5 -12 2 -15 -10 -10 -22 8 -46 -13 -39 -34 3 -10 1 -13 -4 -7 -14 17 -30
15 -49 -7 -14 -15 -16 -22 -6 -25 6 -3 12 -10 12 -16 0 -5 -3 -7 -7 -4 -3 4
-14 0 -24 -9 -16 -15 -17 -14 -12 8 5 19 3 21 -8 11 -7 -7 -22 -13 -32 -13
-11 0 -26 -8 -33 -17 -13 -17 -14 -17 -8 0 5 13 1 17 -17 17 -13 0 -35 3 -48
7 -17 4 -22 3 -17 -5 4 -7 18 -12 32 -12 14 0 22 -4 19 -10 -3 -5 -1 -10 4
-10 6 0 11 -8 11 -17 0 -10 -3 -14 -8 -8 -4 6 -20 17 -35 25 -16 8 -40 25 -53
39 -17 17 -28 21 -32 14 -5 -8 -13 -7 -27 4 -20 15 -20 15 3 8 12 -3 22 -2 22
3 0 5 -27 12 -59 16 -33 4 -65 13 -71 21 -15 18 -47 20 -52 3 -3 -9 -9 -8 -22
4 -12 13 -23 15 -40 8 -19 -7 -26 -5 -31 8 -4 12 -8 13 -13 4 -5 -6 -24 -11
-43 -10 -20 1 -42 -2 -48 -7 -10 -6 -11 -3 -2 13 10 19 9 20 -22 15 -17 -4
-51 -7 -74 -7 -24 0 -43 -5 -43 -11 0 -5 -5 -2 -11 8 -14 24 -51 37 -66 25
-16 -13 -17 4 -3 18 8 8 6 15 -5 24 -13 11 -15 10 -10 -3 14 -34 -14 -24 -33
12 -12 22 -25 48 -31 58 -5 10 -28 56 -51 103 -35 73 -39 89 -31 117 5 18 7
40 5 51 -3 10 1 37 10 61 19 56 12 71 -30 71 -23 0 -41 -8 -59 -27 -14 -15
-25 -31 -25 -34 0 -13 -50 -59 -64 -59 -8 0 -18 -5 -21 -10 -4 -7 -24 -8 -52
-4 -38 5 -44 4 -38 -7 11 -17 -16 2 -54 40 -31 30 -30 70 3 146 57 129 236
377 337 469 98 89 256 156 366 156 82 0 233 -62 297 -121 10 -10 39 -25 64
-33 43 -15 46 -15 73 7 24 18 149 188 149 202 0 8 52 80 70 97 18 17 81 58 89
58 2 0 14 -11 27 -25z m-2029 -231 c91 -31 137 -76 177 -174 10 -25 22 -53 27
-62 5 -10 9 -32 8 -50 -1 -33 -1 -33 -10 7 -9 38 -23 55 -44 55 -6 0 -5 -4 1
-8 17 -11 30 -57 13 -47 -9 6 -11 2 -6 -14 4 -19 2 -21 -16 -16 -14 4 -17 3
-10 -2 10 -7 9 -14 -1 -34 -9 -17 -10 -32 -4 -43 5 -10 5 -16 0 -16 -5 0 -12
-9 -15 -20 -4 -18 -2 -20 16 -14 12 4 25 12 29 18 4 6 8 7 8 2 0 -16 -31 -45
-44 -40 -7 3 -19 -2 -26 -11 -12 -14 -10 -16 13 -10 17 5 27 3 27 -4 0 -6 -7
-11 -15 -11 -8 0 -19 -9 -25 -19 -13 -25 -13 -42 1 -18 15 26 32 21 18 -5 -7
-13 -12 -25 -11 -28 4 -13 -11 -39 -21 -37 -7 1 -11 -4 -9 -12 2 -7 -4 -21
-13 -31 -8 -9 -12 -20 -8 -25 5 -4 -4 -5 -19 -3 -19 4 -28 1 -28 -8 0 -8 -5
-14 -11 -14 -6 0 -9 8 -6 19 3 14 0 17 -14 14 -11 -3 -19 -9 -19 -14 0 -5 -8
-9 -19 -9 -13 0 -20 -10 -25 -31 -3 -19 -10 -28 -17 -23 -8 4 -7 9 2 16 9 6 3
7 -18 3 -18 -4 -33 -3 -33 2 0 5 -9 9 -21 10 -28 2 -44 17 -70 66 -27 52 -27
98 1 219 30 132 20 197 -24 153 -9 -9 -20 -13 -26 -10 -5 3 -10 2 -10 -4 0 -5
5 -11 11 -13 14 -5 -55 -83 -73 -83 -7 0 -16 -16 -21 -35 -23 -92 -11 -194 34
-279 22 -43 112 -131 134 -131 6 0 17 -10 23 -22 9 -20 11 -21 11 -4 1 18 2
18 19 3 10 -10 26 -17 35 -17 26 0 20 -17 -8 -24 -14 -4 -25 -13 -25 -22 0 -8
-4 -12 -10 -9 -5 3 -10 -1 -10 -9 0 -9 7 -16 15 -16 18 0 19 -12 3 -28 -9 -9
-8 -12 5 -12 23 0 22 -20 0 -20 -16 -1 -16 -2 2 -18 23 -20 29 -52 9 -52 -8 0
-11 -6 -8 -15 4 -8 1 -15 -6 -15 -7 0 -10 -6 -7 -13 3 -8 1 -20 -4 -28 -6 -9
-9 -10 -9 -2 0 7 -7 10 -17 6 -11 -4 -14 -3 -9 5 4 7 3 12 -3 12 -5 0 -12 -4
-16 -10 -6 -10 -55 7 -66 24 -4 5 -18 6 -32 2 -14 -3 -40 1 -59 9 -19 7 -45
11 -58 8 -22 -6 -21 -7 11 -25 l34 -19 -50 6 c-114 12 -193 14 -250 6 -35 -5
-64 -5 -69 0 -6 6 -5 9 2 9 7 0 12 7 12 15 0 8 5 15 10 15 6 0 10 -4 10 -10 0
-5 4 -10 9 -10 5 0 7 9 4 20 -3 11 0 20 6 20 6 0 11 -4 11 -10 0 -5 5 -10 10
-10 6 0 10 4 10 10 0 15 -50 24 -63 11 -6 -6 -23 -11 -38 -11 -27 0 -100 -36
-107 -52 -2 -4 -10 -8 -17 -8 -7 0 -19 -13 -27 -30 -7 -16 -20 -30 -28 -31
-10 0 -8 -3 5 -9 18 -7 17 -9 -12 -20 -37 -14 -44 -30 -10 -24 20 4 21 4 2 -5
-11 -5 -16 -10 -11 -10 12 -1 -28 -36 -72 -63 -31 -19 -33 -23 -19 -33 19 -14
12 -25 -16 -25 -13 0 -17 5 -13 16 3 8 2 12 -4 9 -5 -3 -23 7 -41 22 -17 15
-37 28 -44 28 -28 0 -121 83 -158 140 -24 37 -30 55 -42 125 -16 91 0 316 32
430 43 156 74 223 140 301 62 72 130 123 188 139 40 11 54 11 108 -5 84 -25
234 -103 213 -111 -9 -3 -14 -10 -11 -14 6 -9 -40 -60 -55 -60 -5 0 -10 6 -10
13 -1 15 -39 -63 -40 -80 0 -7 -7 -13 -15 -13 -9 0 -29 -21 -45 -47 -16 -27
-33 -53 -38 -58 -5 -6 -7 -16 -5 -22 4 -12 -26 -26 -69 -32 -7 -1 -3 -6 9 -11
20 -8 22 -12 11 -35 -6 -14 -17 -25 -24 -25 -6 0 -15 -7 -18 -16 -4 -11 -14
-14 -29 -11 -21 6 -21 6 -3 -8 11 -8 26 -15 33 -15 17 0 13 -31 -5 -45 -7 -6
-13 -28 -12 -50 2 -117 4 -144 12 -139 9 6 61 115 73 155 19 58 198 326 295
439 25 30 71 90 100 133 87 127 180 200 298 232 68 19 202 18 259 -1z m2529
-134 c27 -12 73 -47 102 -77 51 -52 62 -73 42 -73 -5 0 -10 5 -10 12 0 6 -2 9
-5 6 -10 -10 8 -39 20 -34 8 3 16 -2 19 -10 4 -10 2 -12 -6 -8 -7 5 -9 0 -6
-14 4 -12 2 -20 -3 -16 -5 3 -9 -4 -9 -15 0 -12 5 -21 11 -21 5 0 8 -4 4 -9
-3 -5 0 -13 6 -16 6 -4 8 -18 4 -34 -12 -45 -15 -111 -5 -111 9 0 26 46 33 90
l4 25 2 -25 c2 -38 -27 -139 -47 -164 -11 -14 -26 -20 -44 -18 -16 2 -28 7
-28 11 0 4 -9 7 -20 8 -11 1 -20 -2 -20 -8 0 -5 9 -9 20 -9 14 0 18 -5 13 -16
-5 -13 -7 -13 -14 -2 -6 9 -9 6 -9 -10 0 -13 -4 -21 -9 -18 -16 10 -40 -5 -36
-23 3 -16 0 -17 -20 -7 -12 5 -20 16 -18 23 4 9 0 11 -13 6 -12 -4 -15 -3 -10
5 4 7 0 15 -9 18 -14 6 -14 9 -3 16 9 7 8 8 -5 4 -13 -4 -28 4 -49 24 -16 17
-35 30 -43 30 -7 0 -20 10 -29 23 -15 19 -16 19 -11 3 6 -19 5 -19 -15 -1 -11
10 -20 24 -20 31 0 7 -13 23 -30 35 -16 12 -27 26 -24 31 3 4 -1 8 -8 8 -15 0
-78 77 -78 94 1 41 27 110 61 163 33 50 49 65 82 77 23 8 49 17 57 20 30 11
127 -2 176 -24z m792 -108 c32 -15 57 -34 62 -48 5 -12 19 -29 32 -38 12 -9
17 -16 10 -16 -6 0 -12 -4 -12 -10 0 -5 6 -7 14 -4 11 4 13 0 9 -14 -2 -11 1
-23 8 -27 8 -5 10 -4 5 3 -4 7 -2 12 4 12 8 0 9 -7 5 -17 -12 -32 -10 -37 13
-41 12 -2 22 1 22 7 0 6 5 11 10 11 7 0 7 -6 0 -19 -7 -14 -7 -22 0 -26 6 -4
9 -1 8 7 -3 15 59 22 67 7 4 -5 -1 -6 -9 -3 -9 3 -16 1 -16 -5 0 -6 8 -11 19
-11 25 0 41 -22 36 -48 -2 -12 1 -22 7 -22 5 0 8 7 4 15 -3 8 -1 15 4 15 12 0
33 -68 26 -85 -7 -18 5 -20 22 -3 9 9 12 9 13 0 2 -21 4 -27 12 -39 5 -8 4
-13 -2 -13 -15 0 -14 -33 2 -49 10 -11 9 -13 -3 -9 -16 5 -39 -18 -40 -39 0
-7 5 -13 10 -13 6 0 10 9 10 20 0 12 7 20 18 20 10 0 13 -3 6 -8 -5 -4 -16
-38 -23 -76 -11 -62 -10 -70 6 -88 9 -11 13 -19 8 -18 -6 2 -19 2 -30 1 -20
-2 -20 -2 -1 -16 11 -8 14 -15 8 -15 -7 0 -12 -7 -12 -15 0 -8 -6 -15 -12 -16
-10 0 -10 -2 0 -6 6 -2 12 -9 12 -14 0 -6 -4 -7 -10 -4 -6 4 -10 -5 -10 -19 0
-16 -6 -26 -14 -26 -16 0 -30 -59 -20 -84 4 -11 -1 -19 -17 -25 -21 -8 -22
-10 -6 -16 23 -10 22 -28 -2 -20 -13 4 -23 0 -30 -12 -9 -15 -12 -15 -20 -4
-6 9 -11 10 -15 2 -4 -6 -12 -11 -17 -11 -6 0 -7 4 -4 10 3 6 -1 7 -9 4 -11
-4 -16 0 -17 12 0 11 -3 14 -6 6 -3 -8 -11 -4 -25 13 -16 21 -18 28 -8 41 11
12 10 13 -4 8 -11 -4 -16 -1 -17 12 0 18 -1 18 -10 -1 -8 -17 -9 -16 -4 7 3
14 8 33 11 42 7 19 -16 22 -33 5 -16 -16 -33 -2 -33 27 0 13 -4 24 -10 24 -5
0 -10 7 -10 16 0 25 -78 193 -107 231 l-26 34 33 27 c61 50 100 94 97 112 -2
9 -11 26 -22 36 -18 18 -18 18 -13 -9 7 -37 -26 -58 -48 -30 -7 10 -14 13 -14
7 0 -6 -10 -10 -22 -9 -14 1 -28 -6 -36 -19 -13 -21 -13 -21 -9 2 3 12 1 22
-4 22 -5 0 -9 -4 -9 -8 0 -4 -9 -8 -21 -9 -17 -2 -18 1 -9 13 10 11 9 14 -2
14 -8 0 -21 -11 -28 -25 -7 -14 -17 -25 -22 -25 -5 0 -7 -4 -4 -9 3 -4 -5 -6
-18 -4 -16 3 -29 -3 -44 -21 -11 -14 -25 -26 -31 -26 -27 0 -4 -18 67 -53 51
-25 85 -48 100 -70 25 -38 31 -73 7 -41 -15 18 -16 18 -14 -6 2 -43 -1 -46
-15 -15 l-14 30 3 -30 c2 -16 4 -30 5 -30 1 0 3 -10 4 -22 2 -19 0 -21 -12
-10 -13 10 -14 9 -9 -3 4 -8 10 -23 13 -32 4 -10 13 -18 21 -18 8 0 11 -5 8
-10 -4 -6 -11 -8 -16 -5 -5 4 -9 4 -9 1 0 -2 -3 -11 -6 -20 -4 -11 -1 -16 11
-16 9 0 13 -5 10 -11 -4 -6 -13 -8 -20 -5 -8 3 -15 0 -17 -6 -2 -6 -21 -12
-43 -13 -28 -1 -40 -7 -46 -21 -7 -19 -8 -19 -9 1 -1 19 -2 18 -10 -2 -5 -13
-17 -23 -27 -23 -15 0 -15 2 3 15 19 15 19 15 0 30 -17 13 -21 13 -34 -6 -10
-15 -21 -19 -37 -15 -16 4 -25 1 -29 -11 -4 -9 -4 -18 -1 -21 3 -3 5 0 5 6 0
7 10 12 23 12 21 -1 20 -2 -6 -16 -15 -8 -32 -12 -37 -9 -5 3 -12 0 -16 -6 -5
-8 -3 -9 7 -4 8 4 5 -1 -6 -12 -11 -10 -28 -22 -38 -26 -10 -4 -15 -11 -12
-17 3 -5 -1 -10 -10 -10 -8 0 -18 -7 -21 -15 -4 -8 -12 -15 -20 -15 -17 0 -18
-12 -3 -27 9 -9 6 -10 -11 -6 -18 5 -21 3 -15 -7 6 -10 4 -12 -11 -6 -15 6
-17 5 -6 -5 17 -18 15 -29 -4 -29 -11 0 -15 -6 -11 -20 3 -11 1 -22 -4 -25 -4
-3 -6 -12 -2 -20 5 -13 -7 -19 -23 -12 -8 3 -33 -46 -27 -56 2 -4 9 -5 14 -2
5 4 9 1 9 -5 0 -6 -7 -10 -16 -8 -26 5 -27 -17 -2 -31 18 -9 19 -11 3 -6 -19
5 -19 4 -2 -9 15 -11 16 -18 8 -34 -14 -26 -3 -55 17 -47 12 4 13 -1 8 -32 -4
-21 -8 -44 -8 -50 -1 -7 -6 -13 -12 -13 -6 0 -4 -5 4 -10 11 -7 12 -12 3 -21
-13 -13 -2 -29 27 -43 9 -3 5 -4 -7 -2 -18 3 -23 -1 -23 -15 0 -11 -11 -31
-25 -45 -14 -14 -22 -30 -19 -36 5 -7 2 -8 -6 -3 -10 6 -12 4 -7 -8 3 -9 3
-16 -1 -16 -26 4 -41 -3 -35 -17 4 -12 0 -14 -19 -9 -32 8 -78 -10 -78 -31 0
-16 2 -15 20 1 11 10 20 14 20 8 0 -15 -27 -48 -42 -49 -7 0 -22 -2 -33 -2
-14 -2 -16 -5 -7 -14 8 -8 9 -15 1 -25 -14 -16 -33 -18 -23 -2 8 13 -38 8 -48
-6 -4 -5 -15 -2 -27 9 -11 10 -26 16 -33 13 -9 -4 -8 -6 3 -6 9 -1 20 -8 23
-17 5 -13 1 -15 -24 -12 -16 3 -30 1 -30 -3 0 -4 -11 -6 -25 -5 -17 1 -23 6
-20 15 3 9 0 11 -10 7 -8 -3 -14 -2 -14 2 3 21 -3 23 -21 7 -21 -19 -28 -7 -8
13 9 9 7 12 -11 12 -31 0 -61 18 -61 35 0 8 -2 15 -4 15 -2 0 -13 3 -23 6 -15
5 -16 4 -3 -5 13 -10 13 -12 0 -21 -19 -12 -26 13 -36 114 -3 39 -12 96 -19
126 -8 30 -16 66 -19 80 -2 14 -14 52 -25 84 -12 33 -21 65 -21 71 0 14 44 32
175 71 50 14 96 31 104 38 12 9 13 7 9 -12 -5 -19 -4 -21 8 -11 8 7 13 18 10
25 -3 8 -2 13 2 13 19 -3 32 2 29 12 -1 6 4 14 12 17 10 3 12 0 7 -14 -5 -13
-4 -16 3 -9 6 6 12 19 14 30 7 45 169 306 224 362 39 39 113 93 127 93 22 0
115 74 133 107 12 21 40 93 63 161 22 68 50 138 60 155 11 18 24 41 29 53 11
24 74 81 107 96 13 6 24 15 24 20 0 5 4 6 10 3 5 -3 20 3 32 14 12 12 28 21
35 21 7 0 13 4 13 9 0 13 79 30 110 24 14 -3 49 -17 78 -31z m-4738 -262 c0
-30 -26 -100 -37 -100 -8 0 -13 -11 -12 -27 0 -27 1 -27 9 -5 5 12 12 22 15
22 3 0 3 -10 1 -22 -3 -13 -5 -27 -5 -31 -1 -5 -5 -6 -9 -3 -4 2 -13 -4 -20
-15 -7 -10 -8 -19 -3 -19 5 0 12 6 15 13 2 6 2 -22 -1 -63 -3 -41 -10 -78 -16
-81 -5 -4 -5 -9 0 -12 5 -3 7 -27 3 -54 -3 -26 -2 -77 2 -113 4 -36 9 -79 11
-95 2 -17 7 -36 11 -43 4 -7 3 -12 -2 -12 -12 0 -24 29 -16 41 3 5 1 9 -4 9
-5 0 -8 14 -6 30 3 21 -1 30 -11 30 -10 0 -13 -9 -10 -35 4 -25 1 -37 -9 -41
-22 -8 -29 -34 -8 -27 13 4 12 2 -3 -10 -15 -11 -22 -12 -27 -4 -5 8 -8 6 -8
-5 0 -9 -10 -20 -22 -24 -12 -3 -39 -23 -61 -44 -24 -24 -46 -36 -56 -33 -11
3 -12 2 -4 -4 27 -19 -112 -191 -144 -178 -8 3 -18 5 -23 5 -15 0 -40 180 -40
294 0 84 7 147 24 230 48 224 146 350 331 423 37 14 135 17 135 3z m6120 -258
c36 -11 99 -34 140 -52 41 -18 102 -44 135 -57 33 -14 69 -32 80 -39 11 -7
112 -51 225 -99 317 -134 447 -202 509 -269 l25 -26 -18 -58 c-10 -31 -36 -96
-56 -143 -21 -47 -50 -123 -64 -168 -30 -95 -47 -123 -76 -128 -17 -2 -20 1
-16 15 5 13 1 18 -17 18 -28 0 -53 -23 -62 -58 -9 -35 -28 -50 -69 -55 -31 -3
-34 -1 -28 19 3 13 14 37 24 53 10 17 18 39 17 50 0 17 -2 16 -10 -5 -6 -14
-22 -37 -36 -52 -14 -14 -25 -29 -24 -32 3 -19 -17 -4 -34 25 -16 27 -19 50
-18 118 2 86 -4 109 -39 148 -11 11 -24 38 -28 60 -5 21 -26 70 -47 108 -34
62 -42 70 -68 70 -33 0 -55 -30 -55 -77 0 -25 -2 -26 -32 -17 -44 12 -65 40
-74 95 -3 24 -9 46 -13 49 -4 2 -4 -19 0 -48 3 -29 5 -53 4 -55 -2 -2 -18 1
-36 6 -30 7 -35 14 -51 68 -24 79 -28 88 -33 82 -3 -2 1 -27 8 -54 19 -73 15
-79 -46 -78 -53 1 -156 -10 -192 -21 -19 -6 -20 -3 -17 36 3 23 15 57 28 77
34 50 31 81 -11 115 -21 17 -35 23 -35 15 0 -7 -18 -21 -39 -31 -45 -21 -52
-39 -38 -99 5 -23 11 -88 12 -143 1 -55 6 -141 10 -192 4 -50 5 -99 1 -109 -6
-15 -9 -15 -33 7 -14 13 -48 58 -75 99 -27 41 -52 77 -54 80 -13 12 13 -41 44
-90 44 -71 91 -120 115 -120 16 0 18 -5 13 -27 -5 -21 -4 -24 4 -13 8 13 10
12 10 -5 0 -12 3 -15 9 -10 5 6 13 93 18 195 l8 185 59 9 c70 11 212 -4 329
-35 58 -16 94 -34 145 -71 37 -27 72 -53 78 -56 6 -4 21 -27 34 -51 21 -43 21
-44 4 -90 -21 -56 -122 -251 -139 -269 -13 -14 -68 -25 -60 -12 3 4 -9 13 -25
20 -17 7 -30 16 -30 21 0 5 -7 9 -16 9 -14 0 -14 -3 -4 -15 9 -11 10 -15 0
-15 -6 0 3 -12 20 -26 17 -15 29 -28 27 -31 -3 -2 -74 34 -158 80 -85 46 -170
89 -189 97 -19 7 -53 21 -76 31 -22 10 -50 15 -62 12 -24 -6 -38 5 -132 97
-80 78 -101 92 -59 40 20 -25 41 -55 47 -66 6 -12 32 -34 57 -48 51 -30 57
-41 19 -33 -15 3 -39 1 -54 -3 -31 -9 -77 8 -128 46 -18 14 -36 24 -39 21 -4
-5 47 -45 93 -73 18 -10 16 -14 -24 -53 -49 -47 -43 -51 22 -15 26 14 53 23
61 20 8 -3 30 1 49 9 20 8 49 15 66 15 49 0 247 -69 314 -109 33 -20 73 -42
89 -49 15 -6 27 -16 27 -22 0 -6 -10 -4 -23 5 -22 14 -23 14 -23 -18 0 -18 -4
-41 -8 -52 -5 -11 -10 -29 -11 -39 -1 -11 -11 -27 -23 -36 -12 -10 -19 -20
-16 -22 3 -3 -4 -8 -16 -11 -22 -6 -28 8 -7 16 7 3 5 6 -5 6 -22 1 -24 21 -2
21 8 0 13 4 10 9 -3 5 -15 7 -27 4 -15 -4 -19 -11 -15 -28 7 -29 -14 -47 -50
-43 -39 4 -41 24 -5 55 34 30 39 54 15 74 -13 10 -24 9 -67 -5 -29 -10 -61
-22 -72 -27 -32 -14 -119 -39 -123 -34 -2 2 8 30 22 62 l26 58 -60 -65 c-33
-36 -60 -70 -60 -77 0 -12 -38 -43 -53 -43 -5 0 3 14 17 31 26 31 35 69 16 69
-6 0 -14 -10 -19 -23 -11 -28 -76 -87 -96 -87 -7 0 -15 8 -17 18 -3 12 -9 7
-22 -19 -17 -36 -71 -87 -111 -104 -18 -8 -16 -9 11 -13 22 -2 54 9 108 37 42
23 86 41 98 41 35 0 128 49 122 64 -7 18 45 28 85 16 31 -9 101 -48 101 -56 0
-19 -36 -131 -45 -137 -5 -4 -29 -12 -53 -18 -48 -13 -47 -19 6 -34 66 -19 77
-8 102 110 8 33 15 61 16 63 1 2 17 -4 35 -13 40 -21 85 -15 135 19 36 24 84
94 84 122 0 8 12 20 28 27 15 6 30 16 34 21 3 5 45 12 92 14 l86 5 92 -48 c51
-26 118 -66 149 -87 54 -38 56 -42 49 -72 -11 -44 -41 -125 -89 -238 -23 -54
-41 -104 -41 -110 0 -7 -6 -24 -13 -38 -7 -14 -21 -47 -31 -75 -10 -27 -29
-77 -41 -110 -13 -33 -33 -93 -44 -133 l-22 -73 -61 65 c-129 141 -258 224
-460 296 -131 46 -234 70 -348 80 -106 9 -213 23 -305 40 -27 5 -126 16 -220
25 -164 14 -235 23 -235 28 0 7 122 282 129 291 4 6 33 65 64 131 30 66 89
190 130 275 41 85 89 189 107 230 67 153 189 409 241 501 29 51 60 108 69 124
26 49 54 89 67 98 7 4 13 17 13 27 0 29 57 88 88 92 51 6 187 -11 252 -30z
m-3960 -92 c72 -37 184 -275 148 -317 -5 -7 -8 -19 -4 -28 3 -8 0 -14 -7 -12
-7 1 -11 -3 -10 -9 1 -7 -6 -10 -17 -7 -22 6 -26 18 -10 26 6 3 5 4 -2 3 -25
-5 -20 -35 6 -42 27 -6 47 -45 27 -52 -15 -5 -14 -52 2 -52 7 0 8 -3 2 -8 -16
-11 -17 -34 -3 -44 10 -7 9 -11 -4 -22 -19 -14 -25 -32 -8 -21 6 4 6 -4 0 -22
-17 -47 -33 -73 -41 -68 -4 3 -10 -4 -14 -15 -3 -11 -11 -20 -16 -20 -6 0 -8
-4 -5 -9 3 -5 -1 -11 -9 -15 -8 -3 -15 -10 -15 -16 0 -10 -46 -74 -77 -108 -7
-7 -13 -20 -13 -27 0 -8 -9 -19 -20 -25 -11 -6 -19 -15 -17 -20 2 -8 -150
-200 -160 -200 -2 0 -1 4 2 10 3 6 -1 7 -10 4 -11 -5 -14 -14 -10 -33 8 -39 9
-166 1 -180 -4 -6 -1 -14 8 -17 8 -3 12 -12 9 -20 -3 -8 1 -14 11 -14 9 0 15
-3 15 -7 -3 -20 2 -27 10 -14 6 10 11 1 16 -28 5 -29 12 -41 23 -41 15 0 15
-2 2 -10 -12 -8 -12 -12 -2 -18 7 -5 10 -16 6 -25 -4 -10 -1 -17 6 -17 8 0 9
-4 3 -12 -5 -7 -11 -31 -12 -52 -2 -50 -8 -58 -33 -50 -15 4 -18 3 -13 -6 4
-6 18 -10 31 -7 20 3 22 1 13 -14 -5 -11 -14 -19 -20 -19 -5 0 -9 -8 -7 -17 2
-12 -4 -19 -19 -21 -12 -2 -25 -12 -28 -23 -5 -16 -10 -18 -20 -9 -8 7 -20 8
-27 3 -25 -15 -81 -32 -69 -20 19 19 12 26 -21 23 -18 -2 -43 4 -56 12 -12 8
-26 11 -30 7 -4 -4 -1 -10 6 -12 6 -3 12 -12 12 -21 0 -11 -3 -13 -8 -6 -4 6
-15 14 -26 17 -15 6 -16 10 -6 22 10 12 9 15 -4 15 -9 0 -16 -4 -16 -10 0 -5
-5 -10 -11 -10 -5 0 -8 4 -4 9 3 5 -3 12 -14 16 -11 3 -25 13 -32 21 -10 13
-10 17 2 25 10 8 8 9 -8 4 -24 -7 -32 9 -10 19 6 3 0 4 -15 1 -23 -4 -28 -2
-28 13 0 16 -15 28 -64 51 -5 2 -6 -7 -3 -19 4 -14 2 -19 -3 -14 -5 5 -11 18
-13 29 -2 11 -8 30 -15 42 -19 34 -34 170 -28 249 11 128 89 341 161 434 89
116 164 156 349 189 67 12 87 24 67 44 -8 8 -48 12 -129 11 -96 -1 -125 -5
-162 -22 -24 -11 -47 -19 -51 -16 -26 16 -26 207 0 295 29 101 95 229 143 278
99 102 290 146 398 91z m-1284 -365 c4 -8 10 -12 15 -9 10 6 158 -72 160 -84
1 -4 3 -20 5 -36 2 -17 16 -41 34 -57 16 -15 30 -33 30 -38 0 -6 5 -11 11 -11
5 0 7 -5 3 -12 -4 -6 1 -17 11 -25 11 -7 13 -13 6 -13 -8 0 -10 -7 -5 -22 4
-13 6 -36 5 -53 -2 -34 -9 -80 -11 -80 -3 0 -12 -61 -12 -82 0 -13 -5 -20 -10
-17 -6 4 -5 -4 2 -16 10 -18 9 -24 -1 -31 -8 -5 -18 -9 -23 -9 -4 0 -6 -7 -2
-15 3 -8 1 -15 -4 -15 -5 0 -13 -19 -17 -42 -6 -32 -14 -44 -28 -45 -20 -3
-20 -3 0 6 15 7 16 10 4 10 -25 1 -30 -11 -12 -31 16 -17 15 -18 -18 -14 -32
3 -34 5 -31 37 l2 34 -20 -35 c-12 -19 -19 -27 -16 -18 5 18 -20 33 -29 18 -4
-6 -1 -10 4 -10 6 0 11 -4 11 -8 0 -5 -19 -7 -42 -6 -24 0 -43 2 -43 3 0 2
-10 4 -22 5 -14 2 -23 -3 -23 -11 0 -7 -8 -13 -17 -14 -13 -1 -10 -4 7 -10 16
-5 -5 -7 -58 -3 -79 5 -87 4 -142 -25 -33 -17 -64 -31 -71 -31 -6 0 -24 -9
-40 -21 -26 -18 -33 -18 -31 3 2 12 -47 -7 -72 -29 -15 -13 -29 -22 -34 -22
-20 3 -30 -3 -38 -23 -13 -38 -16 127 -4 220 20 150 110 461 154 530 34 55
100 110 170 143 53 25 73 29 149 29 69 0 89 -3 93 -15z m4443 -34 c22 -12 22
-13 4 -26 -12 -10 -13 -14 -5 -15 10 0 8 -5 -4 -17 -10 -10 -21 -18 -25 -18
-4 0 -11 -4 -16 -9 -4 -5 -3 -6 3 -3 7 4 12 -3 12 -19 0 -14 -7 -28 -14 -31
-18 -7 -18 -37 0 -52 17 -14 28 -51 15 -51 -5 0 -9 7 -9 15 0 8 -4 15 -9 15
-14 0 -23 -33 -10 -40 10 -7 -25 -24 -43 -21 -5 1 -8 -8 -8 -18 0 -10 -7 -21
-15 -25 -8 -3 -15 -1 -15 4 0 6 5 10 10 10 6 0 10 5 10 11 0 6 -8 8 -17 5 -15
-5 -15 -4 1 9 17 13 18 15 3 15 -9 0 -17 -4 -17 -10 0 -5 -8 -11 -17 -11 -17
-1 -17 -2 0 -6 22 -6 22 -23 0 -23 -13 0 -14 -3 -6 -11 6 -6 9 -18 6 -27 -5
-11 -3 -13 7 -7 9 5 11 4 6 -3 -4 -7 -2 -12 3 -12 6 0 11 -8 11 -17 0 -15 -2
-16 -10 -3 -5 8 -10 11 -10 5 0 -5 -5 -3 -10 5 -6 9 -10 11 -10 3 0 -7 -6 -10
-14 -7 -7 3 -20 -1 -28 -9 -12 -13 -16 -11 -28 16 -7 17 -15 26 -18 19 -2 -7
2 -19 8 -27 8 -10 9 -15 2 -15 -12 0 -27 39 -18 47 3 4 1 12 -5 20 -9 9 -8 13
0 13 6 0 11 7 11 15 0 11 7 14 28 10 l27 -6 -25 15 c-14 8 -28 12 -32 10 -5
-3 -8 -1 -8 5 0 5 6 12 13 14 9 4 9 6 0 6 -16 1 -36 -36 -27 -51 4 -7 3 -8 -4
-4 -21 13 -13 47 26 102 20 30 46 70 57 88 26 43 63 86 98 113 30 23 76 25
116 4z m-5280 -28 c20 -15 48 -40 63 -55 15 -16 32 -28 39 -28 6 0 9 -7 5 -15
-3 -9 0 -15 9 -15 8 0 15 -4 15 -8 0 -4 16 -25 35 -47 27 -29 32 -40 23 -47
-9 -5 -5 -8 11 -8 20 0 22 -3 16 -27 -8 -33 -13 -55 -14 -66 -1 -5 -5 -6 -10
-3 -4 3 -6 -6 -3 -21 3 -15 1 -24 -5 -20 -5 3 -10 0 -10 -8 0 -8 4 -12 9 -9 4
3 8 -2 8 -10 0 -9 -5 -15 -11 -14 -6 2 -14 -3 -17 -11 -3 -9 0 -11 8 -6 9 6 9
3 0 -16 -16 -29 -56 -69 -69 -69 -6 0 -8 -7 -4 -15 3 -9 -1 -23 -10 -33 -8 -9
-18 -28 -22 -40 -6 -22 -5 -23 14 -13 14 8 21 8 21 1 0 -5 -4 -10 -10 -10 -15
0 -12 -30 3 -31 10 0 10 -2 0 -6 -18 -7 -16 -58 2 -73 26 -21 17 -31 -11 -13
-27 17 -27 17 -16 -4 7 -12 9 -29 5 -39 -4 -11 1 -22 12 -30 17 -13 17 -14 1
-14 -9 0 -15 -4 -12 -9 4 -5 1 -11 -5 -13 -6 -2 -12 -15 -12 -29 -2 -19 -6
-25 -20 -21 -13 3 -16 0 -11 -13 6 -14 3 -16 -13 -11 -11 3 -37 -1 -58 -10
-23 -9 -51 -13 -68 -10 -16 3 -53 3 -82 0 -44 -5 -52 -10 -47 -23 5 -14 4 -14
-11 1 -16 16 -52 15 -62 -2 -7 -11 -70 12 -94 34 -11 10 -18 23 -15 27 3 5 -2
9 -11 9 -42 0 -82 144 -70 256 8 74 49 208 102 334 108 254 288 390 402 303z
m7966 3 c50 -8 146 -25 215 -37 263 -43 370 -70 370 -91 0 -5 -36 -91 -81
-191 -44 -100 -102 -236 -129 -302 -26 -66 -94 -221 -150 -345 -159 -349 -218
-498 -312 -775 -22 -66 -45 -124 -50 -130 -6 -6 -20 -3 -41 9 -135 81 -234
119 -422 162 -160 36 -427 46 -560 19 -89 -17 -109 -25 -160 -61 -54 -37 -59
-39 -51 -18 4 10 24 73 43 139 19 66 48 145 64 175 15 30 37 83 48 118 11 34
31 88 45 120 14 31 41 99 59 151 l34 94 29 -51 c26 -45 32 -50 46 -40 9 7 18
31 21 53 2 22 16 58 30 79 16 23 27 51 26 70 l-1 31 -10 -37 c-10 -38 -28 -52
-28 -23 0 13 -4 14 -20 5 -28 -15 -25 0 6 33 14 16 23 35 20 43 -7 17 23 32
33 16 4 -7 12 -8 21 -2 11 7 11 11 1 24 -21 26 -51 30 -66 9 -9 -10 -14 -13
-15 -5 0 6 8 20 18 30 13 13 18 29 14 50 -2 17 1 48 8 69 17 55 120 304 135
329 8 12 17 38 21 59 11 58 60 150 91 171 50 34 107 56 163 64 88 14 433 5
535 -14z m-3435 -19 c0 -8 3 -8 11 0 7 7 21 8 39 3 16 -5 32 -5 36 -2 4 4 4 1
0 -6 -4 -7 -12 -9 -18 -6 -8 5 -9 1 -5 -10 4 -9 3 -14 -2 -11 -5 3 -12 1 -16
-5 -3 -6 4 -10 17 -10 18 0 20 -2 8 -10 -12 -7 -8 -10 15 -10 28 -1 29 -2 8
-10 -13 -5 -23 -12 -23 -14 0 -3 6 -3 14 0 8 3 17 1 21 -5 3 -6 -2 -11 -12
-11 -14 0 -15 -2 -4 -9 8 -5 10 -14 6 -22 -5 -8 1 -6 12 4 19 17 20 16 18 -15
-1 -18 -5 -40 -9 -50 -8 -18 25 -35 45 -22 8 4 9 3 5 -4 -4 -7 -1 -12 7 -12 8
0 17 -9 20 -21 4 -15 2 -19 -9 -15 -12 5 -12 2 -3 -17 7 -12 16 -25 21 -28 5
-3 -8 -9 -31 -13 -46 -7 -65 -26 -27 -26 17 0 26 -6 26 -15 0 -11 -7 -14 -25
-9 -16 4 -25 2 -25 -6 0 -7 -8 -10 -20 -7 -17 4 -20 2 -15 -16 5 -17 4 -19 -4
-7 -8 12 -13 12 -23 2 -16 -16 -29 -15 -22 2 11 28 -13 24 -30 -5 -15 -25 -20
-27 -37 -18 -11 5 -23 17 -26 25 -3 8 -10 14 -16 14 -5 0 -3 -8 6 -18 23 -25
23 -49 0 -27 -16 16 -17 16 -25 -4 -10 -28 -28 -27 -20 1 3 14 2 19 -6 14 -7
-4 -12 -2 -12 4 0 6 -5 8 -12 4 -9 -6 -9 -9 0 -12 21 -7 13 -19 -13 -19 -28 0
-31 6 -12 27 6 7 0 5 -14 -6 -15 -10 -25 -22 -22 -27 2 -4 8 -5 12 -3 4 3 13
1 21 -5 12 -7 10 -9 -7 -9 -12 0 -29 -3 -39 -7 -11 -4 -15 -2 -11 4 8 13 -46
4 -54 -10 -19 -29 -42 45 -54 174 -7 73 6 131 45 210 28 57 66 87 140 112 28
10 150 5 150 -6z m-1620 -26 c85 -27 154 -72 171 -114 8 -17 13 -37 11 -44 -1
-6 2 -14 8 -18 13 -8 13 -42 -1 -47 -7 -2 -4 -16 8 -38 19 -37 32 -50 48 -50
6 0 6 3 -1 8 -14 9 -26 42 -15 42 4 0 14 -11 21 -25 11 -20 11 -27 -1 -42 -8
-9 -9 -14 -3 -10 7 4 14 0 18 -8 3 -8 1 -17 -5 -21 -6 -4 -5 -12 3 -22 11 -13
10 -15 -4 -9 -10 3 -20 2 -23 -3 -4 -6 2 -10 12 -10 17 -1 17 -1 0 -11 -15 -9
-17 -18 -11 -55 5 -34 3 -44 -7 -44 -9 0 -10 -3 -3 -8 5 -4 10 -16 11 -27 0
-11 4 -39 8 -63 6 -34 5 -41 -6 -37 -9 3 -21 -10 -34 -37 -21 -43 -70 -99 -80
-90 -3 3 -5 -3 -5 -13 0 -15 -2 -16 -17 -4 -10 8 -14 9 -10 2 4 -7 0 -16 -10
-22 -10 -6 -12 -11 -5 -11 6 0 12 -5 12 -11 0 -5 -4 -7 -10 -4 -6 4 -8 -7 -4
-27 4 -25 3 -29 -5 -18 -9 13 -11 13 -11 -2 0 -10 -5 -18 -11 -18 -5 0 -7 -5
-3 -12 5 -7 3 -8 -6 -3 -7 4 -16 2 -20 -5 -14 -23 -54 -3 -68 32 -8 21 -9 34
-2 36 13 5 13 32 1 32 -5 0 -12 -6 -14 -12 -4 -9 -6 -8 -6 2 -1 9 4 21 10 27
8 8 7 11 -6 10 -9 -1 -22 7 -29 18 -6 11 -15 23 -21 27 -5 3 -21 15 -33 27
-13 11 -29 22 -35 25 -9 5 -9 8 1 12 19 9 14 24 -5 17 -9 -4 5 22 33 58 54 70
88 128 80 136 -3 3 -26 -13 -52 -36 -44 -38 -84 -56 -68 -29 4 7 3 8 -5 4 -6
-4 -9 -11 -6 -15 2 -5 -14 -23 -36 -41 -30 -24 -44 -29 -52 -21 -8 8 -5 11 12
11 18 0 22 4 18 20 -4 17 -1 19 18 14 18 -4 23 -2 21 10 -3 19 -16 34 -16 18
0 -7 -9 -12 -21 -12 -11 0 -17 5 -14 10 3 6 2 10 -4 10 -12 0 -41 -28 -41 -40
0 -4 -10 -6 -22 -4 l-23 5 23 -10 c12 -6 22 -15 22 -20 0 -16 -34 -17 -47 -1
-11 13 -12 12 -8 -6 3 -17 -2 -21 -21 -21 -13 0 -24 3 -24 8 0 5 -5 9 -11 9
-8 0 -8 -5 1 -15 10 -13 9 -15 -9 -16 -11 -1 -27 -2 -33 -3 -20 -2 -36 -20
-31 -33 3 -7 -2 -13 -10 -13 -13 0 -31 -33 -28 -52 1 -5 -7 -8 -16 -8 -25 0
-2 -21 26 -23 12 -1 20 -6 18 -12 -3 -5 -14 -9 -27 -7 -19 2 -21 0 -10 -13 10
-12 8 -16 -14 -25 -14 -5 -26 -17 -26 -25 0 -24 31 -13 180 65 79 42 111 39
163 -11 32 -32 35 -38 14 -25 -16 10 -34 15 -40 12 -7 -2 -5 -5 4 -5 9 -1 19
-8 23 -16 3 -8 12 -15 21 -15 8 0 15 -7 15 -15 0 -8 6 -15 13 -15 8 0 7 -4 -3
-10 -13 -9 -12 -13 7 -29 12 -10 19 -21 16 -25 -4 -3 2 -6 13 -6 13 0 15 -3 7
-8 -16 -10 -13 -90 4 -94 10 -2 10 -9 -2 -32 -13 -25 -13 -28 1 -22 11 4 15 2
11 -8 -3 -8 -1 -17 6 -20 7 -3 5 -4 -3 -3 -9 1 -17 -2 -18 -8 -2 -5 6 -11 18
-13 11 -2 18 -8 14 -13 -3 -5 -8 -7 -12 -5 -4 2 -8 -11 -9 -30 -2 -25 1 -34
12 -34 12 0 13 -4 5 -19 -5 -11 -10 -31 -10 -44 0 -20 6 -26 36 -31 43 -9 93
1 117 22 14 13 17 32 16 121 l-1 106 34 28 c18 16 76 49 128 74 52 25 120 63
151 83 30 20 66 39 78 43 34 8 191 -24 191 -40 0 -7 5 -13 11 -13 20 0 39 -33
27 -47 -6 -7 -6 -13 -1 -13 5 0 9 -9 9 -20 0 -21 -11 -27 -19 -10 -3 6 -4 5
-3 -2 1 -7 12 -17 24 -23 12 -5 22 -17 22 -25 0 -13 -1 -13 -10 0 -9 13 -11
13 -20 0 -14 -21 -12 -74 2 -88 7 -7 8 -12 2 -12 -6 0 -16 10 -22 23 -10 20
-11 19 -11 -15 -1 -29 -4 -36 -16 -32 -11 5 -14 -1 -11 -23 3 -27 0 -29 -23
-27 -14 2 -18 1 -9 -2 16 -5 16 -7 0 -25 -9 -10 -21 -19 -26 -19 -6 0 -5 5 1
11 13 13 6 42 -8 34 -4 -3 -6 -12 -3 -19 3 -8 0 -17 -5 -21 -6 -3 -9 -11 -5
-16 3 -5 0 -8 -8 -7 -7 2 -12 -3 -11 -9 2 -7 -4 -13 -12 -13 -8 0 -15 -7 -15
-16 0 -10 -5 -14 -16 -10 -8 3 -12 2 -9 -4 3 -6 -1 -10 -9 -10 -9 0 -15 -5
-13 -11 1 -6 -16 -18 -38 -27 -22 -8 -42 -18 -45 -22 -10 -13 -40 -19 -40 -8
0 7 -4 7 -13 -1 -8 -6 -17 -8 -20 -4 -4 3 -15 -2 -26 -11 -13 -12 -20 -14 -23
-5 -3 8 -12 7 -35 -4 -17 -9 -33 -13 -37 -10 -3 4 -6 2 -6 -4 0 -6 -9 -9 -21
-6 -14 4 -25 0 -31 -11 -9 -15 -11 -15 -26 2 -9 10 -16 16 -15 14 1 -3 -2 -13
-8 -24 -7 -14 -14 -16 -23 -9 -8 7 -20 6 -38 -3 -19 -10 -29 -11 -37 -3 -8 8
-11 6 -12 -8 0 -17 -2 -16 -10 4 -7 19 -12 22 -21 13 -7 -7 -20 -12 -30 -12
-10 0 -18 -4 -18 -10 0 -5 -7 -10 -15 -10 -8 0 -15 6 -15 13 0 8 -4 7 -11 -3
-8 -12 -12 -12 -16 -2 -4 10 -8 9 -17 -4 -12 -15 -14 -14 -27 14 -11 25 -16
29 -32 20 -11 -5 -16 -16 -13 -25 5 -11 -1 -14 -22 -12 -15 2 -33 0 -40 -4 -7
-5 -12 -3 -12 4 0 6 -6 17 -14 23 -8 6 -17 22 -21 36 -7 22 -6 23 8 12 12 -10
17 -10 23 -1 4 8 3 9 -4 5 -7 -4 -12 -2 -12 4 0 6 -8 10 -17 8 -11 -2 -17 2
-15 10 1 8 -2 11 -7 8 -13 -8 -34 21 -25 35 4 8 3 9 -5 5 -6 -4 -36 12 -69 37
-31 24 -79 54 -107 66 -89 40 -96 45 -131 83 -42 47 -47 77 -9 52 14 -9 28
-14 32 -10 3 3 2 6 -4 6 -32 0 -130 196 -153 306 -26 126 -5 166 217 412 107
119 145 177 187 291 20 52 42 101 50 109 8 8 45 26 83 39 61 21 80 23 183 19
77 -3 137 -11 180 -25z m5780 -433 c-53 -137 -134 -300 -145 -290 -5 4 -5 2
-1 -5 4 -7 -2 -33 -14 -57 -11 -25 -20 -48 -20 -52 0 -4 -8 -16 -17 -26 -9
-11 -18 -25 -19 -32 -1 -8 -20 -52 -43 -99 -23 -47 -41 -90 -41 -96 0 -6 -4
-11 -10 -11 -5 0 -10 -9 -10 -21 0 -13 -4 -18 -12 -13 -7 4 -8 3 -4 -4 8 -14
-15 -62 -29 -59 -5 1 -11 -11 -12 -27 -1 -16 -6 -32 -10 -35 -5 -3 -17 -32
-28 -63 -11 -32 -22 -58 -26 -58 -6 0 -21 -49 -23 -75 -1 -5 -4 -12 -7 -15
-19 -15 -144 -338 -206 -530 -13 -41 -29 -79 -35 -85 -7 -6 -9 -6 -6 0 3 6 23
64 43 130 21 66 65 190 97 275 33 85 68 178 78 205 45 128 175 423 191 435 3
3 10 16 14 29 13 42 176 385 205 431 14 22 58 125 86 198 29 78 36 90 42 73 2
-7 -15 -62 -38 -123z m-1982 -123 c43 -44 62 -72 62 -90 0 -14 5 -25 10 -25 6
0 10 7 10 15 0 20 37 39 43 22 3 -6 10 0 16 16 12 31 62 60 69 39 2 -6 10 -12
17 -12 20 0 37 -37 30 -60 -4 -11 -16 -25 -27 -31 -19 -10 -20 -9 -16 24 2 20
1 34 -3 31 -13 -8 -49 -95 -44 -104 4 -6 -1 -10 -9 -10 -10 0 -16 -9 -16 -24
0 -14 -4 -27 -10 -31 -5 -3 -7 -12 -3 -20 7 -20 -26 -19 -52 1 -19 14 -19 15
5 12 13 -2 25 2 26 7 0 6 4 17 7 25 22 51 26 70 16 70 -6 0 -13 -9 -16 -19 -5
-19 -40 -38 -78 -42 -23 -3 -105 29 -105 41 0 7 -33 17 -90 27 -13 2 -26 5
-27 7 -1 1 8 18 21 37 14 20 39 63 57 97 17 34 35 62 38 62 3 0 34 -29 69 -65z
m-2043 -77 c-11 -7 -33 -12 -50 -12 -16 -1 -29 -5 -28 -11 0 -5 -24 -11 -54
-12 -32 -1 -59 -7 -64 -14 -4 -7 -17 -14 -29 -16 -25 -4 -71 -33 -52 -33 7 0
24 7 37 16 22 14 25 14 25 1 0 -8 -14 -20 -32 -26 -17 -6 -29 -13 -26 -16 3
-3 26 4 52 16 70 31 78 18 10 -17 -124 -61 -147 -76 -132 -86 9 -6 6 -7 -9 -3
-12 3 -24 1 -28 -5 -3 -5 1 -10 9 -10 23 0 20 -9 -10 -32 -29 -24 -26 -35 6
-18 18 10 25 9 39 -5 15 -16 14 -17 -6 -10 -19 5 -22 3 -16 -11 5 -13 3 -16
-10 -11 -9 3 -24 4 -32 1 -13 -5 -12 -9 5 -24 20 -17 28 -36 11 -26 -5 4 -11
3 -14 -1 -2 -5 -2 -2 -1 5 2 6 -3 12 -10 12 -8 0 -17 -15 -20 -35 -5 -27 -15
-38 -41 -51 -38 -18 -41 -24 -23 -42 9 -9 6 -16 -12 -32 -13 -11 -18 -20 -12
-20 16 0 15 -43 0 -58 -7 -7 -13 -18 -13 -25 0 -7 -8 -11 -18 -11 -21 2 -21
-4 0 -28 17 -19 5 -26 -15 -6 -8 8 -16 5 -31 -13 -13 -16 -16 -26 -8 -31 7 -4
6 -12 -4 -25 -13 -17 -13 -17 4 -4 22 18 29 11 12 -12 -17 -24 -48 -12 -39 15
4 14 2 18 -5 14 -6 -4 -11 -16 -11 -27 0 -10 -5 -19 -11 -19 -6 0 -8 -9 -4
-22 6 -17 4 -20 -10 -14 -12 4 -18 0 -22 -14 -4 -15 -9 -18 -18 -10 -9 8 -14
6 -18 -4 -3 -8 -1 -17 6 -20 7 -2 1 -5 -13 -5 -20 -1 -22 -3 -10 -12 11 -8 6
-9 -20 -4 -25 4 -31 3 -20 -4 12 -8 10 -12 -10 -20 -14 -5 -19 -10 -12 -10 6
-1 14 0 15 2 2 1 11 -4 20 -12 17 -13 14 -31 -4 -31 -6 0 -7 4 -4 10 3 6 -1 7
-9 4 -9 -3 -14 -11 -13 -17 1 -7 -8 -12 -20 -12 -11 0 -24 -3 -28 -7 -9 -9
-25 -1 -25 13 0 5 8 9 17 9 15 0 14 2 -3 15 -11 8 -14 15 -6 15 18 0 15 20 -4
20 -13 0 -14 3 -5 14 10 12 8 17 -8 25 -13 7 -22 8 -26 1 -10 -16 -25 -12 -19
5 4 8 2 15 -4 15 -6 0 -8 17 -5 43 6 47 -3 46 -17 -2 -5 -18 -5 -33 1 -36 5
-4 9 -11 9 -16 0 -6 -5 -7 -12 -3 -7 5 -9 1 -6 -13 3 -12 2 -27 -3 -34 -17
-27 -9 92 11 170 26 101 48 154 61 145 11 -7 29 12 29 31 0 6 -4 3 -10 -5 -5
-8 -12 -12 -15 -8 -10 10 77 148 120 190 41 40 55 50 200 143 114 73 266 152
325 169 3 1 14 7 25 13 11 6 47 16 80 23 33 7 66 16 73 20 8 4 30 7 50 8 33 1
35 0 17 -10z m-5215 -188 c33 -65 120 -156 171 -177 26 -11 29 -15 19 -28 -16
-20 -34 -19 -26 1 3 8 2 12 -4 9 -6 -3 -10 -2 -10 4 0 20 -49 -11 -59 -38 -5
-14 -10 -20 -10 -13 -1 6 -6 12 -11 12 -6 0 -10 -6 -9 -12 3 -19 -16 -60 -41
-86 -21 -23 -20 -69 2 -56 5 4 5 -4 -2 -16 -12 -22 -13 -22 -30 21 -44 110
-62 280 -41 382 7 31 14 57 17 57 2 0 17 -27 34 -60z m1354 17 c31 -14 56 -31
56 -37 0 -6 4 -9 9 -6 5 3 14 -1 21 -9 10 -12 9 -15 -6 -15 -11 0 -15 -3 -9
-8 18 -13 46 -62 40 -72 -3 -5 4 -11 14 -15 12 -4 18 -12 14 -21 -3 -7 0 -14
6 -14 6 0 11 -5 11 -11 0 -5 -4 -7 -10 -4 -5 3 -10 1 -10 -6 0 -7 -10 -24 -22
-37 l-23 -25 23 12 c18 10 22 9 22 -4 0 -8 -8 -15 -18 -15 -11 0 -18 -7 -18
-19 0 -10 7 -18 15 -17 7 1 16 -5 19 -13 3 -8 0 -11 -6 -7 -6 3 -13 2 -17 -4
-3 -5 1 -10 9 -10 19 0 22 -45 5 -56 -7 -4 -7 -9 -1 -13 14 -9 25 -51 14 -51
-6 0 -12 6 -15 13 -2 6 -2 -13 0 -43 3 -30 5 -66 6 -80 2 -29 -27 -40 -37 -14
-5 14 -4 15 9 4 20 -16 26 -10 18 19 -3 13 -11 20 -19 17 -8 -3 -13 0 -11 6 1
7 -6 14 -15 16 -12 2 -18 -3 -19 -15 0 -10 -3 -13 -6 -5 -2 6 -9 10 -14 6 -5
-3 -9 0 -9 6 0 7 -6 8 -19 0 -14 -7 -21 -6 -24 3 -4 9 -8 8 -16 -3 -10 -13
-13 -13 -24 1 -6 8 -20 18 -29 22 -10 3 -18 11 -18 17 0 5 -8 10 -17 10 -15 0
-16 -2 -3 -10 13 -8 13 -11 1 -22 -11 -10 -14 -10 -18 0 -3 6 -10 12 -16 12
-8 0 -7 -4 1 -12 15 -15 16 -38 1 -38 -5 0 -8 4 -4 9 3 6 -3 15 -14 21 -17 8
-22 6 -31 -11 -9 -16 -19 -20 -41 -17 -16 3 -29 1 -29 -4 0 -4 -10 -8 -23 -8
-34 0 -60 -23 -63 -56 -2 -16 -11 -35 -21 -43 -17 -13 -17 -13 1 -7 17 6 17 5
5 -11 -12 -15 -12 -16 4 -10 13 5 17 3 14 -5 -2 -7 -10 -12 -17 -10 -9 2 -11
-6 -7 -27 4 -17 2 -33 -3 -36 -6 -3 -10 3 -10 14 0 14 -6 21 -17 20 -11 0 -13
-3 -5 -6 17 -7 15 -23 -3 -23 -8 0 -15 -7 -15 -16 0 -10 6 -14 15 -10 10 4 15
-1 15 -15 0 -11 7 -22 15 -25 8 -4 15 -11 15 -16 0 -6 -7 -5 -16 2 -12 11 -18
11 -30 -2 -15 -14 -10 -48 7 -48 5 0 9 -5 9 -10 0 -7 -8 -6 -22 2 -13 7 -27
13 -33 13 -5 0 -9 8 -9 18 2 21 0 21 -20 2 -8 -9 -12 -23 -9 -31 5 -13 8 -13
15 -2 7 10 11 10 14 1 3 -7 12 -9 20 -6 8 3 14 0 14 -6 0 -6 -4 -11 -8 -11 -4
0 -13 -13 -19 -30 -6 -16 -8 -30 -3 -30 4 0 10 9 13 20 3 11 18 25 34 32 15 7
31 17 35 23 4 5 6 0 6 -12 -1 -11 -7 -19 -14 -16 -6 2 -18 -3 -27 -11 -8 -8
-17 -12 -21 -9 -3 4 -6 -1 -6 -11 0 -12 6 -15 24 -10 14 3 27 1 32 -7 5 -9 2
-11 -9 -6 -9 3 -19 2 -23 -4 -3 -5 -14 -7 -25 -4 -11 4 -19 2 -19 -5 0 -8 10
-10 26 -7 23 4 24 3 10 -11 -12 -13 -18 -13 -31 -2 -12 10 -19 10 -27 2 -9 -9
-8 -12 5 -12 9 0 17 -4 17 -10 0 -5 8 -7 18 -4 13 5 14 4 3 -4 -7 -5 -23 -8
-35 -5 -19 4 -19 3 -4 -9 18 -16 19 -68 1 -68 -6 0 -15 -5 -19 -11 -4 -8 0 -9
15 -4 12 4 21 2 21 -4 0 -6 -8 -11 -17 -11 -14 0 -13 -3 5 -16 28 -20 45 -9
37 23 -5 21 -3 24 10 19 9 -3 21 -6 27 -6 7 0 6 -5 -1 -14 -9 -11 -9 -16 0
-22 18 -11 -29 -42 -57 -36 -13 2 -24 8 -24 13 0 5 -7 9 -16 9 -13 0 -14 -3
-5 -14 10 -12 8 -14 -16 -11 -15 2 -32 4 -36 4 -5 1 -5 11 -2 22 5 15 4 19 -4
15 -6 -4 -11 -13 -11 -20 0 -8 -7 -19 -15 -26 -11 -9 -15 -10 -15 -1 0 8 -5 7
-15 -3 -8 -8 -15 -18 -15 -21 0 -9 68 -1 93 9 13 6 16 5 11 -8 -3 -9 -17 -16
-30 -16 -25 0 -32 -15 -11 -24 6 -3 3 -4 -8 -3 -11 2 -19 8 -18 14 2 7 -6 10
-17 8 -11 -2 -20 0 -20 4 0 5 -9 11 -21 14 -19 5 -20 4 -4 -19 14 -21 14 -24
0 -24 -8 0 -15 5 -15 10 0 12 -47 13 -54 1 -3 -5 -16 -7 -29 -5 -16 3 -18 2
-5 -3 12 -6 15 -12 8 -23 -8 -13 -11 -12 -25 5 -12 16 -14 17 -9 3 7 -20 -11
-25 -20 -5 -3 6 -3 2 0 -11 5 -21 4 -22 -15 -10 -23 14 -28 28 -10 28 5 0 7 5
3 11 -5 8 -9 8 -14 -1 -18 -28 -110 131 -112 192 -3 89 16 135 96 235 20 25
42 70 54 110 10 37 29 102 41 143 12 41 28 96 35 122 29 100 98 204 227 342
90 97 184 157 266 172 15 3 34 9 42 15 28 16 136 3 195 -24z m-686 -189 c13
-16 -13 -83 -28 -73 -6 3 -7 0 -4 -9 4 -10 -1 -18 -12 -23 -29 -11 -114 -98
-114 -117 0 -10 -7 -24 -15 -32 -8 -8 -12 -21 -9 -29 4 -9 0 -15 -10 -15 -9 0
-16 -4 -16 -10 0 -5 4 -10 9 -10 11 0 -11 -66 -30 -88 -15 -18 -14 -62 2 -62
6 0 5 -8 -1 -21 -9 -15 -8 -24 1 -35 10 -13 10 -17 -2 -25 -12 -7 -12 -9 0 -9
8 0 12 -2 9 -5 -10 -11 -37 7 -31 21 3 8 1 14 -4 14 -16 0 -34 -89 -23 -110 5
-10 7 -27 4 -37 -5 -16 -4 -16 10 1 20 24 20 30 1 46 -17 14 -20 30 -5 30 6 0
10 -6 10 -14 0 -9 7 -13 19 -11 25 5 19 -10 -33 -87 -40 -60 -50 -67 -60 -45
-3 6 -4 3 -1 -9 9 -35 -67 -80 -79 -47 -3 8 -2 11 4 8 5 -3 24 1 42 9 20 9 26
15 16 15 -12 1 -18 10 -19 29 l-2 27 -4 -28 c-3 -20 -9 -27 -19 -23 -8 3 -14
0 -14 -7 0 -8 -4 -7 -10 3 -5 8 -10 12 -12 10 -2 -3 -8 -14 -14 -24 -19 -35
-35 -31 -29 8 2 20 7 42 10 49 4 6 -3 1 -14 -13 -11 -14 -21 -29 -21 -35 -2
-19 -59 100 -60 123 0 13 -4 21 -9 18 -4 -3 -13 6 -20 20 -10 22 -9 29 6 41
17 13 17 14 -4 8 -19 -5 -22 -1 -29 40 -8 54 0 119 21 181 29 85 108 190 178
236 55 36 172 89 247 113 57 18 154 19 168 3z m1390 -362 c128 -49 173 -71
211 -105 29 -25 36 -39 44 -93 13 -79 13 -103 3 -155 -7 -39 -6 -43 12 -43 34
0 70 38 87 93 8 28 20 67 26 86 28 85 116 194 187 230 39 21 132 16 180 -8 63
-32 145 -114 138 -138 -4 -12 1 -24 14 -33 22 -16 28 -36 8 -24 -10 6 -10 4 0
-8 13 -16 14 -88 1 -88 -4 0 -3 -15 2 -32 12 -44 12 -48 -8 -49 -10 0 -13 -3
-7 -5 8 -4 8 -15 -1 -42 -14 -39 -13 -48 4 -38 6 4 7 14 4 23 -4 10 -2 14 5 9
14 -9 11 -46 -5 -46 -7 0 -15 -17 -19 -37 -4 -21 -11 -47 -17 -58 -6 -11 -12
-29 -14 -40 -2 -10 -8 -22 -14 -26 -5 -3 -12 -23 -15 -45 -5 -38 -25 -80 -87
-176 -28 -44 -38 -52 -59 -49 -4 0 -5 -6 -2 -14 4 -8 1 -15 -5 -15 -6 0 -11
-6 -11 -14 0 -7 -7 -20 -17 -27 -15 -13 -15 -12 -4 9 12 22 11 23 -7 18 -14
-5 -24 -1 -32 11 -10 16 -11 16 -7 -4 3 -13 2 -23 -3 -23 -11 0 -21 30 -14 41
13 22 -22 2 -38 -21 -10 -14 -18 -22 -18 -18 0 13 23 58 30 58 3 0 11 15 18
33 7 18 21 43 33 56 12 12 19 25 15 28 -3 3 2 12 10 21 9 9 13 24 10 38 -3 12
-2 26 4 29 9 6 15 55 6 55 -2 0 -12 3 -22 7 -12 4 -15 3 -10 -5 4 -7 1 -12 -8
-12 -8 0 -20 -8 -25 -17 -7 -11 -14 -14 -18 -8 -14 18 -43 14 -43 -7 0 -10 -5
-16 -10 -13 -6 4 -8 11 -5 16 8 13 4 12 -43 -11 -22 -11 -45 -20 -50 -20 -5 0
-17 -9 -26 -19 -10 -11 -24 -17 -31 -15 -7 3 -19 -1 -26 -9 -11 -11 -18 -12
-33 -3 -14 8 -20 8 -23 -1 -3 -9 -11 -8 -30 4 -17 12 -30 14 -41 7 -30 -17
-59 -4 -119 51 -32 30 -66 57 -75 61 -10 3 -18 10 -18 15 0 6 5 7 10 4 6 -3
10 -1 10 5 0 6 -6 10 -12 9 -32 -4 -47 3 -54 24 -4 12 -15 33 -26 46 -25 33
-59 111 -52 122 3 5 0 9 -5 9 -6 0 -11 8 -11 18 0 10 -3 22 -7 26 -17 17 -28
195 -15 248 17 69 51 138 68 138 8 0 54 -15 102 -34z m-563 -197 c5 -6 5 -13
-3 -21 -9 -9 -12 -8 -12 7 0 14 -3 16 -12 7 -8 -8 -8 -15 1 -26 8 -9 8 -15 2
-18 -7 -2 -5 -22 6 -56 14 -42 20 -51 35 -46 10 3 18 1 18 -5 0 -6 -9 -11 -19
-11 -11 0 -21 -6 -24 -12 -4 -10 -7 -10 -18 0 -7 6 -23 12 -36 12 -12 0 -26 7
-30 15 -8 13 -14 13 -48 -4 -22 -11 -34 -20 -27 -21 6 0 12 -5 12 -11 0 -6
-10 -10 -22 -9 -40 4 -43 0 -18 -20 19 -15 21 -20 9 -20 -18 0 -29 -36 -22
-74 4 -18 10 -22 26 -18 19 5 20 3 9 -11 -8 -9 -12 -29 -11 -44 4 -32 -8 -56
-22 -48 -5 4 -17 1 -26 -4 -17 -10 -17 -10 0 -11 9 0 17 -4 17 -10 0 -5 -7
-10 -16 -10 -8 0 -12 -4 -9 -10 3 -5 2 -10 -4 -10 -5 0 -11 5 -13 10 -4 12
-68 2 -68 -11 0 -5 4 -9 9 -9 4 0 6 -11 3 -25 -6 -32 -19 -24 -27 18 -4 17
-11 37 -16 43 -18 22 -39 131 -39 199 0 89 29 153 97 217 45 41 57 47 109 53
33 3 66 8 74 9 24 5 104 -6 115 -15z m2525 -139 c0 -5 11 -12 24 -16 14 -3 27
-12 30 -21 3 -8 10 -11 16 -8 10 6 27 -26 39 -70 0 -2 13 0 27 5 25 10 26 9
19 -12 -4 -13 -7 -31 -8 -40 -1 -12 -5 -14 -11 -8 -19 19 -38 11 -32 -12 4
-15 1 -12 -9 7 -8 17 -15 26 -16 20 -1 -5 -3 -14 -4 -20 -5 -29 -30 -65 -44
-63 -10 2 -17 -6 -19 -19 -2 -13 -8 -23 -13 -23 -6 0 -8 4 -5 8 2 4 0 14 -6
22 -8 12 -9 12 -5 -2 3 -9 1 -18 -4 -20 -5 -2 -1 -13 11 -26 l21 -22 -23 3
c-13 1 -28 9 -35 17 -7 8 -13 10 -13 4 0 -6 -9 -21 -20 -34 -11 -12 -17 -26
-14 -31 3 -5 -1 -6 -9 -3 -8 3 -22 -2 -30 -11 -9 -8 -20 -14 -24 -13 -18 6
-71 -25 -81 -48 -21 -44 -71 -19 -73 37 -1 31 -2 30 -9 -11 -4 -25 -5 -50 -3
-56 6 -17 -23 -38 -33 -23 -4 8 -3 9 4 5 7 -4 12 -2 12 3 0 6 0 14 0 18 0 3
-14 8 -32 10 -35 3 -67 -11 -55 -24 5 -4 12 -1 17 7 5 8 12 11 16 8 12 -13
-23 -37 -45 -31 -12 3 -21 1 -21 -6 0 -6 6 -11 13 -11 6 0 4 -5 -6 -11 -11 -6
-29 -9 -43 -6 -13 2 -21 0 -18 -5 3 -5 -14 -6 -38 -2 -46 7 -45 -11 2 -19 14
-2 6 -3 -17 -2 -24 1 -43 -2 -43 -7 0 -6 -7 -8 -15 -4 -8 3 -15 1 -15 -4 0 -5
-11 -12 -24 -16 -16 -4 -23 -11 -19 -20 4 -10 -3 -14 -21 -14 -27 0 -35 -14
-13 -24 6 -3 -3 -3 -21 0 -24 4 -34 2 -38 -10 -7 -18 -34 -22 -34 -4 0 6 -3 8
-6 5 -4 -4 -1 -14 6 -22 11 -14 10 -14 -13 -6 -21 8 -25 7 -20 -4 3 -8 10 -15
15 -15 6 0 5 -6 -2 -15 -7 -8 -16 -15 -21 -15 -5 0 -6 7 -3 15 4 9 0 15 -9 15
-25 0 -67 -22 -67 -35 0 -6 -16 -11 -36 -12 -20 -1 -41 -6 -47 -12 -13 -13
-67 -15 -67 -3 0 5 10 8 21 8 12 -1 23 5 25 12 1 7 0 8 -3 2 -7 -16 -26 -12
-20 4 4 11 1 13 -11 9 -15 -6 -15 -5 -3 10 20 25 -6 23 -39 -3 -14 -11 -31
-20 -37 -20 -7 0 -12 -6 -10 -12 3 -17 -64 -11 -78 6 -5 7 -16 11 -22 9 -7 -3
-13 0 -13 7 0 6 -4 8 -10 5 -21 -13 -9 13 13 28 12 8 19 18 16 21 -3 3 -20 -8
-37 -25 -61 -60 -31 -17 71 102 56 66 118 145 137 174 19 30 47 74 62 97 16
24 46 65 67 92 22 28 56 83 76 123 31 62 41 74 70 82 31 8 79 7 130 -4 19 -4
20 -10 17 -77 -3 -55 -11 -88 -32 -133 -53 -109 -107 -206 -116 -208 -5 -1
-20 -15 -34 -32 -14 -16 -29 -33 -35 -37 -6 -5 -4 -8 4 -8 20 0 51 30 52 49 0
11 2 12 6 3 3 -9 10 -7 24 9 10 12 19 26 19 31 0 4 8 16 18 27 9 10 26 31 37
45 11 15 27 34 36 44 9 9 30 44 48 77 19 35 48 72 71 89 30 23 39 36 38 54 -4
33 35 60 97 67 28 4 77 13 110 20 33 8 69 16 80 18 42 9 235 7 235 -3z m-750
-1395 c30 -8 68 -15 83 -15 20 0 30 -6 34 -20 3 -11 10 -20 15 -20 5 0 6 5 3
10 -3 6 1 10 9 10 9 0 17 -8 17 -17 1 -20 5 -36 9 -43 1 -3 4 -15 5 -28 4 -36
-19 -20 -25 18 -3 18 -10 35 -16 37 -8 3 -8 -14 2 -59 7 -35 18 -99 23 -143
23 -168 52 -306 86 -395 9 -25 24 -74 33 -110 16 -64 16 -64 23 -30 3 19 7 28
8 18 0 -9 6 -18 12 -20 7 -2 9 -13 5 -26 -4 -12 -12 -20 -17 -17 -5 4 -9 -2
-9 -12 -2 -54 -102 -172 -184 -217 -34 -18 -88 -39 -121 -46 -33 -7 -67 -16
-75 -20 -17 -10 139 -5 169 5 10 3 47 9 82 14 35 5 73 12 84 14 11 3 23 6 28
6 4 1 7 7 7 15 0 19 30 43 31 25 1 -16 17 30 29 81 l8 35 1 -32 c1 -20 9 -37
21 -46 12 -8 20 -21 18 -28 -2 -8 4 -14 12 -14 8 0 15 7 15 15 0 8 4 20 8 27
4 6 0 19 -9 27 -19 20 -25 20 -18 2 3 -7 -1 -16 -9 -19 -14 -5 -17 5 -18 51
-1 12 -6 22 -11 22 -6 0 -9 23 -6 60 3 45 1 60 -9 60 -17 0 -17 17 0 23 9 4 8
8 -3 16 -13 10 -13 12 0 22 11 8 12 12 3 16 -7 2 -13 9 -13 14 0 6 5 7 10 4 6
-3 10 0 11 7 1 17 18 -47 25 -95 9 -70 23 -87 18 -24 -5 69 -22 139 -63 259
-41 116 -68 245 -77 364 -6 75 -10 92 -15 69 -6 -22 -7 -13 -6 30 2 57 1 60
-23 63 -65 9 -28 17 78 17 64 0 150 3 190 8 64 6 73 5 78 -10 39 -128 179
-302 289 -360 86 -45 153 -63 232 -63 40 0 73 -2 73 -5 0 -4 -7 -19 -15 -35
-21 -42 -90 -237 -113 -322 -39 -142 -56 -253 -68 -443 -4 -60 -8 -119 -9
-130 -1 -11 -3 -30 -4 -42 -1 -19 -5 -21 -28 -13 -93 27 -178 83 -281 182 -45
44 -66 58 -73 50 -5 -7 -7 -10 -3 -8 3 2 13 -3 23 -12 10 -10 34 -32 55 -51
26 -23 36 -39 33 -52 -6 -23 25 -43 53 -34 12 4 20 2 20 -4 0 -6 -5 -11 -10
-11 -7 0 -7 -6 0 -19 13 -25 13 -44 0 -36 -5 3 -10 15 -10 25 0 11 -10 22 -22
26 -26 8 -120 85 -113 92 2 2 -6 13 -18 23 -12 10 -18 18 -12 19 5 0 -1 7 -14
16 l-24 17 22 16 21 16 -39 42 c-21 23 -35 46 -32 49 3 4 0 4 -6 0 -9 -5 -13
-1 -13 11 0 10 -9 29 -20 43 -21 27 -27 21 -10 -10 8 -15 6 -17 -9 -13 -16 4
-19 1 -14 -16 6 -23 19 -28 26 -8 4 9 8 9 16 -2 7 -11 5 -19 -7 -29 -13 -10
-14 -13 -2 -9 8 2 26 0 40 -5 19 -7 22 -11 10 -18 -9 -5 -19 -5 -27 2 -23 19
-14 0 31 -64 53 -75 171 -192 186 -183 5 3 10 0 10 -8 0 -8 7 -20 15 -27 8 -7
15 -21 15 -32 0 -13 4 -17 13 -12 9 6 9 4 -1 -8 -9 -12 -10 -18 -2 -23 6 -4 9
-13 6 -21 -3 -8 -1 -14 4 -14 13 0 23 38 16 66 -4 14 -11 22 -16 19 -6 -3 -10
-2 -10 3 0 6 7 12 15 16 9 3 15 0 15 -8 0 -9 32 -24 84 -41 l83 -27 7 -45 c3
-25 6 -98 6 -162 0 -210 43 -457 98 -566 34 -68 76 -121 147 -185 33 -30 51
-50 40 -46 -66 27 -135 49 -165 52 -37 4 -441 16 -545 16 -33 0 -107 0 -165 0
-213 0 -300 3 -300 10 0 3 -42 5 -92 4 -87 -2 -93 -4 -91 -22 2 -17 -4 -21
-27 -21 -31 0 -30 7 1 42 36 40 98 172 114 239 18 78 21 306 6 397 -31 182
-99 405 -192 630 -155 375 -193 510 -193 699 0 105 3 136 23 193 35 104 134
224 231 281 52 30 74 31 150 11z"/>
<path d="M9949 7874 c-10 -12 -10 -20 -2 -34 9 -13 9 -20 0 -29 -18 -18 -34
-13 -59 19 -23 30 -23 30 -37 8 -11 -18 -11 -20 3 -15 11 5 29 -7 56 -35 40
-43 43 -58 10 -58 -10 0 -21 -4 -24 -9 -3 -4 -19 -11 -35 -14 -16 -4 -32 -14
-35 -24 -4 -10 -31 -38 -60 -63 -44 -37 -87 -90 -72 -90 2 0 38 34 81 75 42
41 80 75 83 75 4 1 27 5 52 11 134 30 276 27 324 -6 24 -17 36 -19 36 -6 0 24
-172 66 -237 58 -39 -4 -46 -2 -50 14 -3 10 -9 19 -14 19 -16 0 -9 40 12 69
31 42 1 74 -32 35z"/>
<path d="M9747 6897 c-29 -17 -46 -39 -73 -93 -18 -39 -34 -79 -34 -88 0 -9
-4 -24 -9 -34 -6 -9 -20 -39 -33 -67 -28 -60 -174 -215 -203 -215 -19 -1 -19
-1 -2 -11 15 -9 24 -6 46 15 16 15 32 26 37 25 19 -3 49 3 37 8 -21 8 -16 16
46 82 55 60 85 113 154 271 13 31 39 73 57 93 37 42 31 46 -23 14z"/>
<path d="M12030 7384 c-30 -35 -58 -73 -62 -83 -8 -24 -73 -117 -107 -154 -14
-16 -46 -40 -71 -54 -25 -14 -61 -36 -80 -49 -19 -12 -48 -25 -65 -28 -25 -5
-23 -3 13 15 34 16 42 24 37 40 -4 10 -2 19 4 19 6 0 20 19 32 43 l22 42 -45
-47 c-38 -42 -50 -48 -86 -49 -64 -3 -66 -3 -74 -14 -13 -17 -9 -34 11 -52 11
-9 17 -23 14 -31 -5 -12 -119 -72 -138 -72 -10 0 -5 28 10 56 8 15 12 30 10
33 -9 8 -63 -51 -69 -75 -4 -13 -10 -24 -15 -24 -5 0 -24 -16 -43 -36 -18 -20
-46 -45 -63 -55 -19 -12 -24 -19 -13 -19 20 0 18 -34 -3 -67 -18 -30 -29 -29
-29 3 0 21 -4 24 -20 19 -17 -5 -20 -2 -21 27 0 27 -2 29 -8 13 -5 -11 -12
-42 -16 -70 -4 -27 -11 -57 -15 -66 -5 -9 -12 -42 -15 -75 -4 -32 -8 -61 -10
-63 -2 -2 2 -9 8 -16 9 -10 16 -8 34 9 13 11 23 26 23 33 0 6 4 14 9 17 4 3 6
-26 3 -64 l-5 -69 48 25 c55 27 75 30 75 10 0 -7 7 -27 15 -42 8 -16 15 -36
15 -45 0 -27 -21 -79 -32 -79 -7 0 -6 5 1 14 9 11 6 15 -14 18 -26 6 -45 -7
-23 -15 9 -3 10 -8 3 -15 -15 -17 -96 6 -102 29 -4 14 -10 16 -27 9 -25 -9
-40 -3 -48 20 -5 13 -7 12 -13 -2 -11 -28 2 -48 35 -54 41 -9 38 -20 -12 -42
-49 -21 -118 -88 -118 -113 0 -9 -15 -30 -33 -46 -32 -28 -92 -122 -83 -130 3
-4 22 19 66 83 80 114 104 136 229 206 32 18 40 19 93 8 32 -7 61 -17 64 -21
7 -12 -34 -89 -51 -95 -21 -9 -55 -72 -55 -102 1 -24 2 -23 14 11 17 48 43 77
68 77 15 0 18 -5 12 -22 -10 -35 -64 -98 -90 -109 -23 -8 -35 -49 -15 -49 24
0 111 94 127 138 10 26 18 48 20 50 1 2 21 -16 45 -40 42 -42 54 -46 95 -33
17 5 23 18 28 58 13 95 27 146 51 181 13 18 26 47 29 64 11 47 70 92 120 92
14 0 26 5 26 10 0 6 -13 10 -30 10 -16 0 -30 5 -30 10 0 6 14 10 30 10 17 0
30 5 30 10 0 6 -7 10 -15 10 -8 0 -15 4 -15 9 0 15 30 41 48 41 9 0 41 18 72
39 36 25 64 38 76 35 13 -3 29 5 48 25 17 17 38 31 48 31 24 0 23 14 -4 42
-24 24 -78 37 -78 19 0 -6 -28 -40 -62 -75 l-63 -65 -120 -30 c-66 -17 -128
-36 -137 -41 -23 -13 -61 -13 -53 0 8 14 -34 4 -93 -22 -51 -21 -75 -23 -49
-4 17 13 24 56 9 56 -15 0 -32 -24 -32 -46 0 -22 -17 -34 -50 -34 -9 0 -23 -7
-30 -15 -20 -24 -40 -18 -40 13 0 49 12 102 24 102 6 0 31 18 54 40 24 22 48
40 53 40 17 0 9 18 -11 23 -11 3 -20 0 -20 -5 0 -6 -15 -28 -34 -48 -27 -30
-36 -35 -40 -23 -7 16 18 63 32 63 9 0 62 77 62 89 0 4 14 20 30 36 17 16 30
38 30 49 1 20 1 20 14 3 12 -15 15 -15 26 -2 6 8 37 24 68 35 32 12 82 34 112
50 82 42 123 56 127 43 4 -11 140 22 157 38 20 19 -2 17 -74 -7 -86 -28 -80
-27 -80 -15 0 5 24 24 52 42 94 60 201 175 239 256 33 70 50 89 70 77 19 -11
9 -103 -17 -163 -22 -50 -24 -64 -14 -76 16 -19 1 -19 -26 0 -18 12 -24 12
-43 -1 -12 -9 -19 -19 -17 -23 3 -4 -4 -18 -16 -31 -29 -30 -31 -93 -6 -120
10 -11 22 -20 27 -20 4 0 17 -9 30 -21 22 -20 23 -20 37 -3 22 28 44 83 44
109 0 13 5 25 11 27 6 2 2 13 -10 27 l-20 23 21 28 c14 20 23 53 29 112 9 88
1 134 -30 174 -17 21 -17 21 -71 -42z m-410 -853 c0 -5 -6 -14 -14 -20 -15
-12 -46 -98 -46 -126 0 -9 -10 -40 -23 -68 -13 -29 -34 -76 -47 -105 -20 -44
-27 -51 -44 -46 -18 6 -76 42 -76 47 0 1 7 27 15 57 8 30 11 57 6 60 -4 3 -11
32 -14 66 -6 56 -4 63 18 84 17 16 52 29 112 41 106 21 113 21 113 10z"/>
<path d="M7192 3163 c10 -65 20 -127 21 -138 2 -12 6 -26 10 -32 4 -6 4 -18 1
-26 -9 -24 14 -93 42 -126 15 -18 43 -35 67 -42 74 -20 194 -83 201 -104 3
-11 9 -53 13 -93 3 -40 9 -75 13 -77 11 -7 4 91 -10 145 -7 25 -14 62 -17 82
-3 23 -9 35 -16 31 -6 -4 -8 2 -5 15 4 12 2 20 -3 16 -5 -3 -9 -16 -9 -30 0
-27 -3 -28 -28 -14 -9 5 -43 19 -75 31 -115 41 -141 86 -172 289 -25 163 -29
183 -41 187 -6 2 -4 -38 8 -114z"/>
<path d="M3074 12905 c-67 -11 -211 -78 -254 -118 -62 -57 -154 -202 -175
-273 -42 -146 -7 -244 150 -409 41 -44 78 -92 81 -107 4 -16 10 -28 13 -28 14
0 -7 -121 -23 -139 -12 -13 -15 -27 -11 -44 7 -25 6 -26 -24 -17 -34 9 -45 2
-30 -20 6 -10 9 -11 9 -2 0 6 5 12 11 12 6 0 8 -9 4 -20 -6 -19 3 -25 28 -21
5 1 5 -8 2 -20 -5 -14 -3 -19 3 -15 7 4 9 -4 7 -21 -2 -16 -4 -33 -4 -38 -1
-6 -14 -25 -31 -43 -37 -40 -38 -54 -5 -46 15 4 25 2 25 -4 0 -6 -10 -12 -22
-14 -16 -2 -22 -9 -20 -20 2 -10 -3 -18 -10 -18 -15 0 -17 -22 -22 -232 -3
-155 -2 -158 20 -173 20 -13 23 -13 26 3 2 10 6 13 10 7 14 -22 -7 -36 -38
-25 -27 9 -28 9 -10 -5 18 -14 13 -20 -15 -17 -12 2 -127 -233 -136 -278 -5
-25 -8 -74 -7 -110 2 -36 -2 -82 -7 -103 -6 -22 -9 -168 -8 -345 1 -169 1
-320 1 -335 -1 -19 2 -25 11 -20 9 5 9 3 1 -8 -6 -8 -14 -38 -16 -67 -4 -41
-1 -58 12 -75 l18 -22 10 35 c9 32 10 33 11 8 1 -15 -3 -29 -7 -32 -14 -8 -6
-156 8 -169 10 -9 11 -9 5 1 -4 8 -2 13 6 11 28 -3 36 1 47 26 15 32 16 82 2
90 -5 3 -10 11 -10 18 0 6 6 2 14 -9 9 -13 14 -45 14 -93 -1 -49 -4 -68 -10
-59 -10 13 -7 0 8 -37 5 -11 2 -14 -11 -8 -15 5 -17 2 -13 -15 4 -12 2 -22 -3
-22 -5 0 -9 -9 -9 -20 0 -16 -7 -20 -37 -20 -22 0 -33 4 -26 8 7 5 9 13 3 21
-7 12 -11 12 -24 -2 -28 -28 -20 -47 22 -48 20 -1 53 -2 72 -3 33 -2 561 -8
588 -7 10 1 12 139 10 709 l-3 707 -28 43 c-15 24 -50 70 -76 103 -30 37 -54
79 -61 107 -7 26 -16 151 -20 277 -4 127 -13 242 -18 256 -6 15 -23 36 -37 48
l-27 21 31 29 c32 30 44 75 17 65 -8 -3 -17 0 -22 7 -4 8 -3 10 4 5 7 -4 12
-1 12 8 0 9 -5 16 -12 16 -9 0 -9 3 0 12 21 21 13 44 -20 59 -28 12 -34 21
-42 61 -4 27 -6 54 -3 61 3 7 37 24 76 37 39 13 76 29 82 37 7 7 17 13 24 13
7 0 15 6 18 13 2 6 35 28 73 47 62 32 77 35 171 38 152 6 234 -24 528 -192 80
-46 105 -55 105 -36 0 6 -7 10 -15 10 -8 0 -15 4 -15 9 0 4 -34 25 -75 46 -41
20 -75 41 -75 46 0 5 -6 9 -14 9 -7 0 -19 7 -26 15 -6 8 -15 14 -18 13 -16 -4
-52 14 -46 23 3 5 2 9 -3 8 -4 -1 -15 -1 -23 0 -12 1 -11 5 4 16 18 13 18 14
-3 12 -11 -1 -21 -5 -21 -9 0 -4 -5 -8 -11 -8 -6 0 -9 7 -5 15 3 8 1 15 -4 15
-6 0 -10 -4 -10 -10 0 -5 -4 -10 -10 -10 -5 0 -7 6 -4 13 3 8 -6 18 -21 25
-14 7 -24 16 -21 21 4 5 -4 7 -16 3 -13 -3 -19 -1 -15 5 4 6 -21 19 -61 32
-76 24 -214 30 -210 9 2 -7 -4 -13 -12 -13 -37 -3 -233 -101 -265 -132 -20
-20 -26 -22 -54 -12 -24 9 -39 9 -57 0 -31 -14 -67 -14 -59 -1 3 6 -4 11 -17
11 -17 1 -18 3 -5 6 31 8 19 53 -33 124 -69 95 -91 144 -97 210 -11 120 75
259 191 308 173 73 411 53 841 -73 145 -42 199 -56 282 -71 113 -20 187 -48
238 -89 57 -47 144 -147 190 -219 46 -74 66 -97 82 -97 6 0 16 -7 21 -15 12
-22 64 -3 56 20 -3 8 -1 15 5 15 7 0 5 10 -6 24 -10 13 -21 22 -24 20 -3 -2
-12 8 -19 21 -7 14 -17 25 -22 25 -5 0 -14 13 -19 29 -5 15 -21 34 -35 41 -14
8 -22 20 -20 27 7 17 -12 27 -51 26 -26 0 -31 2 -23 12 8 10 3 16 -21 24 -17
6 -35 8 -39 6 -5 -3 -12 0 -16 6 -4 7 -3 9 3 6 6 -4 14 0 17 9 3 8 10 13 15 9
11 -6 26 13 17 22 -3 4 -15 -2 -26 -12 -19 -17 -20 -17 -26 1 -15 48 -25 64
-46 75 -21 11 -22 11 -9 -4 12 -15 11 -17 -3 -17 -10 0 -14 -4 -11 -10 3 -5 2
-10 -4 -10 -15 0 -23 18 -9 22 13 5 2 28 -13 28 -6 0 -7 -4 -4 -10 8 -13 3
-13 -31 4 -16 8 -50 17 -76 20 -53 5 -68 12 -68 29 0 8 3 8 12 -1 7 -7 21 -12
31 -12 15 0 17 3 8 13 -6 8 -9 16 -6 19 3 3 -21 10 -52 17 -32 7 -66 17 -75
22 -10 5 -18 6 -18 3 0 -4 8 -13 18 -21 16 -13 15 -13 -7 -7 -34 9 -18 -13 22
-30 19 -9 25 -15 15 -15 -28 -2 -68 21 -68 38 0 9 -3 12 -8 6 -9 -13 -52 -18
-52 -6 0 5 -13 8 -30 7 -16 0 -28 2 -27 6 1 4 -9 15 -23 25 -22 15 -34 19 -77
25 -7 1 -13 8 -13 17 0 13 -1 13 -12 -1 -11 -12 -20 -13 -48 -5 -24 7 -29 12
-17 14 9 3 17 11 17 19 0 8 7 14 17 14 23 0 13 8 -18 13 -14 3 -32 1 -40 -4
-10 -6 -10 -9 -1 -9 6 0 12 -4 12 -9 0 -12 -100 -5 -113 8 -7 7 -3 8 13 4 16
-4 21 -3 16 5 -4 7 -14 12 -22 12 -8 0 -13 4 -9 9 3 6 -3 9 -12 9 -10 -1 -29
2 -43 6 -22 6 -23 5 -8 -6 9 -7 25 -18 35 -25 13 -8 4 -8 -32 1 -27 7 -55 11
-62 9 -7 -2 -21 0 -31 6 -11 6 -73 13 -138 16 -66 3 -136 8 -156 10 -23 2 -38
0 -38 -7 0 -6 -9 -8 -22 -5 -11 3 -34 -1 -50 -9 -15 -8 -28 -10 -28 -5 0 5 6
12 13 14 8 4 7 6 -3 6 -8 1 4 10 28 22 23 12 42 26 42 31 0 7 -5 7 -12 1 -19
-13 -118 -46 -124 -40 -3 2 21 18 54 35 63 33 145 52 201 47 105 -10 284 -13
265 -5 -52 21 -257 30 -350 15z m-327 -2107 c-1 -13 -6 -26 -12 -31 -6 -4 -3
-11 7 -18 17 -9 17 -11 -2 -31 -15 -17 -17 -24 -8 -30 10 -6 10 -10 -2 -18 -8
-5 -10 -10 -4 -10 7 0 14 -11 16 -25 3 -14 1 -25 -3 -25 -5 0 -9 -25 -9 -56 0
-34 4 -53 10 -49 6 4 10 -15 10 -49 0 -49 -2 -55 -17 -49 -10 4 -21 11 -25 16
-4 6 -13 4 -23 -6 -13 -14 -20 -14 -35 -4 -11 6 -20 15 -20 20 0 4 5 5 11 2 9
-6 24 25 19 41 -1 4 4 11 12 15 11 7 11 11 0 17 -7 5 -12 13 -11 18 1 5 1 16
-1 24 -3 26 -19 -22 -19 -60 -1 -24 -4 -31 -10 -21 -5 8 -5 27 1 45 5 17 9 64
9 104 -1 69 -1 72 18 60 11 -7 22 -20 24 -30 3 -10 9 -18 15 -18 14 0 2 51
-14 57 -7 2 -10 11 -7 19 3 8 -1 14 -8 14 -11 0 -11 2 1 10 11 7 17 2 26 -18
l12 -27 2 30 c1 17 2 36 1 43 -1 6 3 12 9 12 5 0 10 11 10 25 0 14 4 25 10 25
5 0 9 -10 7 -22z m-23 -413 c-5 -11 -2 -13 11 -8 17 6 17 1 10 -53 -12 -92
-15 -147 -8 -174 6 -25 6 -25 13 5 7 29 8 29 9 -8 1 -25 -3 -36 -10 -32 -7 5
-10 -18 -8 -73 2 -45 0 -85 -5 -89 -5 -4 -6 4 -4 20 3 15 2 29 -2 32 -3 2 -7
-24 -8 -57 -1 -41 -6 -67 -17 -77 -13 -14 -15 -13 -15 7 0 12 4 22 9 22 4 0 7
12 6 28 -3 44 -5 48 -16 32 -9 -12 -9 -11 -3 5 4 11 7 37 7 58 -1 20 2 37 6
37 4 0 8 6 8 14 0 8 -6 12 -14 9 -10 -4 -11 0 -4 19 5 14 8 62 5 108 -3 72 -2
81 11 70 18 -15 19 -7 5 21 -15 27 -30 23 -30 -8 0 -16 -5 -35 -10 -43 -8 -11
-10 -1 -8 35 3 42 6 50 23 50 15 0 21 8 23 33 2 17 7 32 12 32 5 0 7 -7 4 -15z"/>
<path d="M12317 11803 c-6 -12 -3 -160 4 -167 3 -3 23 -12 45 -20 21 -8 31
-15 21 -15 -13 -1 -17 -7 -15 -23 2 -13 9 -22 16 -20 8 1 11 -1 8 -6 -12 -19
119 -171 133 -156 3 4 0 9 -7 11 -6 3 -10 9 -6 14 3 5 -2 9 -10 9 -8 0 -18 5
-22 12 -4 7 -3 8 4 4 7 -4 12 -1 12 6 0 10 2 10 9 -1 5 -8 14 -10 21 -6 9 6
11 4 5 -5 -5 -8 3 -23 25 -42 43 -37 59 -68 49 -96 -6 -16 -5 -22 6 -22 8 0
15 -9 15 -21 0 -11 4 -17 10 -14 11 7 9 -8 -11 -85 -5 -19 -9 -42 -9 -49 0
-20 17 -2 23 24 3 13 5 9 6 -12 0 -18 -4 -33 -10 -33 -6 0 -9 -9 -6 -20 3 -11
1 -23 -4 -26 -5 -3 -9 7 -10 23 -1 56 -74 -223 -84 -322 -4 -45 -3 -56 5 -42
6 9 8 22 5 27 -3 6 -1 10 4 10 6 0 11 -7 12 -15 3 -50 2 -72 -4 -81 -9 -15 71
-86 124 -112 40 -19 98 -37 204 -64 22 -5 74 -9 115 -8 41 1 86 2 100 2 32 0
50 15 50 42 0 16 -3 18 -9 7 -6 -10 -10 -10 -13 -1 -3 11 -32 19 -80 23 -10 1
-18 5 -18 10 0 4 -4 5 -10 2 -5 -3 -10 -1 -10 4 0 6 -8 11 -17 11 -14 0 -15 2
-4 9 9 6 10 11 2 15 -6 4 -11 2 -11 -4 0 -8 -9 -10 -24 -6 -17 4 -26 2 -28 -9
-3 -13 -6 -13 -31 0 -15 8 -45 17 -65 20 -36 6 -67 17 -105 37 -26 13 -35 1
-12 -15 10 -8 15 -20 12 -28 -4 -10 -6 -9 -6 4 -1 9 -6 17 -12 17 -6 0 -9 -9
-6 -20 6 -24 8 -24 -31 -4 -18 8 -32 21 -32 29 0 7 -7 15 -15 19 -17 6 -20 51
-5 61 6 3 10 3 11 -2 2 -29 11 -59 18 -66 17 -17 22 31 8 66 -14 32 -12 46 18
188 18 85 38 172 43 194 17 69 22 210 8 237 -16 31 -32 49 -167 188 -76 79
-118 131 -134 168 -13 28 -27 52 -30 52 -3 0 -4 -4 0 -9 3 -5 -5 -12 -17 -14
-23 -4 -23 -4 -1 -6 15 -1 25 -11 32 -34 7 -19 21 -44 32 -56 11 -12 19 -29
17 -39 -3 -11 -12 -1 -29 31 -14 27 -28 48 -32 48 -25 -3 -29 0 -18 13 9 11 9
16 0 21 -6 4 -15 1 -20 -6 -11 -18 -17 -10 -21 30 -2 23 2 36 11 39 10 3 12 0
8 -12 -4 -9 -2 -16 2 -16 5 0 12 7 15 16 3 8 10 12 16 9 5 -3 10 -1 10 4 0 6
-14 11 -30 11 -30 0 -46 17 -38 40 2 7 14 3 31 -10 22 -18 27 -19 27 -6 0 9
-6 16 -14 16 -7 0 -19 7 -26 15 -14 16 -26 19 -33 8z"/>
<path d="M3871 10740 c-2 -48 122 -254 227 -377 49 -58 84 -87 209 -175 18
-13 33 -30 33 -38 0 -21 -92 -143 -155 -204 -45 -45 -47 -48 -15 -29 19 11 68
61 108 111 90 111 109 111 116 -1 2 -23 6 -52 10 -64 5 -16 -1 -37 -20 -69
-23 -39 -38 -51 -102 -80 -41 -19 -73 -37 -70 -39 3 -3 18 1 33 9 15 8 54 23
86 33 46 14 59 22 59 38 0 11 5 27 11 35 8 12 10 10 6 -11 -4 -26 -4 -26 126
-48 72 -12 132 -19 134 -17 2 2 -31 12 -74 21 -155 35 -151 33 -157 63 -6 35
-14 94 -21 157 -6 61 -23 105 -38 101 -7 -2 -9 -1 -4 1 4 3 7 17 7 33 0 25 -4
28 -44 32 -49 6 -117 48 -178 112 -80 81 -159 190 -198 268 -21 43 -45 86 -52
95 -7 9 -18 28 -25 42 l-11 26 -1 -25z"/>
<path d="M2025 9348 c5 -47 9 -59 29 -96 17 -33 14 -72 -6 -72 -6 0 -5 -6 3
-16 12 -14 14 -14 20 3 7 16 8 15 8 -5 1 -13 5 -21 10 -18 5 3 15 -2 22 -11
12 -14 12 -16 -2 -11 -24 9 -39 -5 -32 -30 3 -12 9 -19 14 -16 8 5 14 -17 10
-38 0 -5 3 -8 9 -8 6 0 6 -10 -1 -27 -5 -14 -9 -33 -8 -42 3 -35 -2 -60 -14
-73 -25 -25 -28 -80 -8 -135 21 -59 61 -110 61 -78 0 10 -8 24 -17 31 -17 13
-17 14 2 9 19 -5 19 -5 -1 5 -30 17 -62 120 -36 120 14 0 32 -23 32 -42 0 -10
4 -18 9 -18 5 0 7 18 4 39 -3 24 2 61 12 95 26 82 17 153 -32 251 -22 44 -50
110 -62 148 -13 37 -24 67 -26 67 -2 0 -2 -15 0 -32z"/>
<path d="M2661 8551 c-16 -10 -7 -81 11 -81 6 0 7 7 3 18 -14 34 -17 52 -8 52
10 0 36 -90 28 -98 -3 -3 -5 3 -5 13 0 15 -3 16 -12 7 -9 -9 -17 -6 -36 15
-18 22 -21 23 -13 6 15 -30 -7 -43 -28 -17 -9 10 -27 20 -41 22 -23 2 -22 0
10 -19 19 -12 75 -64 125 -115 95 -99 140 -126 227 -138 26 -4 50 -11 53 -17
4 -5 15 -9 26 -9 11 0 34 -7 51 -16 20 -10 28 -11 22 -3 -5 9 -2 10 11 5 15
-5 16 -4 6 8 -7 8 -20 12 -28 9 -12 -5 -14 -3 -8 7 6 9 4 11 -4 6 -8 -5 -14
-1 -17 11 -4 14 -13 19 -35 17 -16 -1 -26 2 -23 7 8 13 -59 7 -69 -6 -5 -6 -6
-2 -3 8 5 16 2 18 -23 12 -17 -3 -32 -2 -36 4 -3 6 -1 11 4 11 6 0 11 4 11 9
0 5 -19 7 -42 5 -30 -3 -39 -1 -31 7 12 12 6 49 -8 49 -5 0 -9 -7 -9 -15 0 -8
-4 -15 -10 -15 -13 0 -13 17 0 25 13 8 -11 47 -26 41 -6 -2 -11 1 -11 7 0 7
-4 21 -9 32 -7 18 -6 19 11 5 18 -14 18 -14 3 10 -9 14 -23 49 -33 78 -9 28
-17 52 -18 52 -1 0 -8 -4 -16 -9z"/>
<path d="M3682 4329 c3 -8 -3 -26 -14 -41 -14 -21 -17 -32 -9 -45 10 -17 10
-17 11 0 0 23 27 64 47 71 12 5 13 4 5 -7 -7 -8 -9 -17 -5 -20 3 -4 1 -7 -5
-7 -7 0 -11 -3 -10 -7 1 -5 -4 -20 -10 -35 -8 -19 -16 -26 -27 -22 -16 7 -21
-11 -5 -21 6 -4 1 -23 -12 -48 -11 -23 -23 -36 -25 -29 -8 23 -21 12 -27 -23
-5 -24 -12 -35 -24 -35 -13 0 -14 2 -4 8 7 5 10 16 6 25 -3 9 -2 17 4 17 5 0
12 14 16 30 3 18 15 34 28 41 16 7 24 20 25 42 l3 32 -26 -30 c-45 -52 -72
-118 -99 -245 -26 -125 -39 -162 -83 -233 -24 -39 -25 -60 -2 -32 7 8 17 15
23 15 5 0 2 -9 -8 -20 -19 -21 -45 -27 -45 -9 0 5 -15 -4 -32 -20 -37 -34
-128 -81 -158 -81 -11 0 -20 -4 -20 -10 0 -5 10 -10 23 -10 16 0 18 -3 8 -9
-7 -5 -10 -14 -7 -20 4 -6 3 -11 -2 -11 -6 0 -12 6 -15 14 -5 11 -26 13 -104
9 -54 -2 -109 -6 -123 -9 -24 -5 -24 -6 -5 -17 12 -8 67 -12 145 -12 113 0
130 2 178 25 28 14 52 28 52 32 0 5 6 8 14 8 20 0 136 141 136 166 0 3 -8 0
-17 -7 -16 -12 -17 -12 -6 2 7 9 9 20 5 24 -4 5 1 5 11 2 11 -4 17 -1 17 9 0
8 -4 12 -10 9 -15 -9 -12 4 3 20 17 16 32 8 41 -22 5 -16 3 -23 -6 -23 -10 0
-11 -2 0 -8 7 -5 10 -17 6 -28 -4 -14 -3 -15 4 -5 8 11 10 11 15 0 3 -8 4 10
2 40 -10 143 19 240 139 456 52 92 55 108 24 104 -13 -2 -29 0 -37 5 -9 6 -12
5 -9 -5z"/>
<path d="M3565 3510 c1 -113 -2 -166 -13 -195 -7 -22 -15 -45 -16 -52 -1 -7
-10 -21 -19 -31 -17 -19 -17 -20 8 -24 20 -4 29 1 44 26 42 70 58 216 27 253
-12 13 -19 38 -20 67 -1 45 13 67 15 24 1 -20 2 -21 6 -4 3 11 -2 25 -10 31
-8 6 -17 22 -19 35 -3 14 -4 -45 -3 -130z"/>
<path d="M10160 2050 c-25 -5 -74 -9 -110 -9 -89 1 -169 -17 -197 -43 -13 -12
-23 -25 -23 -29 0 -10 59 -5 125 11 132 31 457 38 490 10 20 -16 26 -10 18 18
-3 14 -18 25 -42 32 -51 15 -207 21 -261 10z"/>
</g>
</svg>
