<?xml version="1.0" standalone="no"?>
<!DOCTYPE svg PUBLIC "-//W3C//DTD SVG 20010904//EN"
 "http://www.w3.org/TR/2001/REC-SVG-20010904/DTD/svg10.dtd">
<svg version="1.0" xmlns="http://www.w3.org/2000/svg"
 width="2245.000000pt" height="481.000000pt" viewBox="0 0 2245.000000 481.000000"
 preserveAspectRatio="xMidYMid meet">

<g transform="translate(0.000000,481.000000) scale(0.100000,-0.100000)"
fill="#000000" stroke="none">
<path d="M7 4773 c-4 -3 -7 -1018 -7 -2255 l0 -2248 2250 0 2250 0 0 2255 0
2255 -2243 0 c-1234 0 -2247 -3 -2250 -7z m4386 -93 c16 0 17 -59 15 -1137
l-3 -1138 -105 3 c-116 4 -329 -18 -490 -48 -331 -64 -666 -221 -960 -449 -87
-68 -318 -291 -429 -416 -52 -58 -59 -63 -40 -30 30 54 183 279 228 335 451
569 855 826 1411 895 68 8 157 15 197 15 l73 0 0 114 c0 63 -4 117 -8 120 -11
7 -244 -21 -327 -40 -581 -129 -1072 -519 -1456 -1157 -68 -114 -61 -77 11 58
120 226 234 404 374 585 105 136 366 398 481 483 230 170 470 279 715 327 l85
16 3 109 c1 59 -1 112 -6 117 -8 8 -88 -8 -187 -37 -17 -5 -26 7 -65 91 -131
288 -364 547 -647 723 -367 228 -806 320 -1263 266 -129 -15 -330 -65 -448
-111 -446 -174 -812 -518 -980 -923 -19 -47 -25 -53 -44 -47 -86 25 -181 46
-186 42 -3 -3 -6 -56 -6 -118 l-1 -111 90 -18 c562 -110 1065 -527 1475 -1224
62 -105 162 -296 157 -301 -1 -2 -15 16 -30 39 -215 332 -300 443 -470 616
-355 360 -737 551 -1207 605 -69 8 -129 11 -133 7 -4 -4 -6 -57 -5 -117 l3
-109 118 -7 c539 -32 941 -226 1334 -644 134 -141 251 -290 374 -472 86 -128
116 -189 63 -127 -105 122 -140 160 -224 243 -344 341 -753 566 -1184 651
-155 31 -369 52 -491 49 l-110 -3 -3 1137 -2 1137 22 3 c13 2 977 2 2143 0
1166 -1 2128 -2 2138 -2z m-1913 -270 c116 -14 306 -62 418 -104 408 -156 729
-435 922 -801 74 -139 78 -123 -55 -188 -582 -284 -1065 -882 -1398 -1727 -62
-157 -97 -263 -97 -291 0 -7 78 64 173 157 208 205 332 309 497 419 279 186
551 301 825 349 143 25 385 39 520 29 l120 -8 0 -940 0 -940 -2155 0 -2155 0
0 940 0 940 130 8 c359 23 737 -52 1053 -210 290 -144 537 -332 827 -630 67
-68 124 -123 127 -123 17 0 -62 227 -157 450 -309 730 -781 1294 -1300 1558
-55 28 -112 56 -127 61 -16 6 -28 16 -28 23 0 17 84 180 128 248 159 246 407
467 669 598 170 85 407 159 578 181 100 12 385 13 485 1z"/>
<path d="M1880 4241 c-121 -39 -190 -93 -238 -186 -20 -40 -27 -68 -30 -141
-5 -112 15 -197 89 -369 122 -287 144 -371 134 -520 -19 -314 155 -534 424
-535 329 0 583 286 631 711 18 157 -17 375 -85 532 -112 259 -349 455 -618
512 -94 20 -238 18 -307 -4z m319 -91 c276 -67 506 -318 578 -635 24 -103 23
-337 -1 -440 -39 -172 -140 -329 -262 -410 -90 -60 -183 -88 -274 -83 -126 8
-214 71 -273 196 -27 57 -33 81 -35 159 -5 110 12 171 63 230 85 100 268 118
365 37 90 -76 105 -245 28 -338 -35 -43 -67 -61 -124 -70 -125 -21 -223 132
-147 230 22 29 25 40 17 62 -15 44 -55 41 -93 -5 -72 -87 -62 -207 26 -304 53
-58 86 -73 168 -73 124 0 223 65 275 180 31 69 31 178 0 258 -24 63 -85 138
-132 162 -24 13 -28 20 -29 62 0 26 -4 56 -8 66 -8 22 34 96 54 96 20 0 46 36
52 74 6 39 -16 86 -42 86 -17 0 -20 -26 -5 -35 6 -3 10 -17 10 -31 0 -79 -66
-88 -85 -12 -8 33 -34 57 -64 60 -32 4 -38 -19 -9 -32 18 -9 78 -110 78 -133
0 -3 -14 -10 -31 -16 -39 -14 -98 0 -124 29 -18 20 -18 21 3 49 30 41 37 91
18 134 -17 41 -59 68 -78 49 -8 -8 -3 -19 22 -42 29 -27 32 -35 27 -67 -4 -20
-18 -48 -32 -62 -21 -22 -35 -26 -79 -26 -65 0 -96 22 -96 69 1 39 22 68 44
60 18 -7 22 -50 4 -56 -7 -3 -9 -12 -5 -22 7 -17 9 -17 30 -3 33 22 31 83 -4
109 -26 20 -49 16 -91 -14 -14 -10 -22 -9 -45 8 -50 37 -40 124 18 155 17 9
24 7 41 -10 10 -12 23 -19 29 -16 17 11 9 45 -16 61 -53 35 -131 -24 -143
-108 -6 -51 18 -100 65 -128 18 -10 33 -27 33 -36 0 -9 7 -31 16 -49 22 -46
73 -69 138 -62 49 6 53 5 90 -33 33 -32 39 -46 40 -81 l1 -42 -66 -13 c-76
-14 -133 -41 -184 -85 -25 -22 -36 -27 -40 -17 -2 7 -20 58 -39 113 -18 55
-44 123 -56 150 -115 260 -137 357 -109 470 12 49 62 113 112 144 85 52 236
64 376 31z m107 -745 c8 -45 0 -65 -26 -65 -22 0 -26 6 -34 63 -5 35 -4 37 24
37 25 0 30 -5 36 -35z"/>
<path d="M2255 3860 c4 -6 11 -8 16 -5 14 9 11 15 -7 15 -8 0 -12 -5 -9 -10z"/>
<path d="M2025 1203 l-130 -4 0 -139 0 -140 33 0 32 0 0 60 0 60 71 0 c67 0
70 1 67 23 -3 20 -9 22 -71 25 l-68 3 3 32 3 32 98 0 97 0 0 28 c0 15 -1 26
-2 25 -2 -1 -61 -4 -133 -5z"/>
<path d="M2780 1202 l-125 -3 0 -139 0 -140 128 0 c70 0 130 0 135 0 4 0 7 8
7 18 0 15 -13 17 -102 20 l-103 3 0 39 0 39 68 3 c59 3 67 5 67 23 0 18 -8 20
-68 23 l-68 3 3 32 3 32 95 1 c81 2 96 4 98 19 2 9 0 20 -5 24 -4 3 -64 5
-133 3z"/>
<path d="M3045 1203 c-88 -23 -93 -139 -7 -162 20 -6 48 -11 62 -11 63 -1 89
-27 58 -58 -18 -18 -89 -14 -131 7 -36 18 -38 18 -47 1 -17 -32 -12 -37 51
-55 134 -37 240 26 194 115 -16 30 -40 40 -139 57 -54 9 -66 22 -41 47 22 22
82 20 126 -3 35 -19 36 -19 47 0 16 26 16 26 -17 44 -32 16 -124 27 -156 18z"/>
<path d="M225 1059 l0 -140 128 3 c114 3 130 5 143 22 18 26 18 85 -1 106 -13
15 -13 20 0 47 18 36 8 75 -24 92 -11 6 -71 11 -133 11 l-113 0 0 -141z m199
88 c10 -7 17 -22 14 -33 -3 -16 -13 -19 -76 -22 l-72 -3 0 29 c0 16 3 32 7 35
12 12 109 7 127 -6z m14 -119 c18 -18 14 -46 -7 -58 -11 -5 -47 -10 -80 -10
l-61 0 0 40 0 40 68 0 c40 0 73 -5 80 -12z"/>
<path d="M570 1060 l0 -140 35 0 35 0 0 55 0 55 38 0 c35 0 41 -4 72 -55 32
-50 38 -54 73 -55 l39 0 -36 49 c-20 27 -36 53 -36 58 0 5 11 15 25 21 34 16
49 56 35 95 -17 50 -34 56 -162 57 l-118 0 0 -140z m204 87 c11 -8 17 -23 14
-38 -3 -23 -7 -24 -75 -27 l-73 -3 0 34 c0 18 3 37 7 40 12 12 109 7 127 -6z"/>
<path d="M1010 1180 c0 -11 -26 -74 -58 -140 l-58 -120 36 0 c32 0 37 4 45 33
10 31 11 32 74 35 66 3 90 -10 91 -50 0 -14 9 -18 40 -18 22 0 40 1 40 3 0 1
-27 55 -60 121 -33 65 -60 127 -60 137 0 16 -8 19 -45 19 -38 0 -45 -3 -45
-20z m65 -96 c21 -51 20 -54 -25 -54 -22 0 -40 2 -40 5 0 10 40 85 45 85 3 0
12 -16 20 -36z"/>
<path d="M1270 1060 l0 -140 35 0 35 0 0 140 0 140 -35 0 -35 0 0 -140z"/>
<path d="M1411 1060 l0 -140 32 0 32 0 -3 90 c-2 51 1 90 6 90 9 0 74 -67 139
-143 25 -29 40 -37 65 -37 l33 0 -3 140 -3 140 -30 0 -29 0 0 -92 0 -93 -80
80 c-44 44 -80 85 -80 92 0 8 -14 13 -39 13 l-40 0 0 -140z"/>
<path d="M2210 1060 l0 -140 33 0 32 0 0 140 0 140 -32 0 -33 0 0 -140z"/>
<path d="M2350 1061 l0 -140 130 -3 130 -3 0 25 0 25 -95 -3 -94 -3 -7 26 c-3
14 -4 68 -2 120 l4 95 -33 0 -33 0 0 -139z"/>
<path d="M3400 1061 l0 -140 130 -3 130 -3 0 25 0 25 -95 -3 -95 -3 0 120 0
121 -35 0 -35 0 0 -139z"/>
<path d="M3705 1060 l0 -140 123 0 c67 0 125 0 130 0 4 0 7 10 7 21 0 21 -4
22 -97 20 l-98 -2 0 120 0 121 -32 0 -33 0 0 -140z"/>
<path d="M4010 1060 l0 -140 33 0 33 0 -1 53 0 52 84 5 c76 5 86 8 108 35 20
23 24 36 19 64 -9 61 -32 71 -162 71 l-114 0 0 -140z m194 87 c11 -8 17 -23
14 -38 -3 -23 -6 -24 -73 -24 -65 0 -70 1 -73 23 -2 13 2 30 8 38 16 18 100
19 124 1z"/>
<path d="M787 744 c-12 -12 -7 -117 6 -144 15 -30 55 -43 41 -14 -5 11 -9 51
-10 89 -2 51 -6 71 -16 73 -8 1 -17 0 -21 -4z"/>
<path d="M1137 743 c-4 -3 -7 -44 -7 -90 0 -67 3 -83 15 -83 12 0 15 17 15 90
0 83 -5 101 -23 83z"/>
<path d="M1477 744 c-4 -4 -7 -45 -7 -91 0 -75 2 -84 18 -81 9 2 16 11 14 20
-4 28 16 30 34 3 16 -24 44 -34 44 -16 0 25 -36 71 -52 67 -18 -4 -24 9 -27
59 -1 31 -13 50 -24 39z"/>
<path d="M1625 741 c-7 -12 12 -24 25 -16 11 7 4 25 -10 25 -5 0 -11 -4 -15
-9z"/>
<path d="M2057 744 c-3 -3 8 -28 24 -55 17 -29 29 -64 29 -84 0 -28 4 -35 20
-35 30 0 26 62 -7 127 -25 48 -48 64 -66 47z"/>
<path d="M2720 746 c-3 -2 -4 -43 -2 -90 3 -78 5 -86 23 -86 18 0 20 6 17 87
-2 70 -6 88 -18 91 -9 1 -18 1 -20 -2z"/>
<path d="M3487 743 c-12 -11 -8 -23 8 -23 8 0 15 7 15 15 0 16 -12 20 -23 8z"/>
<path d="M3700 746 c-1 -3 -1 -43 -1 -88 -1 -69 2 -84 15 -86 15 -3 16 7 14
84 -2 59 -7 89 -15 92 -7 2 -13 1 -13 -2z"/>
<path d="M2789 731 c10 -6 12 -19 8 -41 -6 -26 -4 -31 10 -28 46 9 40 70 -8
76 -18 2 -20 0 -10 -7z"/>
<path d="M3022 708 c-17 -17 -15 -100 2 -124 20 -27 28 -14 30 53 3 81 -5 98
-32 71z"/>
<path d="M3391 706 c-12 -14 -7 -107 5 -128 14 -22 28 1 25 41 -1 23 3 49 9
57 9 10 9 14 1 14 -6 0 -11 7 -11 15 0 19 -14 19 -29 1z"/>
<path d="M3291 691 c-9 -6 -10 -11 -2 -15 6 -4 11 -29 11 -57 0 -42 3 -49 20
-49 18 0 20 7 20 55 0 42 -4 56 -18 64 -10 5 -24 6 -31 2z"/>
<path d="M980 631 c0 -48 3 -61 15 -61 11 0 15 12 15 50 0 28 0 53 1 58 0 4
-7 8 -15 10 -13 3 -16 -8 -16 -57z"/>
<path d="M1038 679 c6 -7 12 -35 12 -61 0 -37 4 -48 15 -48 13 0 15 11 13 58
-3 52 -5 57 -28 60 -20 3 -23 1 -12 -9z"/>
<path d="M1210 671 c-14 -28 -12 -64 5 -87 8 -10 15 -17 15 -14 1 3 2 31 3 63
2 59 -5 71 -23 38z"/>
<path d="M1275 630 c0 -55 1 -58 18 -43 9 9 17 28 17 43 0 15 -8 34 -17 43
-17 15 -18 12 -18 -43z"/>
<path d="M1400 683 c1 -18 18 -35 24 -24 4 6 4 16 1 21 -7 12 -25 13 -25 3z"/>
<path d="M1550 679 c0 -5 5 -7 10 -4 6 3 10 8 10 11 0 2 -4 4 -10 4 -5 0 -10
-5 -10 -11z"/>
<path d="M1620 631 c0 -55 2 -61 20 -61 19 0 21 5 18 57 -2 46 -7 59 -20 61
-16 3 -18 -5 -18 -57z"/>
<path d="M1707 683 c-2 -5 -3 -30 -2 -58 0 -37 5 -50 15 -50 11 0 16 15 18 58
2 45 0 57 -12 57 -8 0 -17 -3 -19 -7z"/>
<path d="M1763 679 c14 -8 18 -21 16 -57 -3 -38 0 -48 14 -50 14 -3 17 4 17
41 0 62 -8 77 -39 77 -23 -1 -24 -2 -8 -11z"/>
<path d="M1862 678 c-7 -7 -12 -19 -12 -28 0 -15 18 -40 30 -40 3 0 5 18 5 40
0 43 -4 47 -23 28z"/>
<path d="M1918 650 c-5 -58 24 -47 34 13 4 21 1 27 -12 27 -14 0 -19 -10 -22
-40z"/>
<path d="M2230 674 c-24 -28 -10 -104 19 -104 3 0 6 27 6 60 0 63 -4 70 -25
44z"/>
<path d="M2290 630 c0 -62 0 -63 20 -45 11 10 20 30 20 45 0 15 -9 35 -20 45
-20 18 -20 17 -20 -45z"/>
<path d="M2362 639 c2 -36 8 -55 20 -63 23 -14 25 -10 20 57 -3 49 -7 57 -23
57 -18 0 -20 -6 -17 -51z"/>
<path d="M2437 683 c-2 -5 -3 -30 -3 -58 1 -39 5 -50 19 -53 15 -3 17 5 17 57
0 46 -3 61 -14 61 -8 0 -17 -3 -19 -7z"/>
<path d="M2520 630 c0 -53 2 -61 18 -58 14 3 17 14 17 58 0 44 -3 55 -17 58
-16 3 -18 -5 -18 -58z"/>
<path d="M2576 681 c-3 -5 0 -11 8 -14 15 -6 26 1 26 15 0 11 -27 10 -34 -1z"/>
<path d="M2880 674 c-24 -28 -10 -104 19 -104 3 0 6 27 6 60 0 63 -4 70 -25
44z"/>
<path d="M2940 632 c0 -34 2 -62 4 -62 3 0 12 7 20 16 22 22 20 67 -4 89 -20
18 -20 17 -20 -43z"/>
<path d="M3116 674 c-19 -18 -21 -75 -4 -92 7 -7 20 -12 30 -12 17 0 17 2 4
23 -8 12 -14 39 -13 60 1 20 1 37 0 37 -1 0 -9 -7 -17 -16z"/>
<path d="M3168 665 c4 -25 13 -31 25 -19 8 8 -10 44 -22 44 -5 0 -6 -11 -3
-25z"/>
<path d="M3230 630 c0 -53 2 -60 20 -60 18 0 20 7 20 60 0 53 -2 60 -20 60
-18 0 -20 -7 -20 -60z"/>
<path d="M3480 630 c0 -47 3 -60 15 -60 12 0 15 13 15 60 0 47 -3 60 -15 60
-12 0 -15 -13 -15 -60z"/>
<path d="M3562 678 c-16 -16 -15 -28 3 -28 8 0 15 9 15 20 0 23 -2 24 -18 8z"/>
<path d="M3612 633 c2 -46 7 -59 21 -61 14 -3 17 4 17 35 0 53 -10 83 -27 83
-11 0 -13 -13 -11 -57z"/>
<path d="M1346 664 c-18 -47 0 -94 36 -94 22 0 23 7 3 26 -8 9 -15 31 -15 50
0 35 -13 46 -24 18z"/>
<path d="M3560 615 c-14 -17 -6 -45 13 -45 9 0 14 11 13 30 -1 33 -8 37 -26
15z"/>
<path d="M1852 555 c0 -19 4 -35 9 -35 5 0 8 6 7 13 -4 19 51 21 73 1 18 -16
19 -16 19 9 0 27 -6 30 -71 41 -37 6 -37 6 -37 -29z"/>
<path d="M20325 3984 c-117 -26 -275 -34 -727 -34 -509 0 -545 -3 -580 -53
-50 -70 -21 -136 74 -171 56 -20 73 -50 96 -170 24 -120 24 -781 0 -913 -21
-119 -33 -141 -93 -180 -77 -49 -85 -59 -85 -100 0 -40 21 -74 57 -92 15 -8
191 -11 591 -11 379 0 605 -4 673 -12 164 -19 177 -18 211 23 72 84 158 308
158 410 0 113 -68 182 -156 158 -35 -10 -68 -52 -119 -153 -29 -55 -116 -131
-172 -150 -114 -38 -350 -43 -431 -10 -18 7 -36 24 -42 39 -16 42 -33 262 -25
331 9 90 27 109 103 109 96 -1 135 -38 158 -153 16 -75 31 -92 85 -92 74 0
115 66 143 229 20 117 20 190 1 308 -25 157 -60 213 -132 213 -68 0 -93 -32
-113 -140 -12 -67 -25 -100 -44 -112 -6 -4 -48 -8 -93 -8 -95 0 -122 16 -124
73 -4 122 4 306 14 326 7 14 28 34 47 45 31 19 51 21 170 20 146 -1 237 -18
298 -56 18 -11 56 -51 83 -88 55 -76 62 -80 126 -80 87 0 131 81 119 220 -5
61 -14 91 -49 159 -23 47 -53 93 -67 103 -34 25 -83 29 -155 12z"/>
<path d="M9568 3981 c-76 -25 -163 -108 -172 -163 -3 -18 -10 -88 -15 -156
-13 -163 -41 -242 -230 -655 -213 -466 -218 -474 -326 -523 -87 -39 -105 -58
-105 -112 0 -36 6 -50 33 -77 42 -42 129 -58 327 -59 189 0 285 20 335 70 28
27 35 43 35 73 0 46 -25 72 -95 98 -48 18 -50 20 -53 58 -2 26 4 51 17 72 29
46 93 57 311 50 261 -8 311 -24 314 -104 1 -39 2 -38 -96 -98 -60 -37 -63
-104 -6 -155 43 -39 86 -48 306 -62 211 -13 443 -2 535 26 116 35 169 131 110
198 -9 10 -39 24 -69 33 -79 23 -75 17 -277 455 -105 228 -267 552 -327 655
-121 206 -195 292 -301 350 -46 25 -67 29 -139 32 -47 1 -97 -2 -112 -6z m89
-693 c39 -42 140 -225 158 -285 10 -37 -20 -44 -191 -41 -134 3 -158 5 -167
20 -17 26 93 308 125 321 28 12 56 6 75 -15z"/>
<path d="M21400 3980 c-89 -10 -216 -53 -296 -101 -32 -19 -90 -65 -129 -104
-84 -82 -127 -162 -151 -277 -15 -72 -15 -84 1 -160 34 -172 145 -309 335
-416 58 -33 74 -39 268 -107 168 -59 215 -93 215 -160 0 -43 -23 -73 -72 -97
-39 -19 -61 -23 -141 -22 -103 2 -174 21 -248 68 -54 34 -73 55 -143 156 -81
118 -89 127 -131 145 -53 22 -102 1 -125 -52 -45 -108 38 -412 133 -491 50
-42 211 -94 364 -118 398 -62 751 39 922 263 134 177 141 431 17 595 -93 123
-197 178 -545 288 -119 37 -165 65 -189 115 -48 103 53 191 191 166 82 -16
159 -61 277 -165 114 -100 144 -114 210 -102 45 8 94 59 108 109 23 86 -18
214 -104 325 -75 98 -127 118 -232 90 -41 -11 -58 -9 -173 19 -142 36 -251 46
-362 33z"/>
<path d="M11245 3973 c-22 -2 -96 -15 -165 -29 -144 -30 -202 -58 -219 -106
-18 -52 1 -89 70 -139 115 -83 123 -129 116 -666 -5 -440 -10 -479 -68 -523
-110 -83 -127 -136 -64 -196 20 -19 58 -40 87 -49 180 -53 613 -33 748 35 118
59 115 162 -5 223 -93 47 -99 80 -99 597 -1 468 3 502 64 560 20 19 52 44 71
55 102 60 57 169 -86 211 -99 28 -298 40 -450 27z"/>
<path d="M12115 3970 c-76 -10 -169 -51 -188 -82 -47 -72 -26 -126 70 -183 86
-51 106 -89 128 -240 19 -131 22 -592 5 -750 -14 -125 -31 -159 -99 -206 -65
-45 -71 -53 -71 -101 0 -117 113 -172 355 -171 171 1 258 20 315 71 32 29 42
46 46 77 6 54 -11 83 -77 127 -77 51 -90 85 -97 258 -9 254 34 328 146 253 22
-16 203 -174 403 -353 457 -410 457 -410 498 -427 45 -19 91 -10 124 25 64 67
70 127 72 722 2 628 7 660 94 705 96 49 130 117 93 185 -42 77 -162 106 -412
98 -122 -4 -153 -9 -198 -28 -65 -28 -92 -60 -92 -111 0 -61 15 -84 78 -123
82 -49 94 -78 100 -232 5 -143 -5 -190 -46 -201 -19 -4 -39 1 -69 18 -23 13
-193 157 -378 319 -185 162 -360 308 -388 325 -51 29 -55 30 -202 32 -82 1
-177 -2 -210 -7z"/>
<path d="M16705 3970 c-98 -12 -257 -49 -304 -72 -30 -15 -47 -31 -58 -55 -22
-54 -5 -91 71 -146 35 -26 71 -61 79 -79 29 -61 39 -196 38 -495 0 -317 -14
-530 -36 -573 -8 -15 -36 -43 -62 -62 -62 -45 -79 -77 -67 -125 22 -89 143
-126 414 -126 285 1 471 40 517 109 9 14 16 43 16 66 0 35 -6 46 -36 72 -19
17 -50 40 -68 51 -59 36 -70 67 -79 237 -12 200 -12 574 0 715 12 152 33 191
127 243 70 39 79 106 21 167 -60 64 -348 100 -573 73z"/>
<path d="M17699 3970 c-81 -10 -199 -42 -241 -67 -43 -25 -71 -66 -71 -104 0
-41 43 -81 114 -106 75 -26 96 -50 104 -118 4 -31 8 -272 9 -534 1 -476 1
-476 -21 -512 -14 -21 -44 -47 -75 -64 -29 -15 -63 -37 -75 -48 -33 -30 -30
-78 6 -119 l29 -33 539 -6 c415 -5 560 -10 633 -22 88 -14 98 -14 130 1 47 23
131 151 167 256 66 193 10 366 -118 366 -45 0 -73 -29 -89 -90 -7 -25 -24 -67
-38 -93 -57 -106 -150 -151 -304 -145 -111 3 -139 17 -173 84 -19 37 -20 59
-20 524 0 559 -5 530 90 575 73 34 95 57 95 99 0 58 -36 98 -112 123 -111 37
-400 54 -579 33z"/>
<path d="M6958 3959 c-73 -11 -121 -31 -150 -64 -55 -64 -42 -120 41 -168 44
-26 61 -43 81 -82 l25 -50 0 -440 c0 -556 -3 -574 -112 -657 -53 -40 -58 -48
-61 -87 -4 -53 14 -82 73 -116 83 -49 315 -73 535 -55 172 14 229 29 269 75
55 62 37 126 -51 181 -64 40 -72 72 -73 272 0 161 1 175 19 188 48 35 149 0
193 -66 24 -34 37 -74 92 -277 56 -206 116 -300 224 -353 85 -41 160 -53 297
-47 186 8 303 65 331 158 14 45 -4 89 -40 104 -70 29 -107 53 -118 75 -6 14
-19 69 -28 124 -39 230 -92 312 -248 387 -69 33 -94 58 -80 83 4 8 36 33 71
56 165 110 217 333 121 521 -51 100 -184 188 -349 230 -80 20 -97 21 -290 14
-255 -11 -485 -12 -615 -4 -55 4 -126 3 -157 -2z m720 -264 c54 -23 81 -53 97
-109 18 -58 19 -174 4 -231 -21 -75 -97 -125 -190 -125 -19 0 -44 6 -54 14
-17 12 -18 25 -11 202 7 199 14 230 56 251 33 17 53 16 98 -2z"/>
<path d="M14753 3946 c-54 -26 -83 -64 -83 -109 0 -34 26 -63 84 -95 60 -33
86 -66 97 -123 12 -63 11 -718 -1 -879 -13 -167 -25 -194 -101 -232 -78 -39
-102 -71 -96 -126 6 -53 53 -108 107 -122 68 -18 305 -31 445 -25 309 15 422
42 451 110 19 47 18 67 -8 105 -19 28 -34 36 -91 50 -40 10 -73 24 -82 36 -27
37 -39 118 -39 276 -1 188 0 192 92 191 107 -1 147 -38 168 -155 21 -108 62
-139 140 -102 79 38 117 164 117 389 0 214 -29 311 -105 351 -59 30 -114 -2
-143 -83 -28 -81 -39 -97 -78 -117 -30 -14 -50 -17 -94 -11 -75 9 -103 37
-103 101 0 73 30 257 46 281 23 37 78 45 226 33 206 -16 222 -23 337 -141 96
-97 98 -99 144 -99 100 0 150 92 127 236 -13 83 -64 195 -114 248 l-36 38 -77
-5 c-333 -22 -606 -28 -825 -17 -489 24 -447 24 -505 -4z"/>
<path d="M5042 3942 c-53 -17 -82 -54 -82 -103 0 -46 25 -75 104 -121 79 -47
81 -56 80 -393 -1 -274 -21 -602 -45 -728 -11 -58 -37 -98 -84 -127 -45 -28
-65 -57 -65 -95 0 -37 31 -89 62 -106 35 -19 1146 -22 1244 -4 269 51 473 294
450 538 -13 144 -101 266 -243 340 -94 49 -96 65 -15 152 79 84 107 157 107
280 0 76 -4 99 -26 145 -52 110 -134 176 -267 212 -74 21 -96 22 -630 22 -418
1 -562 -2 -590 -12z m847 -249 c14 -10 39 -44 54 -74 27 -51 28 -60 25 -159
-2 -83 -7 -112 -23 -139 -28 -48 -63 -71 -120 -77 -41 -5 -55 -3 -74 13 -24
19 -25 26 -29 166 -8 255 8 304 95 294 25 -3 57 -13 72 -24z m6 -704 c87 -25
135 -115 135 -259 0 -69 -4 -94 -22 -130 -59 -117 -231 -133 -266 -25 -15 44
-22 332 -10 376 13 45 80 61 163 38z"/>
<path d="M8601 1331 c-34 -48 -82 -162 -97 -231 -36 -167 2 -377 91 -512 21
-32 31 -38 60 -38 19 0 35 4 35 10 0 5 -13 42 -29 82 -44 112 -56 180 -55 323
1 135 16 204 72 343 l22 52 -39 0 c-32 0 -44 -5 -60 -29z"/>
<path d="M11382 1339 c-25 -12 -49 -34 -58 -52 -22 -41 -13 -107 19 -155 l25
-39 -46 -34 c-170 -125 -89 -339 128 -339 55 0 78 6 126 29 l58 30 40 -30 c22
-16 45 -29 51 -29 7 0 27 19 45 42 l34 41 -24 16 c-14 9 -35 25 -48 37 -24 20
-24 21 -7 54 10 19 21 47 26 62 9 31 0 38 -67 51 -26 5 -31 2 -41 -24 -6 -16
-15 -29 -20 -29 -10 1 -73 85 -73 98 0 5 16 22 35 36 44 34 65 74 65 125 0 47
-36 96 -87 117 -49 21 -131 18 -181 -7z m156 -86 c18 -24 15 -38 -14 -72 -32
-39 -47 -39 -73 -2 -26 36 -27 76 -3 91 23 14 74 4 90 -17z m-45 -313 c31 -38
57 -72 57 -75 0 -16 -70 -45 -107 -45 -70 0 -109 58 -83 121 12 27 53 69 69
69 4 0 32 -31 64 -70z"/>
<path d="M15274 1344 c-129 -46 -206 -213 -175 -379 20 -106 66 -174 149 -216
39 -20 62 -24 132 -24 125 1 187 39 234 143 22 49 20 53 -47 75 l-47 16 -25
-49 c-32 -62 -70 -84 -137 -78 -80 8 -119 58 -133 169 -20 161 69 280 186 249
39 -11 84 -50 94 -81 4 -13 13 -18 23 -15 9 3 36 10 60 16 23 6 42 17 42 24 0
8 -15 35 -32 62 -48 70 -117 104 -212 103 -39 0 -90 -7 -112 -15z"/>
<path d="M16290 1356 c0 -3 11 -31 25 -63 74 -167 91 -365 46 -543 -13 -52
-34 -116 -47 -142 -13 -26 -24 -50 -24 -53 0 -3 19 -5 42 -3 39 3 44 7 75 58
18 30 45 91 60 135 24 70 27 96 27 210 1 117 -2 138 -27 210 -15 44 -43 105
-61 135 -30 51 -35 55 -74 58 -23 2 -42 1 -42 -2z"/>
<path d="M19980 1313 c-17 -26 -44 -83 -61 -128 -27 -68 -32 -97 -36 -195 -6
-143 10 -219 73 -347 l46 -93 39 0 c21 0 39 4 39 9 0 5 -13 42 -29 83 -86 215
-78 448 23 681 l16 37 -40 0 c-37 0 -43 -4 -70 -47z"/>
<path d="M21234 1350 c-70 -22 -127 -72 -164 -144 -32 -64 -35 -76 -35 -160 0
-73 5 -102 24 -149 62 -151 242 -217 423 -153 36 13 80 33 97 45 l31 22 0 125
0 124 -135 0 -135 0 0 -50 0 -50 70 0 70 0 0 -44 c0 -42 -2 -45 -45 -65 -94
-44 -201 -18 -244 60 -52 91 -33 253 34 305 76 57 171 50 229 -17 33 -39 36
-40 78 -34 67 10 74 17 58 55 -38 93 -107 133 -235 137 -49 1 -104 -2 -121 -7z"/>
<path d="M21940 1355 c0 -3 11 -33 25 -67 46 -115 65 -213 65 -329 0 -143 -18
-226 -85 -392 -7 -16 -3 -18 36 -15 42 3 43 4 81 75 115 213 113 455 -6 667
-36 64 -38 66 -76 66 -22 0 -40 -2 -40 -5z"/>
<path d="M5365 1337 c-3 -7 -4 -145 -3 -307 l3 -295 60 0 60 0 3 308 2 307
-60 0 c-40 0 -62 -4 -65 -13z"/>
<path d="M5607 1344 c-8 -8 -9 -541 -1 -581 6 -33 7 -33 65 -33 l59 0 0 310 0
310 -58 0 c-32 0 -61 -3 -65 -6z"/>
<path d="M5806 1309 c-4 -23 -3 -46 1 -50 5 -5 46 -9 93 -11 l85 -3 3 -257 2
-258 60 0 c41 0 60 4 60 13 0 6 0 117 1 245 0 128 2 239 5 247 5 12 26 15 96
15 l89 0 -3 48 -3 47 -241 3 -241 2 -7 -41z"/>
<path d="M6849 1348 c-1 -2 -3 -108 -5 -237 -4 -268 -7 -281 -73 -281 -44 0
-65 19 -76 69 -7 33 -7 33 -57 29 -27 -3 -53 -9 -59 -15 -14 -14 15 -110 42
-140 34 -37 80 -53 146 -53 78 1 134 27 170 81 l28 42 3 254 3 253 -60 0 c-34
0 -62 -1 -62 -2z"/>
<path d="M7105 1338 c-3 -7 -4 -146 -3 -308 l3 -295 235 0 235 0 3 47 3 48
-173 2 -173 3 -3 82 -3 82 153 3 153 3 0 50 0 50 -152 3 -153 3 0 69 0 70 171
0 170 0 -3 48 -3 47 -228 3 c-178 2 -229 0 -232 -10z"/>
<path d="M7685 1337 c-3 -7 -4 -145 -3 -307 l3 -295 235 0 235 0 3 48 3 47
-160 0 c-87 0 -166 3 -175 6 -13 5 -16 22 -16 85 l0 78 153 3 152 3 3 53 3 52
-155 0 -156 0 0 70 0 70 165 0 165 0 0 50 0 50 -225 0 c-172 0 -227 -3 -230
-13z"/>
<path d="M8795 1338 c-3 -7 -4 -146 -3 -308 l3 -295 55 0 55 0 5 220 c3 121 8
213 12 205 3 -8 25 -91 48 -185 23 -93 46 -187 52 -208 l11 -38 61 3 60 3 57
225 57 225 3 -225 4 -225 58 -3 57 -3 0 311 0 310 -94 0 -94 0 -20 -77 c-12
-43 -36 -135 -54 -205 -18 -71 -36 -122 -40 -115 -6 11 -30 101 -88 327 l-16
65 -92 3 c-69 2 -94 -1 -97 -10z"/>
<path d="M9678 1308 c-9 -24 -36 -95 -61 -158 -24 -63 -67 -173 -94 -245 -76
-194 -76 -175 0 -175 l64 0 25 68 25 67 128 0 128 0 22 -65 22 -65 66 -3 c37
-2 67 1 67 6 0 5 -54 144 -119 308 l-119 299 -69 3 -68 3 -17 -43z m126 -216
c20 -54 36 -102 36 -105 0 -4 -36 -7 -81 -7 -61 0 -80 3 -76 13 2 6 20 54 38
104 19 51 37 93 40 93 4 0 23 -44 43 -98z"/>
<path d="M10140 1040 l0 -311 63 3 62 3 0 305 0 305 -62 3 -63 3 0 -311z"/>
<path d="M10390 1040 l0 -310 55 0 55 0 0 189 c0 105 3 192 8 194 4 3 61 -82
127 -189 l120 -194 62 0 63 0 0 310 0 311 -57 -3 -58 -3 -5 -195 -5 -195 -45
70 c-25 38 -79 126 -121 195 l-76 125 -62 3 -61 3 0 -311z"/>
<path d="M12267 1343 c-7 -12 -196 -499 -218 -561 l-18 -53 66 3 65 3 25 68
25 67 127 0 127 0 17 -53 c26 -83 33 -89 105 -85 l62 3 -123 305 -123 305 -66
3 c-36 2 -68 -1 -71 -5z m117 -265 l35 -98 -79 0 c-57 0 -80 4 -80 13 0 6 13
46 29 87 15 41 31 84 35 94 10 29 21 11 60 -96z"/>
<path d="M12720 1041 l0 -311 149 0 c221 0 283 27 340 150 22 47 25 69 26 155
0 110 -12 157 -57 223 -52 75 -86 86 -285 90 l-173 4 0 -311z m316 186 c51
-27 69 -76 69 -192 -1 -159 -26 -189 -167 -201 l-88 -7 0 213 0 213 78 -5 c43
-3 91 -12 108 -21z"/>
<path d="M13290 1335 c0 -8 9 -38 21 -67 12 -29 31 -82 44 -118 88 -251 136
-384 145 -401 10 -17 20 -20 77 -17 l65 3 104 293 c57 162 104 300 104 308 0
12 -13 14 -62 12 l-61 -3 -69 -205 c-37 -113 -71 -212 -74 -220 -8 -20 -23 15
-94 225 -32 94 -61 178 -65 188 -10 23 -135 26 -135 2z"/>
<path d="M14037 1343 c-8 -12 -237 -603 -237 -610 0 -2 29 -3 65 -3 44 0 67 4
70 13 2 6 14 38 25 70 l22 58 126 -3 127 -3 24 -67 23 -68 63 0 c34 0 64 2 67
5 3 3 -50 141 -116 308 l-122 302 -66 3 c-37 2 -68 -1 -71 -5z m123 -285 l29
-78 -80 0 c-54 0 -79 4 -79 12 0 6 17 57 37 112 l37 100 14 -34 c7 -18 26 -69
42 -112z"/>
<path d="M14490 1040 l0 -310 55 0 55 0 0 189 c0 105 4 192 8 195 4 2 55 -72
112 -165 145 -235 130 -219 201 -219 l59 0 0 310 0 310 -55 0 -55 0 0 -202 -1
-203 -20 25 c-12 14 -69 104 -128 200 l-108 175 -61 3 -62 3 0 -311z"/>
<path d="M15740 1040 l0 -310 238 2 237 3 0 45 0 45 -170 5 -170 5 -3 82 -3
82 153 3 153 3 0 50 0 50 -152 3 -153 3 0 69 0 70 165 0 165 0 0 50 0 50 -230
0 -230 0 0 -310z"/>
<path d="M17335 1337 c-3 -7 -4 -145 -3 -307 l3 -295 58 -3 57 -3 0 191 c0
146 3 191 12 188 7 -3 64 -89 127 -192 l114 -187 61 3 61 3 3 308 2 307 -60 0
-60 0 -2 -200 -3 -201 -124 201 -123 200 -59 0 c-39 0 -61 -4 -64 -13z"/>
<path d="M17965 1337 c-3 -7 -4 -145 -3 -307 l3 -295 233 -3 232 -2 0 50 0 50
-167 2 -168 3 -3 82 -3 82 153 3 153 3 0 50 0 50 -152 3 -153 3 0 69 0 70 165
0 165 0 0 50 0 50 -225 0 c-172 0 -227 -3 -230 -13z"/>
<path d="M18545 1337 c-3 -7 -4 -145 -3 -307 l3 -295 233 -3 c182 -2 232 0
233 10 5 50 3 81 -6 84 -5 2 -82 5 -170 6 l-160 3 -3 82 -3 82 153 3 153 3 0
50 0 50 -152 3 -153 3 0 69 0 70 165 0 165 0 0 50 0 50 -225 0 c-172 0 -227
-3 -230 -13z"/>
<path d="M19080 1300 l0 -50 90 0 90 0 2 -257 3 -258 63 -3 62 -3 0 261 0 260
90 0 90 0 0 50 0 50 -245 0 -245 0 0 -50z"/>
<path d="M20183 1334 c-9 -25 4 -446 16 -486 14 -45 77 -103 128 -117 21 -6
72 -11 114 -11 64 0 85 5 130 28 44 22 59 37 79 77 24 48 25 58 28 288 l4 237
-66 0 -65 0 -3 -236 -3 -236 -28 -24 c-56 -48 -174 -25 -197 39 -6 17 -10 123
-10 243 l0 214 -60 0 c-46 0 -62 -4 -67 -16z"/>
<path d="M4974 1127 c-2 -7 -3 -60 -2 -118 l3 -104 105 0 105 0 3 118 3 117
-106 0 c-78 0 -107 -3 -111 -13z"/>
<path d="M16824 1127 c-2 -7 -3 -60 -2 -118 l3 -104 105 0 105 0 3 118 3 117
-106 0 c-78 0 -107 -3 -111 -13z"/>
<path d="M6327 1014 c-4 -4 -7 -31 -7 -61 l0 -53 115 0 116 0 -3 58 -3 57
-106 3 c-58 1 -108 -1 -112 -4z"/>
<path d="M20810 790 l0 -61 58 3 57 3 0 55 0 55 -57 3 -58 3 0 -61z"/>
<path d="M21730 790 l0 -60 55 0 c59 0 57 -3 57 65 0 19 -1 40 -1 45 -1 6 -26
10 -56 10 l-55 0 0 -60z"/>
<path d="M0 60 l0 -50 11225 0 11225 0 0 50 0 50 -11225 0 -11225 0 0 -50z"/>
</g>
</svg>
